<svg width="64" height="64" viewBox="0 0 64 64" fill="none" xmlns="http://www.w3.org/2000/svg">
<rect x="1" y="1" width="62" height="62" rx="15" fill="white"/>
<path d="M25.334 34.6666C27.5473 34.6666 29.334 32.88 29.334 30.6666C29.334 28.4533 27.5473 26.6666 25.334 26.6666C23.1207 26.6666 21.334 28.4533 21.334 30.6666C21.334 32.88 23.1207 34.6666 25.334 34.6666ZM25.334 29.3333C26.0673 29.3333 26.6673 29.9333 26.6673 30.6666C26.6673 31.4 26.0673 32 25.334 32C24.6007 32 24.0007 31.4 24.0007 30.6666C24.0007 29.9333 24.6007 29.3333 25.334 29.3333ZM41.334 25.3333H30.6673V36H20.0007V22.6666H17.334V42.6666H20.0007V38.6666H44.0007V42.6666H46.6673V30.6666C46.6673 27.72 44.2807 25.3333 41.334 25.3333ZM44.0007 36H33.334V28H41.334C42.8007 28 44.0007 29.2 44.0007 30.6666V36Z" fill="#374151"/>
<rect x="1" y="1" width="62" height="62" rx="15" stroke="#D1D5DB" stroke-width="2"/>
</svg>
