<svg width="64" height="64" viewBox="0 0 64 64" fill="none" xmlns="http://www.w3.org/2000/svg">
<rect x="1" y="1" width="62" height="62" rx="15" fill="white"/>
<path d="M25.5005 25V20C25.5005 19.7348 25.6059 19.4804 25.7934 19.2929C25.9809 19.1054 26.2353 19 26.5005 19C26.7657 19 27.0201 19.1054 27.2076 19.2929C27.3952 19.4804 27.5005 19.7348 27.5005 20V25C27.5005 25.2652 27.3952 25.5196 27.2076 25.7071C27.0201 25.8946 26.7657 26 26.5005 26C26.2353 26 25.9809 25.8946 25.7934 25.7071C25.6059 25.5196 25.5005 25.2652 25.5005 25ZM30.988 19.8375C30.9667 19.7078 30.92 19.5836 30.8507 19.472C30.7813 19.3603 30.6907 19.2634 30.5839 19.1868C30.4771 19.1102 30.3563 19.0554 30.2283 19.0255C30.1003 18.9956 29.9677 18.9912 29.838 19.0125C29.5761 19.0556 29.3421 19.201 29.1873 19.4166C29.0326 19.6323 28.9699 19.9006 29.013 20.1625L30.0005 26.075C30.0005 27.0033 29.6318 27.8935 28.9754 28.5499C28.319 29.2062 27.4288 29.575 26.5005 29.575C25.5723 29.575 24.682 29.2062 24.0256 28.5499C23.3693 27.8935 23.0005 27.0033 23.0005 26.075L23.988 20.1625C24.0094 20.0328 24.0049 19.9002 23.975 19.7722C23.9451 19.6443 23.8903 19.5234 23.8137 19.4166C23.7371 19.3098 23.6402 19.2192 23.5285 19.1499C23.4169 19.0805 23.2927 19.0338 23.163 19.0125C23.0333 18.9912 22.9007 18.9956 22.7727 19.0255C22.6448 19.0554 22.5239 19.1102 22.4171 19.1868C22.3104 19.2634 22.2197 19.3603 22.1504 19.472C22.081 19.5836 22.0343 19.7078 22.013 19.8375L21.013 25.8375C21.0026 25.891 20.9984 25.9455 21.0005 26C21.002 27.2853 21.4525 28.5297 22.2742 29.518C23.0959 30.5063 24.2371 31.1764 25.5005 31.4125V44C25.5005 44.2652 25.6059 44.5196 25.7934 44.7071C25.9809 44.8946 26.2353 45 26.5005 45C26.7657 45 27.0201 44.8946 27.2076 44.7071C27.3952 44.5196 27.5005 44.2652 27.5005 44V31.4125C28.7639 31.1764 29.9051 30.5063 30.7268 29.518C31.5485 28.5297 31.9991 27.2853 32.0005 26C32.0026 25.9455 31.9984 25.891 31.988 25.8375L30.988 19.8375ZM42.5005 20V44C42.5005 44.2652 42.3952 44.5196 42.2076 44.7071C42.0201 44.8946 41.7657 45 41.5005 45C41.2353 45 40.9809 44.8946 40.7934 44.7071C40.6059 44.5196 40.5005 44.2652 40.5005 44V37H34.5005C34.359 36.9986 34.2193 36.9679 34.0902 36.9098C33.9611 36.8517 33.8454 36.7675 33.7505 36.6625C33.6575 36.5577 33.5872 36.4346 33.5442 36.3012C33.5011 36.1678 33.4863 36.0269 33.5005 35.8875C33.8103 33.3839 34.3033 30.9065 34.9755 28.475C36.4755 23.175 38.563 20 41.163 19.0625C41.3136 19.0054 41.4759 18.986 41.6357 19.006C41.7955 19.026 41.948 19.0848 42.0799 19.1772C42.2118 19.2697 42.3191 19.393 42.3924 19.5364C42.4657 19.6798 42.5028 19.839 42.5005 20ZM40.5005 21.8C39.113 23.075 37.888 25.525 36.9005 29.025C36.359 30.9892 35.9374 32.9846 35.638 35H40.5005V21.8Z" fill="#374151"/>
<rect x="1" y="1" width="62" height="62" rx="15" stroke="#D1D5DB" stroke-width="2"/>
</svg>
