<svg width="64" height="64" viewBox="0 0 64 64" fill="none" xmlns="http://www.w3.org/2000/svg">
<rect x="1" y="1" width="62" height="62" rx="15" fill="white"/>
<path d="M38.25 30C38.25 29.8011 38.171 29.6103 38.0303 29.4697C37.8897 29.329 37.6989 29.25 37.5 29.25C37.3011 29.25 37.1103 29.329 36.9697 29.4697C36.829 29.6103 36.75 29.8011 36.75 30V31.25H35.5C35.3011 31.25 35.1103 31.329 34.9697 31.4697C34.829 31.6103 34.75 31.8011 34.75 32C34.75 32.1989 34.829 32.3897 34.9697 32.5303C35.1103 32.671 35.3011 32.75 35.5 32.75H36.75V34C36.75 34.1989 36.829 34.3897 36.9697 34.5303C37.1103 34.671 37.3011 34.75 37.5 34.75C37.6989 34.75 37.8897 34.671 38.0303 34.5303C38.171 34.3897 38.25 34.1989 38.25 34V32.75H39.5C39.6989 32.75 39.8897 32.671 40.0303 32.5303C40.171 32.3897 40.25 32.1989 40.25 32C40.25 31.8011 40.171 31.6103 40.0303 31.4697C39.8897 31.329 39.6989 31.25 39.5 31.25H38.25V30Z" fill="#374151"/>
<path fill-rule="evenodd" clip-rule="evenodd" d="M43.75 32.318C43.75 28.992 42.268 26.51 39.96 25.607C37.825 24.77 35.262 25.396 33 27.513C30.738 25.396 28.175 24.77 26.04 25.607C23.732 26.51 22.25 28.992 22.25 32.317C22.25 34.436 23.38 36.52 24.787 38.314C26.209 40.127 27.997 41.75 29.489 42.961L29.623 43.071C30.823 44.046 31.691 44.751 33 44.751C34.31 44.751 35.176 44.046 36.377 43.071L36.511 42.961C38.003 41.751 39.791 40.127 41.213 38.314C42.62 36.52 43.75 34.436 43.75 32.318ZM33.548 29.087C35.66 26.828 37.849 26.391 39.414 27.003C40.982 27.617 42.25 29.413 42.25 32.318C42.25 33.929 41.37 35.682 40.032 37.388C38.708 39.078 37.016 40.62 35.566 41.797C34.173 42.927 33.723 43.25 33 43.25C32.277 43.25 31.827 42.927 30.434 41.796C28.984 40.62 27.292 39.077 25.968 37.389C24.629 35.682 23.75 33.929 23.75 32.318C23.75 29.413 25.018 27.618 26.586 27.003C28.151 26.391 30.34 26.828 32.452 29.087C32.5222 29.1621 32.607 29.222 32.7013 29.2629C32.7956 29.3038 32.8972 29.3249 33 29.3249C33.1028 29.3249 33.2044 29.3038 33.2987 29.2629C33.393 29.222 33.4778 29.1621 33.548 29.087Z" fill="#374151"/>
<rect x="1" y="1" width="62" height="62" rx="15" stroke="#D1D5DB" stroke-width="2"/>
</svg>
