<svg width="22" height="22" viewBox="0 0 22 22" fill="none" xmlns="http://www.w3.org/2000/svg">
<path d="M1 21H21M18 7V4L15.5 1L13 4V7M12.5 15H18.5V21H12.5V15Z" stroke="#374151" stroke-width="1.5" stroke-linecap="round" stroke-linejoin="round"/>
<path d="M11.5 9H4.5C4.23478 9 3.98043 9.10536 3.79289 9.29289C3.60536 9.48043 3.5 9.73478 3.5 10V21" stroke="#374151" stroke-width="1.5" stroke-linejoin="round"/>
<path d="M19 7H12C11.7239 7 11.5 7.22386 11.5 7.5V14.5C11.5 14.7761 11.7239 15 12 15H19C19.2761 15 19.5 14.7761 19.5 14.5V7.5C19.5 7.22386 19.2761 7 19 7Z" stroke="#374151" stroke-width="1.5" stroke-linecap="round" stroke-linejoin="round"/>
</svg>
