<svg width="41" height="48" viewBox="0 0 41 48" fill="none" xmlns="http://www.w3.org/2000/svg">
<g filter="url(#filter0_d_7_3)">
<path d="M11.2508 9.50002V2.00003C11.2508 1.6022 11.4088 1.22067 11.6901 0.939365C11.9714 0.658061 12.3529 0.500026 12.7508 0.500026C13.1486 0.500026 13.5301 0.658061 13.8114 0.939365C14.0927 1.22067 14.2508 1.6022 14.2508 2.00003V9.50002C14.2508 9.89785 14.0927 10.2794 13.8114 10.5607C13.5301 10.842 13.1486 11 12.7508 11C12.3529 11 11.9714 10.842 11.6901 10.5607C11.4088 10.2794 11.2508 9.89785 11.2508 9.50002ZM19.482 1.75628C19.45 1.56176 19.38 1.37544 19.276 1.20798C19.172 1.04052 19.036 0.895179 18.8758 0.780267C18.7156 0.665354 18.5344 0.583117 18.3424 0.53825C18.1505 0.493383 17.9515 0.486766 17.757 0.518776C17.3642 0.583422 17.0131 0.801481 16.781 1.12498C16.5489 1.44848 16.4549 1.85092 16.5195 2.24378L18.0008 11.1125C18.0008 12.5049 17.4476 13.8403 16.4631 14.8248C15.4785 15.8094 14.1432 16.3625 12.7508 16.3625C11.3584 16.3625 10.023 15.8094 9.03846 14.8248C8.05389 13.8403 7.50077 12.5049 7.50077 11.1125L8.98202 2.24378C9.01403 2.04925 9.00741 1.85033 8.96254 1.65837C8.91767 1.46641 8.83544 1.28516 8.72052 1.12498C8.60561 0.9648 8.46028 0.828821 8.29281 0.724808C8.12535 0.620795 7.93904 0.550786 7.74452 0.518776C7.55 0.486766 7.35107 0.493383 7.15911 0.53825C6.96715 0.583117 6.7859 0.665354 6.62572 0.780267C6.46554 0.895179 6.32956 1.04052 6.22555 1.20798C6.12154 1.37544 6.05152 1.56176 6.01952 1.75628L4.51952 10.7563C4.50396 10.8365 4.49767 10.9183 4.50077 11C4.50294 12.928 5.17872 14.7945 6.41127 16.277C7.64381 17.7595 9.35564 18.7647 11.2508 19.1188V38C11.2508 38.3978 11.4088 38.7794 11.6901 39.0607C11.9714 39.342 12.3529 39.5 12.7508 39.5C13.1486 39.5 13.5301 39.342 13.8114 39.0607C14.0927 38.7794 14.2508 38.3978 14.2508 38V19.1188C16.1459 18.7647 17.8577 17.7595 19.0903 16.277C20.3228 14.7945 20.9986 12.928 21.0008 11C21.0039 10.9183 20.9976 10.8365 20.982 10.7563L19.482 1.75628ZM36.7508 2.00003V38C36.7508 38.3978 36.5927 38.7794 36.3114 39.0607C36.0301 39.342 35.6486 39.5 35.2508 39.5C34.8529 39.5 34.4714 39.342 34.1901 39.0607C33.9088 38.7794 33.7508 38.3978 33.7508 38V27.5H24.7508C24.5385 27.4979 24.3289 27.4518 24.1353 27.3647C23.9416 27.2775 23.7682 27.1513 23.6258 26.9938C23.4862 26.8365 23.3808 26.652 23.3162 26.4519C23.2517 26.2518 23.2294 26.0404 23.2508 25.8313C23.7155 22.0759 24.455 18.3597 25.4633 14.7125C27.7133 6.76253 30.8445 2.00003 34.7445 0.593776C34.9704 0.508123 35.2138 0.479025 35.4536 0.509018C35.6933 0.539012 35.922 0.627186 36.1199 0.765854C36.3177 0.904523 36.4786 1.08948 36.5886 1.30459C36.6985 1.51971 36.7542 1.75846 36.7508 2.00003ZM33.7508 4.70003C31.6695 6.61253 29.832 10.2875 28.3508 15.5375C27.5385 18.4839 26.9061 21.4769 26.457 24.5H33.7508V4.70003Z" fill="#1B63F8"/>
</g>
<defs>
<filter id="filter0_d_7_3" x="0.5" y="0.497559" width="40.2509" height="47.0025" filterUnits="userSpaceOnUse" color-interpolation-filters="sRGB">
<feFlood flood-opacity="0" result="BackgroundImageFix"/>
<feColorMatrix in="SourceAlpha" type="matrix" values="0 0 0 0 0 0 0 0 0 0 0 0 0 0 0 0 0 0 127 0" result="hardAlpha"/>
<feOffset dy="4"/>
<feGaussianBlur stdDeviation="2"/>
<feComposite in2="hardAlpha" operator="out"/>
<feColorMatrix type="matrix" values="0 0 0 0 0 0 0 0 0 0 0 0 0 0 0 0 0 0 0.25 0"/>
<feBlend mode="normal" in2="BackgroundImageFix" result="effect1_dropShadow_7_3"/>
<feBlend mode="normal" in="SourceGraphic" in2="effect1_dropShadow_7_3" result="shape"/>
</filter>
</defs>
</svg>
