<svg width="25" height="22" viewBox="0 0 25 22" fill="none" xmlns="http://www.w3.org/2000/svg">
<path d="M22.0794 14.747L21.3098 16.8613C21.2418 17.0483 21.1023 17.2005 20.922 17.2846C20.7417 17.3686 20.5354 17.3776 20.3485 17.3096L4.82598 11.6599C4.06676 11.3865 3.41661 10.8744 2.97304 10.2003C2.52947 9.52619 2.31638 8.72647 2.36573 7.92104L2.62739 4.33722C2.64266 4.10333 2.71153 3.87608 2.82868 3.67306C2.94582 3.47004 3.10809 3.29669 3.30295 3.16642C3.49986 3.03964 3.72343 2.96011 3.95617 2.93406C4.18891 2.908 4.42453 2.93613 4.6446 3.01623L6.15986 3.56774C6.26267 3.6054 6.35585 3.66539 6.43269 3.74339C6.50954 3.82139 6.56813 3.91545 6.60426 4.01881L7.47819 6.44198L8.99345 6.99348L9.06311 4.33512C9.06899 4.0969 9.13153 3.86351 9.24556 3.65428C9.35959 3.44504 9.52183 3.26599 9.71884 3.13194C9.91585 2.99789 10.142 2.91271 10.3785 2.88345C10.6149 2.85418 10.855 2.88168 11.0787 2.96367L12.5676 3.50555C12.6656 3.54066 12.7552 3.59606 12.8304 3.66812C12.9056 3.74019 12.9647 3.82731 13.004 3.92378L15.213 9.25723L19.8381 10.9406C20.7727 11.2808 21.5338 11.9783 21.9542 12.8796C22.3745 13.781 22.4195 13.8125 22.0794 14.747ZM20.5912 14.5C20.7927 13.9391 20.8431 14.0553 20.5912 13.5152C20.3393 12.9751 19.8842 12.5563 19.3251 12.3501L14.3917 10.5545C14.2936 10.5194 14.2041 10.464 14.1289 10.392C14.0537 10.3199 13.9945 10.2328 13.9553 10.1363L11.7462 4.80287L10.5657 4.3732L10.4645 8.07762C10.4604 8.19612 10.4287 8.31203 10.3717 8.41605C10.3148 8.52007 10.2343 8.60931 10.1367 8.67664C10.0386 8.74383 9.92565 8.78639 9.80756 8.80072C9.68947 8.81504 9.56966 8.80071 9.45828 8.75894L6.63921 7.73288C6.53639 7.69521 6.44321 7.63523 6.36637 7.55723C6.28952 7.47923 6.23093 7.38517 6.19481 7.2818L5.32087 4.85864L4.12276 4.42257L3.8611 8.00639C3.83178 8.48991 3.95994 8.96991 4.22639 9.37445C4.49284 9.779 4.88321 10.0863 5.33901 10.2503L20.1568 15.6435L20.5912 14.5Z" fill="#374151"/>
<rect x="3" y="20" width="18" height="1.5" rx="0.75" fill="#374151"/>
</svg>
