<svg width="64" height="64" viewBox="0 0 64 64" fill="none" xmlns="http://www.w3.org/2000/svg">
<rect x="1" y="1" width="62" height="62" rx="15" fill="white"/>
<path d="M29.4286 46C27.7024 46 26.0853 45.6733 24.5773 45.02C23.0693 44.3667 21.7519 43.4683 20.625 42.325C19.4972 41.1817 18.6111 39.8456 17.9667 38.3168C17.3222 36.788 17 35.1491 17 33.4C17 31.65 17.3222 30.0106 17.9667 28.4818C18.6111 26.953 19.4972 25.6174 20.625 24.475C21.7528 23.3317 23.0707 22.4333 24.5787 21.78C26.0867 21.1267 27.7033 20.8 29.4286 20.8C29.9119 20.8 30.3777 20.8294 30.8261 20.8882C31.2744 20.947 31.7292 21.0343 32.1905 21.15V24.02C31.7302 23.88 31.2754 23.775 30.8261 23.705C30.3768 23.635 29.911 23.6 29.4286 23.6C26.7127 23.6 24.4226 24.545 22.5583 26.435C20.694 28.325 19.7619 30.6467 19.7619 33.4C19.7619 36.1533 20.694 38.475 22.5583 40.365C24.4226 42.255 26.7127 43.2 29.4286 43.2C32.1444 43.2 34.4345 42.255 36.2988 40.365C38.1631 38.475 39.0952 36.1533 39.0952 33.4C39.0952 33.1433 39.0837 32.91 39.0607 32.7C39.0377 32.49 39.0032 32.2567 38.9571 32H41.7881C41.8341 32.2567 41.8571 32.49 41.8571 32.7V33.4C41.8571 35.15 41.5349 36.7894 40.8905 38.3182C40.246 39.847 39.3599 41.1826 38.2321 42.325C37.1044 43.4683 35.7865 44.3667 34.2785 45.02C32.7705 45.6733 31.1538 46 29.4286 46ZM33.2952 39.28L28.0476 33.96V26.4H30.8095V32.84L35.2286 37.32L33.2952 39.28ZM39.0952 29.2V25H34.9524V22.2H39.0952V18H41.8571V22.2H46V25H41.8571V29.2H39.0952Z" fill="#374151"/>
<rect x="1" y="1" width="62" height="62" rx="15" stroke="#D1D5DB" stroke-width="2"/>
</svg>
