<svg width="41" height="40" viewBox="0 0 41 40" fill="none" xmlns="http://www.w3.org/2000/svg">
<rect x="0.229492" width="40" height="40" rx="20" fill="url(#paint0_linear_153_4258)"/>
<path d="M20.3891 19.62C20.3591 19.62 20.3391 19.62 20.3091 19.62C20.2591 19.61 20.1891 19.61 20.1291 19.62C17.2291 19.53 15.0391 17.25 15.0391 14.44C15.0391 11.58 17.3691 9.25 20.2291 9.25C23.0891 9.25 25.4191 11.58 25.4191 14.44C25.4091 17.25 23.2091 19.53 20.4191 19.62C20.4091 19.62 20.3991 19.62 20.3891 19.62ZM20.2291 10.75C18.1991 10.75 16.5391 12.41 16.5391 14.44C16.5391 16.44 18.0991 18.05 20.0891 18.12C20.1391 18.11 20.2791 18.11 20.4091 18.12C22.3691 18.03 23.9091 16.42 23.9191 14.44C23.9191 12.41 22.2591 10.75 20.2291 10.75Z" fill="white"/>
<path d="M20.3991 30.55C18.4391 30.55 16.4691 30.05 14.9791 29.05C13.5891 28.13 12.8291 26.87 12.8291 25.5C12.8291 24.13 13.5891 22.86 14.9791 21.93C17.9791 19.94 22.8391 19.94 25.8191 21.93C27.1991 22.85 27.9691 24.11 27.9691 25.48C27.9691 26.85 27.2091 28.12 25.8191 29.05C24.3191 30.05 22.3591 30.55 20.3991 30.55ZM15.8091 23.19C14.8491 23.83 14.3291 24.65 14.3291 25.51C14.3291 26.36 14.8591 27.18 15.8091 27.81C18.2991 29.48 22.4991 29.48 24.9891 27.81C25.9491 27.17 26.4691 26.35 26.4691 25.49C26.4691 24.64 25.9391 23.82 24.9891 23.19C22.4991 21.53 18.2991 21.53 15.8091 23.19Z" fill="white"/>
<defs>
<linearGradient id="paint0_linear_153_4258" x1="0.229492" y1="20" x2="40.2295" y2="20" gradientUnits="userSpaceOnUse">
<stop stop-color="#00C6FF"/>
<stop offset="1" stop-color="#0072FF"/>
</linearGradient>
</defs>
</svg>
