<svg width="36" height="36" viewBox="0 0 36 36" fill="none" xmlns="http://www.w3.org/2000/svg">
<path fill-rule="evenodd" clip-rule="evenodd" d="M6 1C6 0.734784 6.10536 0.48043 6.29289 0.292893C6.48043 0.105357 6.73478 0 7 0H29C29.2652 0 29.5196 0.105357 29.7071 0.292893C29.8946 0.48043 30 0.734784 30 1V2H35C35.2652 2 35.5196 2.10536 35.7071 2.29289C35.8946 2.48043 36 2.73478 36 3V9C36 10.3261 35.4732 11.5979 34.5355 12.5355C33.5979 13.4732 32.3261 14 31 14H29.317C27.776 18.36 23.787 21.564 19 21.959V28H26C26.2652 28 26.5196 28.1054 26.7071 28.2929C26.8946 28.4804 27 28.7348 27 29V35C27 35.2652 26.8946 35.5196 26.7071 35.7071C26.5196 35.8946 26.2652 36 26 36H10C9.73478 36 9.48043 35.8946 9.29289 35.7071C9.10536 35.5196 9 35.2652 9 35V29C9 28.7348 9.10536 28.4804 9.29289 28.2929C9.48043 28.1054 9.73478 28 10 28H17V21.959C12.214 21.564 8.224 18.36 6.683 14H5C3.67392 14 2.40215 13.4732 1.46447 12.5355C0.526784 11.5979 0 10.3261 0 9V3C0 2.73478 0.105357 2.48043 0.292893 2.29289C0.48043 2.10536 0.734784 2 1 2H6V1ZM28 10V2H8V10C8 15.523 12.477 20 18 20C23.523 20 28 15.523 28 10ZM30 4V12H31C31.7956 12 32.5587 11.6839 33.1213 11.1213C33.6839 10.5587 34 9.79565 34 9V4H30ZM2 4H6V12H5C4.20435 12 3.44129 11.6839 2.87868 11.1213C2.31607 10.5587 2 9.79565 2 9V4ZM11 30V34H25V30H11Z" fill="#1B63F8"/>
</svg>
