<svg width="64" height="64" viewBox="0 0 64 64" fill="none" xmlns="http://www.w3.org/2000/svg">
<rect x="1" y="1" width="62" height="62" rx="15" fill="white"/>
<path d="M43 24H38V23C37.9967 22.2054 37.6796 21.4442 37.1177 20.8823C36.5558 20.3204 35.7946 20.0033 35 20H29C28.2054 20.0033 27.4442 20.3204 26.8823 20.8823C26.3204 21.4442 26.0033 22.2054 26 23V24H21C20.4696 24 19.9609 24.2107 19.5858 24.5858C19.2107 24.9609 19 25.4696 19 26V42C19 42.5304 19.2107 43.0391 19.5858 43.4142C19.9609 43.7893 20.4696 44 21 44H43C43.5304 44 44.0391 43.7893 44.4142 43.4142C44.7893 43.0391 45 42.5304 45 42V26C45 25.4696 44.7893 24.9609 44.4142 24.5858C44.0391 24.2107 43.5304 24 43 24ZM28 23C28 22.7348 28.1054 22.4804 28.2929 22.2929C28.4804 22.1054 28.7348 22 29 22H35C35.2652 22 35.5196 22.1054 35.7071 22.2929C35.8946 22.4804 36 22.7348 36 23V24H28V23ZM36 26V42H28V26H36ZM21 26H26V42H21V26ZM43 42H38V26H43V42Z" fill="#374151"/>
<rect x="1" y="1" width="62" height="62" rx="15" stroke="#D1D5DB" stroke-width="2"/>
</svg>
