<svg width="64" height="64" viewBox="0 0 64 64" fill="none" xmlns="http://www.w3.org/2000/svg">
<rect x="1.33333" y="1.33333" width="61.3333" height="61.3333" rx="20" fill="white"/>
<g clip-path="url(#clip0_717_5160)">
<path fill-rule="evenodd" clip-rule="evenodd" d="M35.4587 19.8626C34.4937 19.0402 33.2672 18.5885 31.9993 18.5885C30.7314 18.5885 29.505 19.0402 28.54 19.8626L28.0387 20.2893C27.6117 20.6535 27.0807 20.8737 26.5213 20.9186L25.864 20.9719C24.6 21.0725 23.4131 21.6202 22.5164 22.5167C21.6196 23.4132 21.0716 24.5999 20.9707 25.8639L20.9187 26.5213C20.8742 27.0805 20.6544 27.6115 20.2907 28.0386L19.8627 28.5399C19.0399 29.505 18.588 30.7317 18.588 31.9999C18.588 33.2681 19.0399 34.4948 19.8627 35.4599L20.2893 35.9613C20.6535 36.3882 20.8738 36.9192 20.9187 37.4786L20.972 38.1359C21.0726 39.4 21.6203 40.5868 22.5168 41.4836C23.4133 42.3803 24.6 42.9283 25.864 43.0293L26.5213 43.0813C27.0806 43.1258 27.6115 43.3455 28.0387 43.7093L28.54 44.1359C29.5051 44.9587 30.7318 45.4106 32 45.4106C33.2682 45.4106 34.4949 44.9587 35.46 44.1359L35.9613 43.7093C36.3885 43.3455 36.9194 43.1258 37.4787 43.0813L38.136 43.0279C39.4 42.9273 40.5869 42.3797 41.4837 41.4831C42.3804 40.5866 42.9284 39.3999 43.0293 38.1359L43.08 37.4786C43.1249 36.9192 43.3451 36.3882 43.7093 35.9613L44.136 35.4586C44.9584 34.4936 45.4101 33.2672 45.4101 31.9993C45.4101 30.7314 44.9584 29.5049 44.136 28.5399L43.7093 28.0386C43.3451 27.6116 43.1249 27.0807 43.08 26.5213L43.028 25.8639C42.9274 24.5999 42.3797 23.413 41.4832 22.5163C40.5867 21.6195 39.4 21.0715 38.136 20.9706L37.4787 20.9186C36.9194 20.8741 36.3885 20.6543 35.9613 20.2906L35.4587 19.8626ZM30.2707 21.8933C30.7531 21.4822 31.3662 21.2565 32 21.2565C32.6338 21.2565 33.2469 21.4822 33.7293 21.8933L34.232 22.3213C35.0861 23.0492 36.148 23.4892 37.2667 23.5786L37.924 23.6319C38.5557 23.6825 39.1487 23.9564 39.5968 24.4045C40.0449 24.8526 40.3188 25.4456 40.3693 26.0773L40.4227 26.7346C40.5121 27.8532 40.9521 28.9152 41.68 29.7693L42.1067 30.2719C42.5177 30.7544 42.7434 31.3675 42.7434 32.0013C42.7434 32.6351 42.5177 33.2481 42.1067 33.7306L41.68 34.2333C40.9521 35.0873 40.5121 36.1493 40.4227 37.2679L40.3693 37.9253C40.3188 38.5569 40.0449 39.15 39.5968 39.598C39.1487 40.0461 38.5557 40.32 37.924 40.3706L37.2667 40.4239C36.148 40.5133 35.0861 40.9533 34.232 41.6813L33.7293 42.1079C33.2469 42.5189 32.6338 42.7447 32 42.7447C31.3662 42.7447 30.7531 42.5189 30.2707 42.1079L29.768 41.6813C28.9139 40.9533 27.852 40.5133 26.7333 40.4239L26.076 40.3706C25.4441 40.3203 24.8507 40.0466 24.4024 39.5985C23.954 39.1503 23.68 38.5571 23.6293 37.9253L23.576 37.2679C23.487 36.1494 23.0475 35.0875 22.32 34.2333L21.8933 33.7306C21.4823 33.2481 21.2566 32.6351 21.2566 32.0013C21.2566 31.3675 21.4823 30.7544 21.8933 30.2719L22.32 29.7693C23.0479 28.9152 23.4879 27.8532 23.5773 26.7346L23.6307 26.0773C23.6809 25.4453 23.9547 24.852 24.4028 24.4036C24.8509 23.9553 25.4441 23.6812 26.076 23.6306L26.7333 23.5786C27.852 23.4892 28.9139 23.0492 29.768 22.3213L30.2707 21.8933ZM36.9427 28.9439C37.07 28.8209 37.1716 28.6738 37.2415 28.5111C37.3114 28.3485 37.3481 28.1735 37.3497 27.9965C37.3512 27.8194 37.3175 27.6438 37.2504 27.48C37.1834 27.3161 37.0844 27.1673 36.9592 27.0421C36.834 26.9169 36.6851 26.8179 36.5213 26.7508C36.3574 26.6838 36.1818 26.6501 36.0048 26.6516C35.8278 26.6531 35.6528 26.6899 35.4901 26.7598C35.3275 26.8297 35.1803 26.9312 35.0573 27.0586L27.0573 35.0586C26.93 35.1816 26.8284 35.3287 26.7585 35.4914C26.6887 35.6541 26.6519 35.829 26.6503 36.0061C26.6488 36.1831 26.6825 36.3587 26.7496 36.5225C26.8166 36.6864 26.9156 36.8353 27.0408 36.9605C27.166 37.0856 27.3149 37.1846 27.4787 37.2517C27.6426 37.3187 27.8182 37.3525 27.9952 37.3509C28.1722 37.3494 28.3472 37.3126 28.5099 37.2427C28.6725 37.1728 28.8197 37.0713 28.9427 36.9439L36.9427 28.9439ZM30.6667 28.6666C30.6667 29.197 30.456 29.7057 30.0809 30.0808C29.7058 30.4559 29.1971 30.6666 28.6667 30.6666C28.1362 30.6666 27.6275 30.4559 27.2525 30.0808C26.8774 29.7057 26.6667 29.197 26.6667 28.6666C26.6667 28.1362 26.8774 27.6274 27.2525 27.2524C27.6275 26.8773 28.1362 26.6666 28.6667 26.6666C29.1971 26.6666 29.7058 26.8773 30.0809 27.2524C30.456 27.6274 30.6667 28.1362 30.6667 28.6666ZM35.3333 37.3333C35.8638 37.3333 36.3725 37.1225 36.7476 36.7475C37.1226 36.3724 37.3333 35.8637 37.3333 35.3333C37.3333 34.8028 37.1226 34.2941 36.7476 33.919C36.3725 33.544 35.8638 33.3333 35.3333 33.3333C34.8029 33.3333 34.2942 33.544 33.9191 33.919C33.5441 34.2941 33.3333 34.8028 33.3333 35.3333C33.3333 35.8637 33.5441 36.3724 33.9191 36.7475C34.2942 37.1225 34.8029 37.3333 35.3333 37.3333Z" fill="#374151"/>
</g>
<rect x="1.33333" y="1.33333" width="61.3333" height="61.3333" rx="20" stroke="#D1D5DB" stroke-width="2.66667"/>
<defs>
<clipPath id="clip0_717_5160">
<rect width="32" height="32" fill="white" transform="translate(16 16)"/>
</clipPath>
</defs>
</svg>
