<svg width="64" height="64" viewBox="0 0 64 64" fill="none" xmlns="http://www.w3.org/2000/svg">
<rect x="1" y="1" width="62" height="62" rx="15" fill="white"/>
<g clip-path="url(#clip0_3568_50753)">
<g clip-path="url(#clip1_3568_50753)">
<path fill-rule="evenodd" clip-rule="evenodd" d="M44.6616 42.8521C44.9844 42.8524 45.2949 42.9735 45.5297 43.1906C45.7644 43.4077 45.9057 43.7043 45.9246 44.02C45.9435 44.3357 45.8387 44.6465 45.6315 44.889C45.4243 45.1315 45.1303 45.2873 44.8098 45.3246L44.6616 45.3333H21.8625C21.5397 45.333 21.2292 45.2119 20.9944 44.9948C20.7597 44.7778 20.6184 44.4811 20.5995 44.1654C20.5806 43.8498 20.6854 43.5389 20.8926 43.2964C21.0998 43.054 21.3937 42.8981 21.7143 42.8608L21.8625 42.8521H44.6616ZM27.2608 22.7194C27.4731 22.6637 27.6949 22.652 27.9121 22.6849C28.1293 22.7178 28.3371 22.7946 28.5224 22.9104L28.6769 23.0209L36.5096 29.3368L41.3633 28.4783C42.2105 28.3285 43.0827 28.3947 43.8962 28.6706C44.7097 28.9466 45.4369 29.423 46.008 30.0539C46.5868 30.6928 46.8325 31.5389 46.5463 32.3677C46.3291 32.9967 45.9664 33.5681 45.4866 34.0373C45.0067 34.5064 44.4227 34.8606 43.78 35.0722L43.5178 35.1504L24.4211 40.1624C24.1799 40.2257 23.9258 40.2242 23.6854 40.1583C23.445 40.0924 23.227 39.9644 23.0544 39.7878L22.9455 39.6612L18.9214 34.3936C18.804 34.24 18.7241 34.062 18.688 33.8734C18.6518 33.6848 18.6604 33.4906 18.713 33.3058C18.7657 33.1209 18.8609 32.9504 18.9915 32.8073C19.1221 32.6642 19.2844 32.5524 19.4661 32.4806L19.6155 32.4322L22.4908 31.6779C22.7139 31.6193 22.9475 31.6092 23.1751 31.6485C23.4026 31.6877 23.6187 31.7752 23.808 31.9049L23.9474 32.0104L24.9556 32.8788L27.9891 31.7176L23.0911 25.6224C22.968 25.4692 22.8831 25.29 22.8432 25.099C22.8032 24.9081 22.8093 24.7106 22.8609 24.5223C22.9126 24.334 23.0084 24.1601 23.1407 24.0145C23.273 23.8689 23.4382 23.7555 23.6231 23.6833L23.7662 23.6374L27.2608 22.7194ZM27.4432 25.2403L26.2589 25.5505L31.0252 31.4856C31.523 32.1046 31.3165 32.9991 30.6287 33.3614L30.4856 33.4271L25.1658 35.4617C24.9725 35.5358 24.7636 35.5626 24.5573 35.5399C24.3509 35.5172 24.1533 35.4457 23.9816 35.3315L23.8562 35.236L22.6567 34.2025L22.0601 34.3601L24.511 37.5696L42.863 32.7535C43.4254 32.6059 43.8826 32.2113 44.1043 31.689C43.8456 31.4065 43.523 31.1872 43.1623 31.0487C42.8016 30.9102 42.4128 30.8563 42.027 30.8913L41.8155 30.9199L36.3893 31.8801C36.0743 31.9359 35.7493 31.8739 35.4786 31.7064L35.3494 31.6134L27.4457 25.2403H27.4432Z" fill="#374151"/>
</g>
</g>
<rect x="1" y="1" width="62" height="62" rx="15" stroke="#D1D5DB" stroke-width="2"/>
<defs>
<clipPath id="clip0_3568_50753">
<rect width="32" height="32" fill="white" transform="translate(16 16)"/>
</clipPath>
<clipPath id="clip1_3568_50753">
<rect width="32" height="32" fill="white" transform="translate(16 16)"/>
</clipPath>
</defs>
</svg>
