<svg width="64" height="64" viewBox="0 0 64 64" fill="none" xmlns="http://www.w3.org/2000/svg">
<rect x="1" y="1" width="62" height="62" rx="15" fill="white"/>
<path d="M26.6875 46.9167V44.6042L29.4375 42.2917V33.8125L17.75 37.6667V34.5833L29.4375 26.875V18.3958C29.4375 17.7535 29.6382 17.2072 30.0397 16.757C30.4412 16.3069 30.928 16.0823 31.5 16.0833C32.0729 16.0833 32.5601 16.3084 32.9616 16.7586C33.3631 17.2088 33.5634 17.7545 33.5625 18.3958V26.875L45.25 34.5833V37.6667L33.5625 33.8125V42.2917L36.3125 44.6042V46.9167L31.5 45.375L26.6875 46.9167Z" fill="#374151"/>
<rect x="1" y="1" width="62" height="62" rx="15" stroke="#D1D5DB" stroke-width="2"/>
</svg>
