<svg width="44" height="34" viewBox="0 0 44 34" fill="none" xmlns="http://www.w3.org/2000/svg">
<path d="M38.4062 1.51247C37.955 1.22052 37.4389 1.0439 36.9034 0.998127C36.3678 0.952355 35.8293 1.03884 35.335 1.24997L19.1387 7.62872C18.7553 7.78477 18.3452 7.865 17.9312 7.86497H7.5625C6.69226 7.86497 5.85766 8.21067 5.24231 8.82602C4.62695 9.44138 4.28125 10.276 4.28125 11.1462V11.4087H1V19.2837H4.28125V19.625C4.30181 20.4815 4.65657 21.296 5.26971 21.8944C5.88285 22.4928 6.70573 22.8277 7.5625 22.8275L11.5 31.175C11.7666 31.7371 12.1864 32.2126 12.7111 32.5469C13.2358 32.8813 13.8441 33.0608 14.4663 33.065H16.12C16.9857 33.058 17.8136 32.7093 18.4232 32.0947C19.0329 31.4801 19.375 30.6494 19.375 29.7837V23.1425L35.335 29.5212C35.7276 29.6774 36.1462 29.7576 36.5688 29.7575C37.2242 29.7469 37.8626 29.5463 38.4062 29.18C38.838 28.8885 39.1941 28.4983 39.4452 28.0419C39.6962 27.5854 39.835 27.0757 39.85 26.555V4.21622C39.8476 3.68207 39.7148 3.15659 39.4632 2.68541C39.2116 2.21422 38.8488 1.81159 38.4062 1.51247ZM16.0938 11.1462V19.625H7.5625V11.1462H16.0938ZM16.0938 29.7837H14.44L11.2113 22.8275H16.0938V29.7837ZM20.3462 20.0187C20.0346 19.8594 19.7096 19.7277 19.375 19.625V10.9625C19.7064 10.8941 20.0313 10.7975 20.3462 10.6737L36.5688 4.21622V26.4762L20.3462 20.0187ZM39.9287 12.065V18.6275C40.799 18.6275 41.6336 18.2818 42.2489 17.6664C42.8643 17.0511 43.21 16.2165 43.21 15.3462C43.21 14.476 42.8643 13.6414 42.2489 13.026C41.6336 12.4107 40.799 12.065 39.9287 12.065Z" fill="#1B63F8" stroke="white"/>
</svg>
