<svg width="24" height="24" viewBox="0 0 24 24" fill="none" xmlns="http://www.w3.org/2000/svg">
<path d="M7.2304 17.4001H4.9354C3.6484 17.4001 3.0004 16.7521 3.0004 15.4651V4.93509C3.0004 3.64809 3.6484 3.00009 4.9354 3.00009H8.8054C10.0924 3.00009 10.7404 3.64809 10.7404 4.93509V6.60009" stroke="#374151" stroke-width="1.5" stroke-miterlimit="10" stroke-linecap="round" stroke-linejoin="round"/>
<path d="M16.8319 8.77807V18.8221C16.8319 20.2711 16.1119 21.0001 14.6629 21.0001H9.40691C7.95791 21.0001 7.22891 20.2711 7.22891 18.8221V8.77807C7.22891 7.32907 7.95791 6.60007 9.40691 6.60007H14.6629C16.1119 6.60007 16.8319 7.32907 16.8319 8.77807Z" stroke="#374151" stroke-width="1.5" stroke-miterlimit="10" stroke-linecap="round" stroke-linejoin="round"/>
<path d="M13.2596 6.60009V4.93509C13.2596 3.64809 13.9076 3.00009 15.1946 3.00009H19.0646C20.3516 3.00009 20.9996 3.64809 20.9996 4.93509V15.4651C20.9996 16.7521 20.3516 17.4001 19.0646 17.4001H16.8326M10.1996 11.1001H13.7996M10.1996 13.8001H13.7996M11.9996 21.0001V18.3001" stroke="#374151" stroke-width="1.5" stroke-miterlimit="10" stroke-linecap="round" stroke-linejoin="round"/>
</svg>
