<svg width="30" height="30" viewBox="0 0 30 30" fill="none" xmlns="http://www.w3.org/2000/svg">
<path d="M7.50456 21.4355V25.5564L9.16231 24.5617L14.373 21.4355H19.541C20.748 21.4355 21.7295 20.454 21.7295 19.2471V10.4933C21.7295 9.2864 20.748 8.30489 19.541 8.30489H6.41034C5.20341 8.30489 4.22189 9.2864 4.22189 10.4933V19.2471C4.22189 20.454 5.20341 21.4355 6.41034 21.4355H7.50456ZM6.41034 10.4933H19.541V19.2471H13.7668L9.69301 21.6916V19.2471H6.41034V10.4933Z" fill="white"/>
<path d="M23.9179 3.92816H10.7872C9.58031 3.92816 8.59879 4.90968 8.59879 6.1166H21.7295C22.9364 6.1166 23.9179 7.09812 23.9179 8.30505V17.0588C25.1249 17.0588 26.1064 16.0773 26.1064 14.8704V6.1166C26.1064 4.90968 25.1249 3.92816 23.9179 3.92816Z" fill="white"/>
</svg>
