<svg width="64" height="64" viewBox="0 0 64 64" fill="none" xmlns="http://www.w3.org/2000/svg">
<rect x="1" y="1" width="62" height="62" rx="15" fill="white"/>
<path d="M26.6665 30.0002L30.7534 20.6589C31.0657 19.945 31.921 19.65 32.607 20.0194L39.9996 24.0001" stroke="#1F2937" stroke-width="2" stroke-linecap="round" stroke-linejoin="round"/>
<path d="M33.333 36.6667V24H43.9997V43.3333H33.333V40.6667" stroke="#1F2937" stroke-width="2" stroke-linecap="round" stroke-linejoin="round"/>
<path d="M18.6665 45.3333C24.6665 45.3333 25.1792 41.7889 26.8866 41.5417C28.9016 41.2499 30.9543 41.0998 32.7354 40.6667C34.9978 40.1165 36.8222 39.4081 37.5747 39.0965C37.8192 38.9953 38.0227 38.819 38.145 38.5843C38.5206 37.8633 39.1934 36.2734 37.9471 36.0729C36.3285 35.8125 31.3202 37.7222 28.7516 37.375C26.1829 37.0278 27.086 35.2917 27.8954 34.7709C30.0932 33.3563 32.6665 34 32.6665 34V28C32.6665 28 22.8888 30.5 19.3332 34.7709" stroke="#1F2937" stroke-width="2" stroke-linecap="round" stroke-linejoin="round"/>
<path d="M37.333 30H43.9997" stroke="#1F2937" stroke-width="2" stroke-linecap="round" stroke-linejoin="round"/>
<rect x="1" y="1" width="62" height="62" rx="15" stroke="#D1D5DB" stroke-width="2"/>
</svg>
