<svg width="48" height="48" viewBox="0 0 48 48" fill="none" xmlns="http://www.w3.org/2000/svg">
<path d="M24 7.5C23.2044 7.5 22.4413 7.81607 21.8787 8.37868C21.3161 8.94129 21 9.70435 21 10.5C21 11.2956 21.3161 12.0587 21.8787 12.6213C22.4413 13.1839 23.2044 13.5 24 13.5C24.7956 13.5 25.5587 13.1839 26.1213 12.6213C26.6839 12.0587 27 11.2956 27 10.5C27 9.70435 26.6839 8.94129 26.1213 8.37868C25.5587 7.81607 24.7956 7.5 24 7.5ZM18 10.5C18 8.9087 18.6321 7.38258 19.7574 6.25736C20.8826 5.13214 22.4087 4.5 24 4.5C25.5913 4.5 27.1174 5.13214 28.2426 6.25736C29.3679 7.38258 30 8.9087 30 10.5C30 12.0913 29.3679 13.6174 28.2426 14.7426C27.1174 15.8679 25.5913 16.5 24 16.5C22.4087 16.5 20.8826 15.8679 19.7574 14.7426C18.6321 13.6174 18 12.0913 18 10.5ZM38.25 9C37.6533 9 37.081 9.23705 36.659 9.65901C36.2371 10.081 36 10.6533 36 11.25C36 11.8467 36.2371 12.419 36.659 12.841C37.081 13.2629 37.6533 13.5 38.25 13.5C38.8467 13.5 39.419 13.2629 39.841 12.841C40.2629 12.419 40.5 11.8467 40.5 11.25C40.5 10.6533 40.2629 10.081 39.841 9.65901C39.419 9.23705 38.8467 9 38.25 9ZM33 11.25C33 10.5606 33.1358 9.87787 33.3996 9.24091C33.6635 8.60395 34.0502 8.0252 34.5377 7.53769C35.0252 7.05018 35.604 6.66347 36.2409 6.39963C36.8779 6.13579 37.5606 6 38.25 6C38.9394 6 39.6221 6.13579 40.2591 6.39963C40.896 6.66347 41.4748 7.05018 41.9623 7.53769C42.4498 8.0252 42.8365 8.60395 43.1004 9.24091C43.3642 9.87787 43.5 10.5606 43.5 11.25C43.5 12.6424 42.9469 13.9777 41.9623 14.9623C40.9777 15.9469 39.6424 16.5 38.25 16.5C36.8576 16.5 35.5223 15.9469 34.5377 14.9623C33.5531 13.9777 33 12.6424 33 11.25ZM7.5 11.25C7.5 10.6533 7.73705 10.081 8.15901 9.65901C8.58097 9.23705 9.15326 9 9.75 9C10.3467 9 10.919 9.23705 11.341 9.65901C11.7629 10.081 12 10.6533 12 11.25C12 11.8467 11.7629 12.419 11.341 12.841C10.919 13.2629 10.3467 13.5 9.75 13.5C9.15326 13.5 8.58097 13.2629 8.15901 12.841C7.73705 12.419 7.5 11.8467 7.5 11.25ZM9.75 6C8.35761 6 7.02226 6.55312 6.03769 7.53769C5.05312 8.52226 4.5 9.85761 4.5 11.25C4.5 12.6424 5.05312 13.9777 6.03769 14.9623C7.02226 15.9469 8.35761 16.5 9.75 16.5C11.1424 16.5 12.4777 15.9469 13.4623 14.9623C14.4469 13.9777 15 12.6424 15 11.25C15 9.85761 14.4469 8.52226 13.4623 7.53769C12.4777 6.55312 11.1424 6 9.75 6ZM12.9765 36.7575C12.2981 37.2047 11.5113 37.4598 10.6996 37.4958C9.88783 37.5319 9.0815 37.3474 8.36615 36.9621C7.65079 36.5769 7.05309 36.0051 6.6365 35.3075C6.2199 34.6099 5.99996 33.8125 6 33V23.25C6 23.0511 6.07902 22.8603 6.21967 22.7197C6.36032 22.579 6.55109 22.5 6.75 22.5H12.7965C12.9333 21.4017 13.3727 20.3631 14.0655 19.5H6.75C5.75544 19.5 4.80161 19.8951 4.09835 20.5983C3.39509 21.3016 3 22.2554 3 23.25V33C2.99961 34.2916 3.33279 35.5614 3.96726 36.6864C4.60172 37.8115 5.51598 38.7536 6.62146 39.4215C7.72694 40.0894 8.98618 40.4606 10.2772 40.4989C11.5682 40.5373 12.8473 40.2416 13.9905 39.6405C13.522 38.7305 13.1808 37.7604 12.9765 36.7575ZM34.0095 39.6405C35.1527 40.2416 36.4318 40.5373 37.7228 40.4989C39.0138 40.4606 40.2731 40.0894 41.3785 39.4215C42.484 38.7536 43.3983 37.8115 44.0327 36.6864C44.6672 35.5614 45.0004 34.2916 45 33V23.25C45 22.2554 44.6049 21.3016 43.9017 20.5983C43.1984 19.8951 42.2446 19.5 41.25 19.5H33.9345C34.6267 20.3634 35.066 21.4019 35.2035 22.5H41.25C41.4489 22.5 41.6397 22.579 41.7803 22.7197C41.921 22.8603 42 23.0511 42 23.25V33C42 33.8125 41.7801 34.6099 41.3635 35.3075C40.9469 36.0051 40.3492 36.5769 39.6339 36.9621C38.9185 37.3474 38.1122 37.5319 37.3004 37.4958C36.4887 37.4598 35.7019 37.2047 35.0235 36.7575C34.8192 37.7604 34.478 38.7305 34.0095 39.6405ZM18.75 19.5C17.7554 19.5 16.8016 19.8951 16.0983 20.5983C15.3951 21.3016 15 22.2554 15 23.25V34.5C15 36.8869 15.9482 39.1761 17.636 40.864C19.3239 42.5518 21.6131 43.5 24 43.5C26.3869 43.5 28.6761 42.5518 30.364 40.864C32.0518 39.1761 33 36.8869 33 34.5V23.25C33 22.2554 32.6049 21.3016 31.9017 20.5983C31.1984 19.8951 30.2446 19.5 29.25 19.5H18.75ZM18 23.25C18 23.0511 18.079 22.8603 18.2197 22.7197C18.3603 22.579 18.5511 22.5 18.75 22.5H29.25C29.4489 22.5 29.6397 22.579 29.7803 22.7197C29.921 22.8603 30 23.0511 30 23.25V34.5C30 36.0913 29.3679 37.6174 28.2426 38.7426C27.1174 39.8679 25.5913 40.5 24 40.5C22.4087 40.5 20.8826 39.8679 19.7574 38.7426C18.6321 37.6174 18 36.0913 18 34.5V23.25Z" fill="#00C6FF"/>
<path d="M24 7.5C23.2044 7.5 22.4413 7.81607 21.8787 8.37868C21.3161 8.94129 21 9.70435 21 10.5C21 11.2956 21.3161 12.0587 21.8787 12.6213C22.4413 13.1839 23.2044 13.5 24 13.5C24.7956 13.5 25.5587 13.1839 26.1213 12.6213C26.6839 12.0587 27 11.2956 27 10.5C27 9.70435 26.6839 8.94129 26.1213 8.37868C25.5587 7.81607 24.7956 7.5 24 7.5ZM18 10.5C18 8.9087 18.6321 7.38258 19.7574 6.25736C20.8826 5.13214 22.4087 4.5 24 4.5C25.5913 4.5 27.1174 5.13214 28.2426 6.25736C29.3679 7.38258 30 8.9087 30 10.5C30 12.0913 29.3679 13.6174 28.2426 14.7426C27.1174 15.8679 25.5913 16.5 24 16.5C22.4087 16.5 20.8826 15.8679 19.7574 14.7426C18.6321 13.6174 18 12.0913 18 10.5ZM38.25 9C37.6533 9 37.081 9.23705 36.659 9.65901C36.2371 10.081 36 10.6533 36 11.25C36 11.8467 36.2371 12.419 36.659 12.841C37.081 13.2629 37.6533 13.5 38.25 13.5C38.8467 13.5 39.419 13.2629 39.841 12.841C40.2629 12.419 40.5 11.8467 40.5 11.25C40.5 10.6533 40.2629 10.081 39.841 9.65901C39.419 9.23705 38.8467 9 38.25 9ZM33 11.25C33 10.5606 33.1358 9.87787 33.3996 9.24091C33.6635 8.60395 34.0502 8.0252 34.5377 7.53769C35.0252 7.05018 35.604 6.66347 36.2409 6.39963C36.8779 6.13579 37.5606 6 38.25 6C38.9394 6 39.6221 6.13579 40.2591 6.39963C40.896 6.66347 41.4748 7.05018 41.9623 7.53769C42.4498 8.0252 42.8365 8.60395 43.1004 9.24091C43.3642 9.87787 43.5 10.5606 43.5 11.25C43.5 12.6424 42.9469 13.9777 41.9623 14.9623C40.9777 15.9469 39.6424 16.5 38.25 16.5C36.8576 16.5 35.5223 15.9469 34.5377 14.9623C33.5531 13.9777 33 12.6424 33 11.25ZM7.5 11.25C7.5 10.6533 7.73705 10.081 8.15901 9.65901C8.58097 9.23705 9.15326 9 9.75 9C10.3467 9 10.919 9.23705 11.341 9.65901C11.7629 10.081 12 10.6533 12 11.25C12 11.8467 11.7629 12.419 11.341 12.841C10.919 13.2629 10.3467 13.5 9.75 13.5C9.15326 13.5 8.58097 13.2629 8.15901 12.841C7.73705 12.419 7.5 11.8467 7.5 11.25ZM9.75 6C8.35761 6 7.02226 6.55312 6.03769 7.53769C5.05312 8.52226 4.5 9.85761 4.5 11.25C4.5 12.6424 5.05312 13.9777 6.03769 14.9623C7.02226 15.9469 8.35761 16.5 9.75 16.5C11.1424 16.5 12.4777 15.9469 13.4623 14.9623C14.4469 13.9777 15 12.6424 15 11.25C15 9.85761 14.4469 8.52226 13.4623 7.53769C12.4777 6.55312 11.1424 6 9.75 6ZM12.9765 36.7575C12.2981 37.2047 11.5113 37.4598 10.6996 37.4958C9.88783 37.5319 9.0815 37.3474 8.36615 36.9621C7.65079 36.5769 7.05309 36.0051 6.6365 35.3075C6.2199 34.6099 5.99996 33.8125 6 33V23.25C6 23.0511 6.07902 22.8603 6.21967 22.7197C6.36032 22.579 6.55109 22.5 6.75 22.5H12.7965C12.9333 21.4017 13.3727 20.3631 14.0655 19.5H6.75C5.75544 19.5 4.80161 19.8951 4.09835 20.5983C3.39509 21.3016 3 22.2554 3 23.25V33C2.99961 34.2916 3.33279 35.5614 3.96726 36.6864C4.60172 37.8115 5.51598 38.7536 6.62146 39.4215C7.72694 40.0894 8.98618 40.4606 10.2772 40.4989C11.5682 40.5373 12.8473 40.2416 13.9905 39.6405C13.522 38.7305 13.1808 37.7604 12.9765 36.7575ZM34.0095 39.6405C35.1527 40.2416 36.4318 40.5373 37.7228 40.4989C39.0138 40.4606 40.2731 40.0894 41.3785 39.4215C42.484 38.7536 43.3983 37.8115 44.0327 36.6864C44.6672 35.5614 45.0004 34.2916 45 33V23.25C45 22.2554 44.6049 21.3016 43.9017 20.5983C43.1984 19.8951 42.2446 19.5 41.25 19.5H33.9345C34.6267 20.3634 35.066 21.4019 35.2035 22.5H41.25C41.4489 22.5 41.6397 22.579 41.7803 22.7197C41.921 22.8603 42 23.0511 42 23.25V33C42 33.8125 41.7801 34.6099 41.3635 35.3075C40.9469 36.0051 40.3492 36.5769 39.6339 36.9621C38.9185 37.3474 38.1122 37.5319 37.3004 37.4958C36.4887 37.4598 35.7019 37.2047 35.0235 36.7575C34.8192 37.7604 34.478 38.7305 34.0095 39.6405ZM18.75 19.5C17.7554 19.5 16.8016 19.8951 16.0983 20.5983C15.3951 21.3016 15 22.2554 15 23.25V34.5C15 36.8869 15.9482 39.1761 17.636 40.864C19.3239 42.5518 21.6131 43.5 24 43.5C26.3869 43.5 28.6761 42.5518 30.364 40.864C32.0518 39.1761 33 36.8869 33 34.5V23.25C33 22.2554 32.6049 21.3016 31.9017 20.5983C31.1984 19.8951 30.2446 19.5 29.25 19.5H18.75ZM18 23.25C18 23.0511 18.079 22.8603 18.2197 22.7197C18.3603 22.579 18.5511 22.5 18.75 22.5H29.25C29.4489 22.5 29.6397 22.579 29.7803 22.7197C29.921 22.8603 30 23.0511 30 23.25V34.5C30 36.0913 29.3679 37.6174 28.2426 38.7426C27.1174 39.8679 25.5913 40.5 24 40.5C22.4087 40.5 20.8826 39.8679 19.7574 38.7426C18.6321 37.6174 18 36.0913 18 34.5V23.25Z" fill="#0072FF"/>
</svg>
