<svg width="64" height="64" viewBox="0 0 64 64" fill="none" xmlns="http://www.w3.org/2000/svg">
<rect x="1" y="1" width="62" height="62" rx="15" fill="white"/>
<path d="M25.0077 34.5886L29.5756 28.0022L33.2731 28.0022C34.2201 28.0022 35 27.266 35 26.3573C35 25.4486 34.2271 24.7124 33.2731 24.7124L29.5756 24.7124L25.0077 18.126C24.952 18.0531 24.8754 18 24.7571 18L23.2042 18C23.1067 18 23.0301 18.0398 22.9744 18.1128C22.9187 18.1857 22.8978 18.2786 22.9327 18.3515L25.1191 24.699L20.8437 24.699L19.1586 22.4306C19.1029 22.3576 19.0263 22.3178 18.9288 22.3178L17.2855 22.3178C17.188 22.3178 17.1114 22.3576 17.0557 22.4306C17.0139 22.4836 17 22.5433 17 22.5964C17 22.6362 17 22.6495 17.0209 22.6893L18.4135 26.3571L17.1184 30.025C17.0766 30.1179 17.0975 30.2107 17.1601 30.2837C17.2158 30.3567 17.2924 30.3965 17.3899 30.3965L18.9428 30.3965C19.0402 30.3965 19.1168 30.3567 19.1725 30.2837L20.8437 28.0153L25.14 28.0153L22.9536 34.3627C22.9327 34.4556 22.9327 34.5485 22.9953 34.6015C23.051 34.6745 23.1276 34.7143 23.2251 34.7143L24.778 34.7143C24.8754 34.6944 24.9729 34.6615 25.0077 34.5886ZM23.636 34.1774L23.636 34.1376L25.8224 27.8168C25.8433 27.724 25.8433 27.6311 25.7807 27.578C25.725 27.5051 25.6484 27.4653 25.5509 27.4653L20.7114 27.4653C20.6139 27.4653 20.5373 27.5051 20.4816 27.578L18.7965 29.8464L17.8077 29.8464L19.0053 26.4504C19.0262 26.3974 19.0262 26.3244 19.0053 26.2647L17.7102 22.8688L18.7964 22.8688L20.4815 25.1371C20.5372 25.2101 20.6138 25.2499 20.7113 25.2499L25.5508 25.2499C25.6483 25.2499 25.7249 25.2101 25.7806 25.1371C25.8363 25.0642 25.8572 24.9713 25.8224 24.8984L23.6359 18.571L24.6247 18.571L29.1926 25.1573C29.2483 25.2303 29.3249 25.2833 29.4432 25.2833L33.28 25.2833C33.9206 25.2833 34.422 25.7808 34.422 26.3711C34.422 26.9615 33.8998 27.4589 33.28 27.4589L29.4294 27.4589C29.3319 27.4589 29.2344 27.512 29.1787 27.585L24.6108 34.1713L23.636 34.1713L23.636 34.1774Z" fill="black" stroke="#374151" stroke-width="1.28571"/>
<path d="M37.2774 44.8743L32.7095 38.2879L29.012 38.2879C28.065 38.2879 27.2852 37.5517 27.2852 36.643C27.2852 35.7343 28.0581 34.9981 29.012 34.9981L32.7095 34.9981L37.2774 28.4117C37.3331 28.3388 37.4097 28.2857 37.5281 28.2857L39.0809 28.2857C39.1784 28.2857 39.255 28.3255 39.3107 28.3985C39.3664 28.4714 39.3873 28.5643 39.3525 28.6372L37.166 34.9847L41.4415 34.9847L43.1266 32.7163C43.1823 32.6433 43.2589 32.6035 43.3564 32.6035L44.9997 32.6035C45.0971 32.6035 45.1737 32.6433 45.2295 32.7163C45.2712 32.7693 45.2852 32.829 45.2852 32.8821C45.2852 32.9219 45.2852 32.9352 45.2643 32.975L43.8716 36.6428L45.1668 40.3107C45.2086 40.4036 45.1877 40.4965 45.125 40.5694C45.0693 40.6424 44.9927 40.6822 44.8952 40.6822L43.3424 40.6822C43.2449 40.6822 43.1683 40.6424 43.1126 40.5694L41.4414 38.301L37.1451 38.301L39.3316 44.6485C39.3525 44.7413 39.3525 44.8342 39.2898 44.8872C39.2341 44.9602 39.1575 45 39.06 45L37.5072 45C37.4097 44.9801 37.3122 44.9472 37.2774 44.8743ZM38.6492 44.4631L38.6492 44.4233L36.4627 38.1025C36.4418 38.0097 36.4418 37.9168 36.5045 37.8637C36.5602 37.7908 36.6368 37.751 36.7343 37.751L41.5738 37.751C41.6713 37.751 41.7479 37.7908 41.8036 37.8637L43.4887 40.1321L44.4775 40.1321L43.2798 36.7362C43.2589 36.6831 43.2589 36.6101 43.2798 36.5504L44.575 33.1545L43.4888 33.1545L41.8036 35.4229C41.7479 35.4958 41.6713 35.5356 41.5738 35.5356L36.7344 35.5356C36.6369 35.5356 36.5603 35.4958 36.5046 35.4229C36.4489 35.3499 36.428 35.257 36.4628 35.1841L38.6493 28.8567L37.6605 28.8567L33.0926 35.443C33.0369 35.516 32.9603 35.569 32.8419 35.569L29.0051 35.569C28.3645 35.569 27.8631 36.0665 27.8631 36.6568C27.8631 37.2472 28.3854 37.7446 29.0051 37.7446L32.8558 37.7446C32.9533 37.7446 33.0508 37.7977 33.1065 37.8707L37.6744 44.457L38.6492 44.457L38.6492 44.4631Z" fill="black" stroke="#374151" stroke-width="1.28571"/>
<rect x="1" y="1" width="62" height="62" rx="15" stroke="#D1D5DB" stroke-width="2"/>
</svg>
