<svg width="64" height="64" viewBox="0 0 64 64" fill="none" xmlns="http://www.w3.org/2000/svg">
<rect x="1" y="1" width="62" height="62" rx="15" fill="white"/>
<path d="M41.3327 32H45.3327M41.3327 32C41.3344 30.7741 41.0938 29.5599 40.6247 28.4272C40.1556 27.2946 39.4673 26.2658 38.5994 25.4M41.3327 32V33.3334M45.3327 32V29.3334M45.3327 32V34.6667M38.5994 25.4C36.91 23.712 34.5767 22.6667 31.9993 22.6667M38.5994 25.4L41.9993 22M31.9993 41.3334V45.3334M31.9993 41.3334C33.2253 41.335 34.4395 41.0944 35.5721 40.6254C36.7048 40.1563 37.7336 39.468 38.5994 38.6L41.9993 42L39.9993 44M31.9993 41.3334C30.7734 41.335 29.5592 41.0944 28.4266 40.6254C27.2939 40.1563 26.2651 39.468 25.3993 38.6M31.9993 45.3334H34.666M31.9993 45.3334H29.3327M25.3993 38.6C23.7113 36.9107 22.666 34.5774 22.666 32M25.3993 38.6L21.9993 42M22.666 32H18.666M22.666 32C22.666 30.1974 23.2927 27.3494 25.2727 25.2734M18.666 32V29.3334M18.666 32V34.6667M25.2727 25.2734L21.9993 22L19.9993 24M25.2727 25.2734L25.3327 25.3334M31.9993 22.6667V18.6667M31.9993 22.6667H30.666M31.9993 18.6667H34.666M31.9993 18.6667H29.3327M41.9993 22L39.9993 20M41.9993 22L43.9993 24M21.9993 42L23.9993 44M21.9993 42L19.9993 40M34.666 34.6667H34.6673M28.5087 28.6667C28.1786 29.0357 27.9971 29.5141 27.9994 30.0093C28.0016 30.5044 28.1875 30.9811 28.521 31.3471C28.8545 31.7131 29.3119 31.9424 29.8046 31.9906C30.2974 32.0388 30.7906 31.9025 31.1887 31.608M19.9993 20L43.9993 44" stroke="#374151" stroke-width="2.66667" stroke-linecap="round" stroke-linejoin="round"/>
<rect x="1" y="1" width="62" height="62" rx="15" stroke="#D1D5DB" stroke-width="2"/>
</svg>
