<svg width="64" height="64" viewBox="0 0 64 64" fill="none" xmlns="http://www.w3.org/2000/svg">
<rect x="1" y="1" width="62" height="62" rx="15" fill="white"/>
<g clip-path="url(#clip0_2_681)">
<path d="M32 41.25C34.188 41.25 36.2865 40.3808 37.8336 38.8336M32 41.25C29.812 41.25 27.7135 40.3808 26.1664 38.8336M32 41.25V44.25M37.8336 38.8336C39.3808 37.2865 40.25 35.188 40.25 33M37.8336 38.8336L39.955 40.955M40.25 33C40.25 30.812 39.3808 28.7135 37.8336 27.1664M40.25 33H43.25M37.8336 27.1664C36.2865 25.6192 34.188 24.75 32 24.75M37.8336 27.1664L39.955 25.045M32 24.75C29.812 24.75 27.7135 25.6192 26.1664 27.1664M32 24.75V21.75M26.1664 27.1664C24.6192 28.7135 23.75 30.812 23.75 33M26.1664 27.1664L24.045 25.045M23.75 33C23.75 35.188 24.6192 37.2865 26.1664 38.8336M23.75 33H20.75M26.1664 38.8336L24.045 40.955M33.75 21.75H30.25M25.282 23.808L24.045 25.045M24.045 25.045L22.808 26.282M20.75 31.25V34.75M22.808 39.718L24.045 40.955M24.045 40.955L25.282 42.192M30.25 44.25H33.75M38.718 42.192L39.955 40.955M39.955 40.955L41.192 39.718M43.25 34.75V31.25M41.192 26.282L39.955 25.045M39.955 25.045L38.718 23.808" stroke="#374151" stroke-width="1.5" stroke-linecap="round" stroke-linejoin="round"/>
<path d="M29.5 32.25C29.9641 32.25 30.4092 32.0656 30.7374 31.7374C31.0656 31.4092 31.25 30.9641 31.25 30.5C31.25 30.0359 31.0656 29.5908 30.7374 29.2626C30.4092 28.9344 29.9641 28.75 29.5 28.75C29.0359 28.75 28.5908 28.9344 28.2626 29.2626C27.9344 29.5908 27.75 30.0359 27.75 30.5C27.75 30.9641 27.9344 31.4092 28.2626 31.7374C28.5908 32.0656 29.0359 32.25 29.5 32.25Z" stroke="#374151" stroke-width="1.5" stroke-linecap="round" stroke-linejoin="round"/>
<path d="M32.75 38C32.6505 38 32.5552 37.9605 32.4848 37.8902C32.4145 37.8198 32.375 37.7245 32.375 37.625C32.375 37.5255 32.4145 37.4302 32.4848 37.3598C32.5552 37.2895 32.6505 37.25 32.75 37.25M32.75 38C32.8495 38 32.9448 37.9605 33.0152 37.8902C33.0855 37.8198 33.125 37.7245 33.125 37.625C33.125 37.5255 33.0855 37.4302 33.0152 37.3598C32.9448 37.2895 32.8495 37.25 32.75 37.25M36.75 33.625C36.6505 33.625 36.5552 33.5855 36.4848 33.5152C36.4145 33.4448 36.375 33.3495 36.375 33.25C36.375 33.1505 36.4145 33.0552 36.4848 32.9848C36.5552 32.9145 36.6505 32.875 36.75 32.875M36.75 33.625C36.8495 33.625 36.9448 33.5855 37.0152 33.5152C37.0855 33.4448 37.125 33.3495 37.125 33.25C37.125 33.1505 37.0855 33.0552 37.0152 32.9848C36.9448 32.9145 36.8495 32.875 36.75 32.875" stroke="#374151" stroke-width="1.5"/>
</g>
<rect x="1" y="1" width="62" height="62" rx="15" stroke="#D1D5DB" stroke-width="2"/>
<defs>
<clipPath id="clip0_2_681">
<rect width="24" height="24" fill="white" transform="translate(20 21)"/>
</clipPath>
</defs>
</svg>
