<svg width="64" height="64" viewBox="0 0 64 64" fill="none" xmlns="http://www.w3.org/2000/svg">
<rect x="1" y="1" width="62" height="62" rx="15" fill="white"/>
<path d="M37.334 36H28.0007V33.3334H37.334V36ZM41.334 30.6667H28.0007V28H41.334V30.6667ZM41.334 25.3334H28.0007V22.6667H41.334V25.3334ZM20.0007 22.6667V44H41.334V46.6667H20.0007C19.2934 46.6667 18.6151 46.3858 18.115 45.8857C17.6149 45.3856 17.334 44.7073 17.334 44V22.6667H20.0007ZM44.0007 17.3334C44.7079 17.3334 45.3862 17.6143 45.8863 18.1144C46.3864 18.6145 46.6673 19.2928 46.6673 20V38.6667C46.6673 40.1467 45.4807 41.3334 44.0007 41.3334H25.334C24.6267 41.3334 23.9485 41.0524 23.4484 40.5523C22.9483 40.0522 22.6673 39.374 22.6673 38.6667V20C22.6673 18.52 23.854 17.3334 25.334 17.3334H44.0007ZM25.334 20V38.6667H44.0007V20H25.334Z" fill="#374151"/>
<rect x="1" y="1" width="62" height="62" rx="15" stroke="#D1D5DB" stroke-width="2"/>
</svg>
