<svg width="64" height="64" viewBox="0 0 64 64" fill="none" xmlns="http://www.w3.org/2000/svg">
<rect x="1" y="1" width="62" height="62" rx="15" fill="white"/>
<g clip-path="url(#clip0_3568_51058)">
<path d="M31.064 18.9267C31.5902 18.7298 32.1651 18.7041 32.7067 18.8533L32.936 18.9267L42.2693 22.4267C42.7426 22.6041 43.1556 22.9124 43.4604 23.3156C43.7652 23.7188 43.9491 24.2003 43.9907 24.704L44 24.924V32.0747C43.9999 34.2352 43.4166 36.3557 42.3115 38.2122C41.2064 40.0688 39.6205 41.5926 37.7213 42.6227L37.3667 42.808L32.8947 45.044C32.6484 45.1669 32.3795 45.2377 32.1046 45.252C31.8298 45.2662 31.5549 45.2235 31.2973 45.1267L31.1053 45.044L26.6333 42.808C24.7008 41.8417 23.065 40.3716 21.8987 38.5528C20.7323 36.734 20.0786 34.6341 20.0067 32.4747L20 32.0747V24.924C20 24.4188 20.1435 23.9241 20.4138 23.4973C20.6841 23.0705 21.07 22.7293 21.5267 22.5133L21.7307 22.4267L31.064 18.9267ZM32 21.424L22.6667 24.924V32.0747C22.6667 33.748 23.1166 35.3906 23.9693 36.8304C24.8219 38.2702 26.046 39.4543 27.5133 40.2587L27.8267 40.4227L32 42.5093L36.1733 40.4227C37.6703 39.6743 38.9385 38.5372 39.8452 37.1305C40.7518 35.7237 41.2635 34.0991 41.3267 32.4267L41.3333 32.0747V24.924L32 21.424ZM36.5773 27.5053C36.8173 27.2662 37.1392 27.1274 37.4778 27.117C37.8164 27.1067 38.1463 27.2256 38.4004 27.4497C38.6545 27.6737 38.8137 27.9861 38.8459 28.3233C38.878 28.6605 38.7806 28.9973 38.5733 29.2653L38.4627 29.3907L31.484 36.3707C31.2298 36.6248 30.8911 36.7768 30.5322 36.7977C30.1734 36.8186 29.8193 36.7069 29.5373 36.484L29.4093 36.3707L26.204 33.1653C25.9623 32.9259 25.8213 32.6032 25.8098 32.2633C25.7982 31.9233 25.9171 31.5918 26.142 31.3366C26.3668 31.0813 26.6808 30.9217 27.0195 30.8904C27.3582 30.8591 27.6961 30.9584 27.964 31.168L28.0893 31.2787L30.4467 33.636L36.5773 27.5053Z" fill="#374151"/>
</g>
<rect x="1" y="1" width="62" height="62" rx="15" stroke="#D1D5DB" stroke-width="2"/>
<defs>
<clipPath id="clip0_3568_51058">
<rect width="32" height="32" fill="white" transform="translate(16 16)"/>
</clipPath>
</defs>
</svg>
