<svg width="64" height="64" viewBox="0 0 64 64" fill="none" xmlns="http://www.w3.org/2000/svg">
<rect x="1" y="1" width="62" height="62" rx="15" fill="white"/>
<g clip-path="url(#clip0_1_4)">
<path fill-rule="evenodd" clip-rule="evenodd" d="M31.5 34.8V46C28.1358 45.9979 24.8935 44.6932 22.4084 42.3415C19.9233 39.9898 18.3745 36.7606 18.0653 33.2865C17.7561 29.8124 18.709 26.3438 20.7371 23.5602C22.7652 20.7766 25.7225 18.8786 29.0295 18.238L31.5 20.8H38.25C40.0379 20.8 41.7527 21.5356 43.0182 22.8453C44.2837 24.155 44.9964 25.9319 45 27.786V40.414C44.9964 41.8968 44.4259 43.3176 43.4136 44.3647C42.4013 45.4119 41.0298 46 39.6 46V43.2C40.3161 43.2 41.0029 42.905 41.5092 42.3799C42.0156 41.8548 42.3 41.1426 42.3 40.4C42.3 39.6574 42.0156 38.9452 41.5092 38.4201C41.0029 37.895 40.3161 37.6 39.6 37.6H34.2L31.5 34.8ZM38.925 30.6C39.4621 30.6 39.9771 30.3787 40.3569 29.9849C40.7367 29.5911 40.95 29.057 40.95 28.5C40.95 27.943 40.7367 27.4089 40.3569 27.0151C39.9771 26.6212 39.4621 26.4 38.925 26.4C38.388 26.4 37.8729 26.6212 37.4931 27.0151C37.1134 27.4089 36.9 27.943 36.9 28.5C36.9 29.057 37.1134 29.5911 37.4931 29.9849C37.8729 30.3787 38.388 30.6 38.925 30.6Z" fill="#374151"/>
</g>
<rect x="1" y="1" width="62" height="62" rx="15" stroke="#D1D5DB" stroke-width="2"/>
<defs>
<clipPath id="clip0_1_4">
<rect width="27" height="28" fill="white" transform="translate(18 18)"/>
</clipPath>
</defs>
</svg>
