<svg width="64" height="64" viewBox="0 0 64 64" fill="none" xmlns="http://www.w3.org/2000/svg">
<rect x="1" y="1" width="62" height="62" rx="15" fill="white"/>
<path d="M47.3049 19.9999L46.99 19.4704C46.1174 18.0137 44.5157 17.1034 42.809 17.1034H37.3246C36.4686 16.4138 35.3861 16 34.2095 16H29.791C28.6089 16 27.5265 16.4138 26.6758 17.1034H21.1917C19.4849 17.1034 17.8832 18.0084 17.0107 19.4704L16.6958 19.9999C16.2374 20.7612 16 21.6274 16 22.5048C16 23.8067 16.5082 25.0262 17.4249 25.9476C17.955 26.4772 18.3086 27.1392 18.4577 27.8732L18.6123 28.6345C19.0653 30.9076 21.0755 32.5517 23.3952 32.5517H26.1568C26.2894 32.6731 26.4329 32.7945 26.5821 32.8992C26.4882 33.8482 26.1733 35.1226 25.6762 35.3708C25.4664 35.4758 25.3448 35.7073 25.3778 35.9447C25.4109 36.1819 25.5933 36.3696 25.8251 36.4083C25.8692 36.4193 26.2946 36.491 26.8799 36.491C27.5649 36.491 28.4651 36.3807 29.2383 35.9504V41.1035C29.2383 41.5173 29.0504 41.9089 28.7301 42.174C28.4042 42.4387 27.9899 42.5437 27.5649 42.4552C26.9351 42.3284 26.4768 41.738 26.4768 41.0484V39.7243C26.4768 39.1174 25.9797 38.6209 25.3722 38.6209H22.0583C21.4508 38.6209 20.9537 39.1174 20.9537 39.7243V41.1036C20.9537 43.04 21.7767 44.8993 23.2127 46.2015C24.4996 47.3712 26.1234 48 27.8467 48C28.0676 48 28.294 47.9889 28.5206 47.967C32.0167 47.636 34.7617 44.5409 34.7617 40.9164V35.9456C35.5349 36.3758 36.4351 36.4862 37.1201 36.4862C37.7054 36.4862 38.1308 36.4145 38.1749 36.4034C38.4069 36.3593 38.5891 36.1717 38.6222 35.9399C38.6552 35.7027 38.5339 35.4764 38.3238 35.366C37.8267 35.1177 37.5119 33.8434 37.4179 32.8944C37.5671 32.7895 37.7106 32.6737 37.8432 32.5469H40.6048C42.9245 32.5469 44.935 30.8971 45.3877 28.6297L45.5423 27.8684C45.6858 27.1401 46.0448 26.4726 46.5751 25.9428C47.4975 25.0214 48 23.8022 48 22.5C48 21.6173 47.7569 20.751 47.3042 19.9951L47.3049 19.9999ZM34.2098 17.1034C35.7563 17.1034 37.0929 18.0191 37.7116 19.3379C37.4078 19.4704 37.0488 19.542 36.6346 19.542C36.3473 19.542 36.1099 19.7573 36.0823 20.044C36.0823 20.0938 35.9496 21.2356 34.3647 21.2356C34.2044 21.2356 34.0498 21.3073 33.945 21.4287C33.84 21.5501 33.7959 21.7156 33.8181 21.8755C33.8291 21.9636 33.9285 22.7417 33.2159 23.0175C32.6525 23.2382 32.2659 23.5471 31.9954 23.8451C31.7304 23.5471 31.3381 23.2382 30.7749 23.0175C30.0623 22.7417 30.162 21.9639 30.1728 21.8811C30.2004 21.721 30.1563 21.5555 30.0512 21.4344C29.9462 21.3075 29.7916 21.2358 29.6316 21.2358C28.0962 21.2358 27.9248 20.16 27.914 20.0443C27.8864 19.763 27.6489 19.5423 27.3617 19.5423C26.9529 19.5423 26.5939 19.4706 26.2847 19.3381C26.9033 18.0194 28.2343 17.1036 29.7865 17.1036H34.205L34.2098 17.1034ZM19.6951 28.4138L19.5405 27.6525C19.3526 26.7092 18.8943 25.8484 18.2095 25.1644C17.4969 24.4526 17.1049 23.5093 17.1049 22.5051C17.1049 21.8265 17.2928 21.1533 17.6461 20.563L17.961 20.0334C18.6349 18.9078 19.8718 18.2074 21.192 18.2074H25.6603C25.1302 18.9963 24.8207 19.9452 24.8207 20.9659V29.5121C24.8207 30.2128 24.9975 30.8692 25.3067 31.4486H23.3958C21.6008 31.4486 20.0433 30.1742 19.6954 28.4141L19.6951 28.4138ZM27.0739 35.3818C27.3942 34.7639 27.5545 34.008 27.6374 33.4343C28.057 33.5777 28.5045 33.655 28.9683 33.655C29.1175 33.655 29.2391 33.7764 29.2391 33.9254V34.5434C28.7144 35.1833 27.7976 35.3599 27.0739 35.3821L27.0739 35.3818ZM33.6575 40.9155C33.6575 43.9775 31.3543 46.5927 28.4216 46.8686C26.7647 47.023 25.1852 46.4989 23.959 45.3844C22.7494 44.2864 22.059 42.725 22.059 41.0975V39.7182H25.3728V41.0423C25.3728 42.2507 26.2013 43.2933 27.3389 43.5251C28.0845 43.6795 28.8467 43.4921 29.4266 43.0174C30.0065 42.5431 30.3433 41.8423 30.3433 41.0919V33.9139C30.3433 33.158 29.7247 32.54 28.968 32.54C27.2888 32.54 25.9248 31.1773 25.9248 29.5002L25.9251 20.9653C25.9251 20.7722 25.9416 20.5846 25.9692 20.3971C26.2619 20.5075 26.5767 20.5848 26.9247 20.6178C27.1567 21.291 27.7807 22.1129 29.0787 22.2951C29.145 22.9185 29.4653 23.6855 30.382 24.0384C31.2546 24.3749 31.4644 25.0093 31.4701 25.0315C31.5364 25.2687 31.7517 25.4342 32.0002 25.4342C32.2487 25.4342 32.4642 25.2687 32.5303 25.0315C32.5303 25.0261 32.7347 24.3806 33.6184 24.0384C34.5297 23.6852 34.8557 22.9185 34.9217 22.2951C36.2196 22.1131 36.8437 21.291 37.0757 20.6178C37.4182 20.5848 37.7385 20.5075 38.0312 20.3971C38.0588 20.5848 38.0753 20.7722 38.0753 20.9653V29.5115C38.0753 31.1889 36.7111 32.5514 35.0322 32.5514C34.2755 32.5514 33.6569 33.1694 33.6569 33.9253V40.9153L33.6575 40.9155ZM36.9272 35.3818C36.2038 35.3597 35.2868 35.1833 34.7621 34.5432V33.9252C34.7621 33.7762 34.8837 33.6547 35.0328 33.6547C35.4969 33.6547 35.9442 33.572 36.3638 33.4341C36.4466 34.0079 36.6069 34.7636 36.9272 35.3816L36.9272 35.3818ZM45.7919 25.1641C45.107 25.8483 44.6486 26.7089 44.461 27.6522L44.3064 28.4135C43.9585 30.1679 42.4009 31.448 40.6059 31.448H38.695C39.0042 30.8687 39.181 30.212 39.181 29.5115L39.1808 20.9653C39.1808 19.9446 38.8716 18.9957 38.3412 18.2068H42.8095C44.1296 18.2068 45.3666 18.9075 46.0405 20.0328L46.3554 20.5624C46.709 21.1528 46.8966 21.8202 46.8966 22.5045C46.8966 23.5087 46.5046 24.452 45.792 25.1638L45.7919 25.1641ZM29.8299 26.1517V27.1503C29.8299 27.4537 29.5813 27.702 29.2776 27.702C28.9738 27.702 28.7253 27.4537 28.7253 27.1503V26.1517C28.7253 25.8483 28.9738 25.6 29.2776 25.6C29.5813 25.6 29.8299 25.8483 29.8299 26.1517ZM34.1655 27.1503V26.1517C34.1655 25.8483 34.4141 25.6 34.7178 25.6C35.0216 25.6 35.2702 25.8483 35.2702 26.1517V27.1503C35.2702 27.4537 35.0216 27.702 34.7178 27.702C34.4141 27.702 34.1655 27.4537 34.1655 27.1503ZM31.995 21.5779C32.8069 21.5779 33.4697 20.8221 33.4697 19.8898C33.4697 18.9573 32.8069 18.2017 31.995 18.2017C31.1831 18.2017 30.5203 18.9576 30.5203 19.8898C30.5203 20.8223 31.1831 21.5779 31.995 21.5779ZM31.995 19.3048C32.1718 19.3048 32.3651 19.5531 32.3651 19.8895C32.3651 20.226 32.1718 20.4743 31.995 20.4743C31.8182 20.4743 31.6249 20.226 31.6249 19.8895C31.6249 19.5531 31.8182 19.3048 31.995 19.3048Z" fill="#374151" stroke="#374151" stroke-width="0.8"/>
<rect x="1" y="1" width="62" height="62" rx="15" stroke="#D1D5DB" stroke-width="2"/>
</svg>
