<svg width="64" height="64" viewBox="0 0 64 64" fill="none" xmlns="http://www.w3.org/2000/svg">
<rect x="1" y="1" width="62" height="62" rx="15" fill="white"/>
<path d="M39.4664 38.3999H42.6664V35.1999M39.4664 25.5999H42.6664V28.7999M24.5331 25.5999H21.3331V28.7999M21.3331 35.1999V38.3999H24.5331M31.9997 36.2666C30.8681 36.2666 29.7829 35.8171 28.9828 35.0169C28.1826 34.2168 27.7331 33.1315 27.7331 31.9999C27.7331 30.8683 28.1826 29.7831 28.9828 28.9829C29.7829 28.1828 30.8681 27.7333 31.9997 27.7333C33.1313 27.7333 34.2166 28.1828 35.0167 28.9829C35.8169 29.7831 36.2664 30.8683 36.2664 31.9999C36.2664 33.1315 35.8169 34.2168 35.0167 35.0169C34.2166 35.8171 33.1313 36.2666 31.9997 36.2666ZM19.1997 21.3333H44.7997C45.3655 21.3333 45.9082 21.558 46.3082 21.9581C46.7083 22.3582 46.9331 22.9008 46.9331 23.4666V40.5333C46.9331 41.099 46.7083 41.6417 46.3082 42.0417C45.9082 42.4418 45.3655 42.6666 44.7997 42.6666H19.1997C18.6339 42.6666 18.0913 42.4418 17.6912 42.0417C17.2912 41.6417 17.0664 41.099 17.0664 40.5333V23.4666C17.0664 22.9008 17.2912 22.3582 17.6912 21.9581C18.0913 21.558 18.6339 21.3333 19.1997 21.3333Z" stroke="#374151" stroke-width="1.5"/>
<rect x="1" y="1" width="62" height="62" rx="15" stroke="#D1D5DB" stroke-width="2"/>
</svg>
