<svg width="64" height="64" viewBox="0 0 64 64" fill="none" xmlns="http://www.w3.org/2000/svg">
<rect x="1" y="1" width="62" height="62" rx="15" fill="white"/>
<path d="M39.4664 38.4H42.6664V35.2M39.4664 25.6H42.6664V28.8M24.5331 25.6H21.3331V28.8M21.3331 35.2V38.4H24.5331M31.9997 36.2667C30.8681 36.2667 29.7829 35.8172 28.9828 35.017C28.1826 34.2169 27.7331 33.1316 27.7331 32C27.7331 30.8685 28.1826 29.7832 28.9828 28.9831C29.7829 28.1829 30.8681 27.7334 31.9997 27.7334C33.1313 27.7334 34.2166 28.1829 35.0167 28.9831C35.8169 29.7832 36.2664 30.8685 36.2664 32C36.2664 33.1316 35.8169 34.2169 35.0167 35.017C34.2166 35.8172 33.1313 36.2667 31.9997 36.2667ZM19.1997 21.3334H44.7997C45.3655 21.3334 45.9082 21.5581 46.3082 21.9582C46.7083 22.3583 46.9331 22.9009 46.9331 23.4667V40.5334C46.9331 41.0992 46.7083 41.6418 46.3082 42.0419C45.9082 42.4419 45.3655 42.6667 44.7997 42.6667H19.1997C18.6339 42.6667 18.0913 42.4419 17.6912 42.0419C17.2912 41.6418 17.0664 41.0992 17.0664 40.5334V23.4667C17.0664 22.9009 17.2912 22.3583 17.6912 21.9582C18.0913 21.5581 18.6339 21.3334 19.1997 21.3334Z" stroke="#374151" stroke-width="2.13333"/>
<rect x="1" y="1" width="62" height="62" rx="15" stroke="#D1D5DB" stroke-width="2"/>
</svg>
