<svg width="64" height="64" viewBox="0 0 64 64" fill="none" xmlns="http://www.w3.org/2000/svg">
<rect x="1" y="1" width="62" height="62" rx="15" fill="white"/>
<path d="M41.3332 21.3333H38.6665V20C38.6665 19.6463 38.526 19.3072 38.276 19.0572C38.0259 18.8071 37.6868 18.6666 37.3332 18.6666C36.9795 18.6666 36.6404 18.8071 36.3904 19.0572C36.1403 19.3072 35.9998 19.6463 35.9998 20V21.3333H27.9998V20C27.9998 19.6463 27.8594 19.3072 27.6093 19.0572C27.3593 18.8071 27.0201 18.6666 26.6665 18.6666C26.3129 18.6666 25.9737 18.8071 25.7237 19.0572C25.4736 19.3072 25.3332 19.6463 25.3332 20V21.3333H22.6665C21.6056 21.3333 20.5882 21.7547 19.8381 22.5049C19.0879 23.255 18.6665 24.2724 18.6665 25.3333V41.3333C18.6665 42.3942 19.0879 43.4116 19.8381 44.1617C20.5882 44.9119 21.6056 45.3333 22.6665 45.3333H41.3332C42.394 45.3333 43.4115 44.9119 44.1616 44.1617C44.9117 43.4116 45.3332 42.3942 45.3332 41.3333V25.3333C45.3332 24.2724 44.9117 23.255 44.1616 22.5049C43.4115 21.7547 42.394 21.3333 41.3332 21.3333ZM42.6665 41.3333C42.6665 41.6869 42.526 42.0261 42.276 42.2761C42.0259 42.5261 41.6868 42.6666 41.3332 42.6666H22.6665C22.3129 42.6666 21.9737 42.5261 21.7237 42.2761C21.4736 42.0261 21.3332 41.6869 21.3332 41.3333V32H42.6665V41.3333ZM42.6665 29.3333H21.3332V25.3333C21.3332 24.9797 21.4736 24.6405 21.7237 24.3905C21.9737 24.1404 22.3129 24 22.6665 24H25.3332V25.3333C25.3332 25.6869 25.4736 26.0261 25.7237 26.2761C25.9737 26.5261 26.3129 26.6666 26.6665 26.6666C27.0201 26.6666 27.3593 26.5261 27.6093 26.2761C27.8594 26.0261 27.9998 25.6869 27.9998 25.3333V24H35.9998V25.3333C35.9998 25.6869 36.1403 26.0261 36.3904 26.2761C36.6404 26.5261 36.9795 26.6666 37.3332 26.6666C37.6868 26.6666 38.0259 26.5261 38.276 26.2761C38.526 26.0261 38.6665 25.6869 38.6665 25.3333V24H41.3332C41.6868 24 42.0259 24.1404 42.276 24.3905C42.526 24.6405 42.6665 24.9797 42.6665 25.3333V29.3333Z" fill="#374151"/>
<rect x="1" y="1" width="62" height="62" rx="15" stroke="#D1D5DB" stroke-width="2"/>
</svg>
