<svg width="64" height="64" viewBox="0 0 64 64" fill="none" xmlns="http://www.w3.org/2000/svg">
<rect x="1" y="1" width="62" height="62" rx="15" fill="white"/>
<path d="M26.1765 13V21.1429H28.7647V22.5855C23.4562 23.1786 21.1618 27.2907 21.1618 27.2907L21 27.5893V51H39.1176V27.5893L38.9559 27.2921C38.9559 27.2921 36.6614 23.1786 31.3529 22.5841V21.1429H33.9412V13H26.1765ZM41.7059 13C40.9941 13 40.4118 13.6107 40.4118 14.3571C40.4118 15.1036 40.9941 15.7143 41.7059 15.7143C42.4176 15.7143 43 15.1036 43 14.3571C43 13.6107 42.4176 13 41.7059 13ZM28.7647 15.7143H31.3529V18.4286H28.7647V15.7143ZM37.8235 15.7143C37.1118 15.7143 36.5294 16.325 36.5294 17.0714C36.5294 17.8179 37.1118 18.4286 37.8235 18.4286C38.5353 18.4286 39.1176 17.8179 39.1176 17.0714C39.1176 16.325 38.5353 15.7143 37.8235 15.7143ZM41.7059 18.4286C40.9941 18.4286 40.4118 19.0393 40.4118 19.7857C40.4118 20.5321 40.9941 21.1429 41.7059 21.1429C42.4176 21.1429 43 20.5321 43 19.7857C43 19.0393 42.4176 18.4286 41.7059 18.4286ZM30.0588 25.2143C32.308 25.2143 33.8247 25.8657 34.8315 26.5714H25.2874C26.2929 25.8657 27.8096 25.2143 30.0588 25.2143ZM23.5882 29.2857H36.5294V48.2857H23.5882V29.2857ZM30.0588 34.7143C27.93 34.7143 26.1765 36.5532 26.1765 38.7857C26.1765 41.0182 27.93 42.8571 30.0588 42.8571C32.1876 42.8571 33.9412 41.0182 33.9412 38.7857C33.9412 36.5532 32.1876 34.7143 30.0588 34.7143ZM30.0588 37.4286C30.7874 37.4286 31.3529 38.023 31.3529 38.7857C31.3529 39.5498 30.7861 40.1429 30.0588 40.1429C29.3302 40.1429 28.7647 39.5484 28.7647 38.7857C28.7647 38.0216 29.3315 37.4286 30.0588 37.4286Z" fill="#374151"/>
<rect x="1" y="1" width="62" height="62" rx="15" stroke="#D1D5DB" stroke-width="2"/>
</svg>
