<svg width="64" height="64" viewBox="0 0 64 64" fill="none" xmlns="http://www.w3.org/2000/svg">
<rect x="1" y="1" width="62" height="62" rx="15" fill="white"/>
<path d="M40.0007 24H37.334C37.334 21.0533 34.9473 18.6667 32.0007 18.6667C29.054 18.6667 26.6673 21.0533 26.6673 24H24.0007C22.534 24 21.334 25.2 21.334 26.6667V42.6667C21.334 44.1333 22.534 45.3333 24.0007 45.3333H40.0007C41.4673 45.3333 42.6673 44.1333 42.6673 42.6667V26.6667C42.6673 25.2 41.4673 24 40.0007 24ZM32.0007 21.3333C33.4673 21.3333 34.6673 22.5333 34.6673 24H29.334C29.334 22.5333 30.534 21.3333 32.0007 21.3333ZM40.0007 42.6667H24.0007V26.6667H26.6673V29.3333C26.6673 30.0667 27.2673 30.6667 28.0007 30.6667C28.734 30.6667 29.334 30.0667 29.334 29.3333V26.6667H34.6673V29.3333C34.6673 30.0667 35.2673 30.6667 36.0007 30.6667C36.734 30.6667 37.334 30.0667 37.334 29.3333V26.6667H40.0007V42.6667Z" fill="#374151"/>
<rect x="1" y="1" width="62" height="62" rx="15" stroke="#D1D5DB" stroke-width="2"/>
</svg>
