<svg width="64" height="64" viewBox="0 0 64 64" fill="none" xmlns="http://www.w3.org/2000/svg">
<rect x="1" y="1" width="62" height="62" rx="15" fill="white"/>
<path d="M29.3335 26.6667V34.6667L35.6002 38.5334L36.6668 36.9334L31.3335 33.7334V26.6667H29.3335Z" fill="#374151"/>
<path d="M39.8932 31.9999C40.0942 33.3252 40.0055 34.6782 39.6334 35.966C39.2613 37.2537 38.6145 38.4454 37.7376 39.4592C36.8607 40.473 35.7745 41.2846 34.5538 41.8383C33.3331 42.392 32.0069 42.6746 30.6665 42.6666C25.4665 42.6666 21.3332 38.5333 21.3332 33.3333C21.3332 28.1333 25.4665 23.9999 30.6665 23.9999C31.5998 23.9999 32.4932 24.1333 33.3332 24.3866V21.6399C32.4798 21.4399 31.5865 21.3333 30.6665 21.3333C23.9998 21.3333 18.6665 26.6666 18.6665 33.3333C18.6665 39.9999 23.9998 45.3333 30.6665 45.3333C32.3567 45.3403 34.0293 44.9887 35.5736 44.3016C37.1179 43.6146 38.499 42.6078 39.6255 41.3477C40.752 40.0876 41.5985 38.6028 42.1089 36.9915C42.6193 35.3801 42.7821 33.6788 42.5865 31.9999H39.8932Z" fill="#374151"/>
<path d="M42.6667 22.6667V18.6667H40V22.6667H36V25.3334H40V29.3334H42.6667V25.3334H46.6667V22.6667H42.6667Z" fill="#374151"/>
<rect x="1" y="1" width="62" height="62" rx="15" stroke="#D1D5DB" stroke-width="2"/>
</svg>
