<svg width="64" height="64" viewBox="0 0 64 64" fill="none" xmlns="http://www.w3.org/2000/svg">
<rect x="1" y="1" width="62" height="62" rx="15" fill="white"/>
<path d="M48.4553 18.7622L48.4966 18.7743C48.8953 18.907 49.1016 19.2931 48.9503 19.643L48.4141 20.8977C48.2628 21.2476 47.8228 21.4407 47.4241 21.3079C47.2507 21.2597 47.1007 21.162 46.9978 21.0304C46.9353 20.9537 46.8613 20.8847 46.7778 20.8253C46.6678 20.7529 46.5028 20.7529 46.4066 20.8495C46.3103 20.946 46.3103 21.0666 46.3928 21.1632C46.4478 21.2355 46.5303 21.2959 46.6128 21.3562L46.6678 21.3924C46.7916 21.4768 46.8878 21.5854 46.9566 21.7061L46.9703 21.7423C47.1491 22.0801 46.9703 22.4782 46.5853 22.6351L45.1828 23.1901C45.0639 23.2381 44.9329 23.2582 44.8025 23.2485C44.6721 23.2388 44.5468 23.1995 44.4389 23.1346C44.2015 24.3469 43.5834 25.4771 42.6542 26.3982L45.0137 28.4685C45.4057 28.8124 45.7167 29.2206 45.9288 29.6699C46.141 30.1193 46.2502 30.6009 46.2502 31.0872C46.2502 31.5736 46.141 32.0552 45.9288 32.5045C45.7167 32.9539 45.4057 33.3621 45.0137 33.706L28.8189 47.9161C28.0273 48.6101 26.9541 49 25.8351 49C24.7161 49 23.6429 48.6101 22.8513 47.9161L17.2358 42.99C16.4445 42.2956 16 41.3538 16 40.3719C16 39.3899 16.4445 38.4482 17.2358 37.7538L33.4306 23.5412C34.222 22.8469 35.2953 22.4568 36.4144 22.4568C37.5335 22.4568 38.6068 22.8469 39.3982 23.5412L41.6807 25.5428C42.3185 24.8924 42.7709 24.1182 43.0007 23.2842C42.849 23.3184 42.689 23.3104 42.5428 23.2613L41.099 22.7907C41.0041 22.76 40.9171 22.7131 40.8429 22.6527C40.7686 22.5924 40.7087 22.5198 40.6666 22.4391C40.6244 22.3584 40.6008 22.2711 40.5972 22.1824C40.5935 22.0937 40.6099 22.0052 40.6453 21.922C40.7003 21.7773 40.8103 21.6566 40.9615 21.5601C41.044 21.5118 41.1128 21.4515 41.1815 21.3791C41.264 21.2826 41.264 21.1378 41.154 21.0534C41.1062 21.0138 41.0436 20.9908 40.9779 20.9886C40.9121 20.9864 40.8477 21.0051 40.7965 21.0413C40.714 21.0896 40.6453 21.162 40.5765 21.2343L40.5353 21.2826C40.439 21.3912 40.3153 21.4756 40.1778 21.536L40.1365 21.548C39.9505 21.6215 39.7389 21.6271 39.5482 21.5638C39.3574 21.5004 39.2031 21.3733 39.119 21.2102L38.4865 19.9796C38.4029 19.8164 38.3964 19.6307 38.4686 19.4633C38.5408 19.2959 38.6857 19.1605 38.8715 19.0868C39.0365 19.0264 39.2153 19.0023 39.394 19.0264C39.504 19.0506 39.6003 19.0506 39.7103 19.0385C39.8615 19.0264 39.9578 18.9179 39.9578 18.7972C39.9578 18.6766 39.8615 18.58 39.724 18.568C39.6191 18.5559 39.5127 18.5559 39.4078 18.568L39.3528 18.58C39.2015 18.6042 39.0365 18.5921 38.899 18.5438L38.8578 18.5318C38.7629 18.501 38.6758 18.4541 38.6016 18.3938C38.5274 18.3334 38.4675 18.2608 38.4253 18.1801C38.3832 18.0994 38.3596 18.0122 38.3559 17.9235C38.3523 17.8347 38.3686 17.7463 38.404 17.6631L38.9403 16.3963C39.0915 16.0464 39.5315 15.8654 39.9303 15.9981C40.0953 16.0464 40.2328 16.1429 40.3428 16.2756C40.4115 16.3601 40.4803 16.4204 40.5628 16.4807C40.6728 16.5531 40.8378 16.5531 40.934 16.4566C41.0303 16.3601 41.0303 16.2394 40.9478 16.1429C40.8851 16.0698 40.8111 16.0048 40.7278 15.9499L40.6728 15.9137C40.551 15.8294 40.4523 15.7222 40.384 15.6L40.3703 15.5638C40.2866 15.4006 40.2802 15.2149 40.3523 15.0475C40.4245 14.8801 40.5694 14.7447 40.7553 14.671L42.1578 14.116C42.5428 13.9591 42.9965 14.116 43.1753 14.4538C43.244 14.5986 43.2715 14.7554 43.244 14.9123C43.2165 15.0088 43.2165 15.0932 43.2303 15.1898C43.244 15.3225 43.3678 15.4069 43.5053 15.4069C43.6428 15.4069 43.7528 15.3225 43.7665 15.2018C43.7803 15.1053 43.7803 15.0209 43.7665 14.9243L43.7528 14.8761C43.7248 14.7426 43.739 14.6048 43.794 14.4779L43.8078 14.4417C43.959 14.0919 44.399 13.9109 44.7978 14.0436L46.2416 14.5141C46.6403 14.6468 46.8466 15.0329 46.6953 15.3828C46.6403 15.5276 46.5303 15.6482 46.3791 15.7448C46.2966 15.793 46.2278 15.8533 46.1591 15.9257C46.0766 16.0223 46.0766 16.167 46.1866 16.2515C46.2966 16.3359 46.4341 16.3359 46.5441 16.2636C46.6266 16.2153 46.6953 16.1429 46.7641 16.0705L46.8053 16.0223C46.9016 15.9137 47.0253 15.8292 47.1628 15.7689L47.2041 15.7568C47.5891 15.6 48.0428 15.7568 48.2216 16.0946L48.8541 17.3132C49.0328 17.651 48.8678 18.0612 48.4828 18.2181C48.3178 18.2784 48.1391 18.3025 47.9603 18.2784C47.8568 18.2564 47.7494 18.2523 47.6441 18.2663C47.4928 18.2784 47.3966 18.387 47.3966 18.5076C47.3966 18.6283 47.4928 18.7248 47.6303 18.7369C47.7403 18.7489 47.8366 18.7489 47.9466 18.7369L48.0016 18.7248C48.1528 18.7007 48.3178 18.714 48.4553 18.7622ZM37.4553 25.2496C37.3188 25.1296 37.1566 25.0344 36.9781 24.9695C36.7996 24.9045 36.6083 24.8711 36.4151 24.8711C36.2219 24.8711 36.0305 24.9045 35.852 24.9695C35.6736 25.0344 35.5114 25.1296 35.3749 25.2496L19.1801 39.4585C19.0435 39.5783 18.9352 39.7205 18.8613 39.877C18.7875 40.0335 18.7494 40.2013 18.7494 40.3707C18.7494 40.5401 18.7875 40.7078 18.8613 40.8643C18.9352 41.0208 19.0435 41.163 19.1801 41.2828L24.7942 46.2089C24.9307 46.3289 25.0929 46.4241 25.2714 46.489C25.4499 46.554 25.6412 46.5874 25.8344 46.5874C26.0276 46.5874 26.219 46.554 26.3975 46.489C26.5759 46.4241 26.7381 46.3289 26.8746 46.2089L43.0694 31.9987C43.206 31.879 43.3143 31.7368 43.3882 31.5803C43.462 31.4238 43.5001 31.256 43.5001 31.0866C43.5001 30.9172 43.462 30.7495 43.3882 30.593C43.3143 30.4365 43.206 30.2943 43.0694 30.1745L37.4553 25.2484V25.2496Z" fill="#374151"/>
<rect x="1" y="1" width="62" height="62" rx="15" stroke="#D1D5DB" stroke-width="2"/>
</svg>
