<svg width="40" height="28" viewBox="0 0 40 28" fill="none" xmlns="http://www.w3.org/2000/svg">
<path d="M20 8.75C21.3924 8.75 22.7277 9.30312 23.7123 10.2877C24.6969 11.2723 25.25 12.6076 25.25 14C25.25 15.3924 24.6969 16.7277 23.7123 17.7123C22.7277 18.6969 21.3924 19.25 20 19.25C18.6076 19.25 17.2723 18.6969 16.2877 17.7123C15.3031 16.7277 14.75 15.3924 14.75 14C14.75 12.6076 15.3031 11.2723 16.2877 10.2877C17.2723 9.30312 18.6076 8.75 20 8.75ZM20 0.875C28.75 0.875 36.2225 6.3175 39.25 14C36.2225 21.6825 28.75 27.125 20 27.125C11.25 27.125 3.7775 21.6825 0.75 14C3.7775 6.3175 11.25 0.875 20 0.875ZM4.565 14C5.97944 16.888 8.17579 19.3213 10.9043 21.0232C13.6329 22.7251 16.7842 23.6273 20 23.6273C23.2158 23.6273 26.3671 22.7251 29.0957 21.0232C31.8242 19.3213 34.0206 16.888 35.435 14C34.0206 11.112 31.8242 8.67869 29.0957 6.9768C26.3671 5.27492 23.2158 4.37269 20 4.37269C16.7842 4.37269 13.6329 5.27492 10.9043 6.9768C8.17579 8.67869 5.97944 11.112 4.565 14Z" fill="#1B63F8"/>
</svg>
