<svg width="44" height="44" viewBox="0 0 44 44" fill="none" xmlns="http://www.w3.org/2000/svg">
<circle cx="22.0002" cy="22" r="21.0833" fill="white"/>
<path fill-rule="evenodd" clip-rule="evenodd" d="M0.000167847 22C0.000167847 9.84974 9.8499 0 22.0002 0C34.1504 0 44.0002 9.84974 44.0002 22C44.0002 34.1503 34.1504 44 22.0002 44C9.8499 44 0.000167847 34.1503 0.000167847 22ZM22.0002 11C28.0502 11 33.0002 15.95 33.0002 22C33.0002 27.5 29.0127 32.175 23.5127 33V25.1625H26.1252L26.6752 22H23.6502V19.9375C23.6502 19.1125 24.0627 18.2875 25.4377 18.2875H26.8127V15.5375C26.8127 15.5375 25.5752 15.2625 24.3377 15.2625C21.8627 15.2625 20.2127 16.775 20.2127 19.525V22H17.4627V25.1625H20.2127V32.8625C14.9877 32.0375 11.0002 27.5 11.0002 22C11.0002 15.95 15.9502 11 22.0002 11Z" fill="url(#paint0_linear_4124_7465)"/>
<defs>
<linearGradient id="paint0_linear_4124_7465" x1="0.000167847" y1="22" x2="44.0002" y2="22" gradientUnits="userSpaceOnUse">
<stop stop-color="#00C6FF"/>
<stop offset="1" stop-color="#0072FF"/>
</linearGradient>
</defs>
</svg>
