<svg width="44" height="44" viewBox="0 0 44 44" fill="none" xmlns="http://www.w3.org/2000/svg">
<circle cx="22" cy="22" r="22" fill="url(#paint0_linear_6922_1796)"/>
<path d="M14.6029 29.4627V33.2401L16.1225 32.3283L20.8989 29.4627H25.6363C26.7427 29.4627 27.6424 28.5629 27.6424 27.4566V19.4323C27.6424 18.326 26.7427 17.4262 25.6363 17.4262H13.5998C12.4935 17.4262 11.5938 18.326 11.5938 19.4323V27.4566C11.5938 28.5629 12.4935 29.4627 13.5998 29.4627H14.6029ZM13.5998 19.4323H25.6363V27.4566H20.3433L16.6089 29.6974V27.4566H13.5998V19.4323Z" fill="white"/>
<path d="M29.648 13.414H17.6115C16.5052 13.414 15.6055 14.3138 15.6055 15.4201H27.6419C28.7483 15.4201 29.648 16.3198 29.648 17.4262V25.4505C30.7544 25.4505 31.6541 24.5507 31.6541 23.4444V15.4201C31.6541 14.3138 30.7544 13.414 29.648 13.414Z" fill="white"/>
<defs>
<linearGradient id="paint0_linear_6922_1796" x1="0" y1="22" x2="44" y2="22" gradientUnits="userSpaceOnUse">
<stop stop-color="#00C6FF"/>
<stop offset="1" stop-color="#0072FF"/>
</linearGradient>
</defs>
</svg>
