<svg width="21" height="20" viewBox="0 0 21 20" fill="none" xmlns="http://www.w3.org/2000/svg">
<path d="M18.5 5.31812L13.5909 5.31812" stroke="#374151" stroke-width="1.5" stroke-miterlimit="10" stroke-linecap="round" stroke-linejoin="round"/>
<path d="M5.40908 5.31812L2.13635 5.31812" stroke="#374151" stroke-width="1.5" stroke-miterlimit="10" stroke-linecap="round" stroke-linejoin="round"/>
<path d="M8.68181 8.18186C10.2634 8.18186 11.5454 6.89977 11.5454 5.31823C11.5454 3.73668 10.2634 2.45459 8.68181 2.45459C7.10027 2.45459 5.81818 3.73668 5.81818 5.31823C5.81818 6.89977 7.10027 8.18186 8.68181 8.18186Z" stroke="#374151" stroke-width="1.5" stroke-miterlimit="10" stroke-linecap="round" stroke-linejoin="round"/>
<path d="M18.5 14.3181H15.2273" stroke="#374151" stroke-width="1.5" stroke-miterlimit="10" stroke-linecap="round" stroke-linejoin="round"/>
<path d="M7.04544 14.3181H2.13635" stroke="#374151" stroke-width="1.5" stroke-miterlimit="10" stroke-linecap="round" stroke-linejoin="round"/>
<path d="M11.9545 17.1819C13.5361 17.1819 14.8182 15.8998 14.8182 14.3182C14.8182 12.7367 13.5361 11.4546 11.9545 11.4546C10.373 11.4546 9.09088 12.7367 9.09088 14.3182C9.09088 15.8998 10.373 17.1819 11.9545 17.1819Z" stroke="#374151" stroke-width="1.5" stroke-miterlimit="10" stroke-linecap="round" stroke-linejoin="round"/>
</svg>
