<svg width="64" height="64" viewBox="0 0 64 64" fill="none" xmlns="http://www.w3.org/2000/svg">
<rect x="1" y="1" width="62" height="62" rx="15" fill="white"/>
<path d="M27.3333 33.75C27.3333 36.4667 29.6411 38.6667 32.5 38.6667C35.3589 38.6667 37.6667 36.4667 37.6667 33.75C37.6667 31.5667 36.7539 30.9333 32.5 26.1667C28.1944 30.9667 27.3333 31.5833 27.3333 33.75ZM46.2778 33.6667C47.225 33.6667 48 32.9167 48 32C48 31.0833 47.225 30.3333 46.2778 30.3333H44.5556V20.3333H46.2778C47.225 20.3333 48 19.5833 48 18.6667C48 17.75 47.225 17 46.2778 17H18.7222C17.775 17 17 17.75 17 18.6667C17 19.5833 17.775 20.3333 18.7222 20.3333H20.4444V30.3333H18.7222C17.775 30.3333 17 31.0833 17 32C17 32.9167 17.775 33.6667 18.7222 33.6667H20.4444V43.6667H18.7222C17.775 43.6667 17 44.4167 17 45.3333C17 46.25 17.775 47 18.7222 47H46.2778C47.225 47 48 46.25 48 45.3333C48 44.4167 47.225 43.6667 46.2778 43.6667H44.5556V33.6667H46.2778ZM41.1111 43.6667H23.8889V33.6667C24.8361 33.6667 25.6111 32.9167 25.6111 32C25.6111 31.0833 24.8361 30.3333 23.8889 30.3333V20.3333H41.1111V30.3333C40.1639 30.3333 39.3889 31.0833 39.3889 32C39.3889 32.9167 40.1639 33.6667 41.1111 33.6667V43.6667Z" fill="#374151"/>
<rect x="1" y="1" width="62" height="62" rx="15" stroke="#D1D5DB" stroke-width="2"/>
</svg>
