<svg width="64" height="64" viewBox="0 0 64 64" fill="none" xmlns="http://www.w3.org/2000/svg">
<rect x="1" y="1" width="62" height="62" rx="15" fill="white"/>
<path d="M36.5427 18.5333L36.5428 18.5333C40.1481 18.5383 43.4856 20.4702 45.3387 23.6216L45.3388 23.6217C47.1914 26.7735 47.2896 30.6839 45.5971 33.9276C45.5971 33.9276 45.5971 33.9276 45.5971 33.9276L45.4789 33.866C43.8081 37.0692 40.6137 39.1445 37.0611 39.3353L36.5427 18.5333ZM36.5427 18.5333C33.8798 18.5316 31.3213 19.5879 29.4096 21.4769M36.5427 18.5333L29.4096 21.4769M29.4096 21.4769C29.0499 21.8301 29.0386 22.4127 29.3848 22.7796L29.4096 21.4769ZM36.1147 38.5689L36.248 38.5657L29.3848 22.7797C29.7324 23.1484 30.3085 23.1598 30.6699 22.8051L30.67 22.805C32.6644 20.8444 35.4734 20.0054 38.1884 20.5585L38.1884 20.5585C40.9035 21.1113 43.1823 22.9862 44.2861 25.5788L44.4088 25.5265L44.2861 25.5788C45.39 28.1712 45.1782 31.151 43.7195 33.5539C42.2608 35.9565 39.7414 37.477 36.9768 37.6247C36.483 37.6498 36.1027 38.0709 36.1147 38.5689C36.1147 38.5689 36.1147 38.5689 36.1147 38.5689ZM39.5631 31.9923H39.5634C39.9648 31.9923 40.3162 31.725 40.432 31.3373L40.432 31.3372C40.5473 30.95 40.4014 30.53 40.0691 30.3035L40.0691 30.3035L37.4476 28.5176V22.9163C37.4476 22.4093 37.0437 21.9936 36.5403 21.9936C36.0365 21.9936 35.6329 22.4094 35.6329 22.9163V29.0096C35.6329 29.3165 35.7832 29.6043 36.0351 29.776L36.0351 29.776L39.0585 31.836L39.1339 31.726L39.0588 31.8362L39.0588 31.8362C39.2081 31.9385 39.3841 31.992 39.5631 31.9923Z" fill="#374151" stroke="#374151" stroke-width="0.266667"/>
<path d="M35.869 34.3624L29.0387 29.6253V25.7908C29.0387 24.8088 28.2752 24 27.3328 24C26.3905 24 25.627 24.8016 25.627 25.7908V29.6253L18.7967 34.3624C18.721 34.4201 18.666 34.4996 18.666 34.6223V36.2327C18.666 36.3338 18.7073 36.4132 18.783 36.471C18.8586 36.5287 18.9549 36.5504 19.0306 36.5143L25.6131 34.2468V38.6806L23.2607 40.4281C23.185 40.4859 23.1438 40.5653 23.1438 40.6664V42.3706C23.1438 42.4717 23.185 42.5511 23.2607 42.6089C23.3157 42.6522 23.3776 42.6667 23.4327 42.6667C23.4739 42.6667 23.4877 42.6667 23.5289 42.645L27.3327 41.2008L31.1364 42.5439C31.2327 42.5872 31.329 42.5656 31.4047 42.5006C31.4803 42.4428 31.5216 42.3634 31.5216 42.2623V40.652C31.5216 40.5509 31.4803 40.4714 31.4047 40.4137L29.0523 38.6806V34.2251L35.6348 36.4926C35.7311 36.5143 35.8274 36.5143 35.8824 36.4493C35.9581 36.3915 35.9993 36.3121 35.9993 36.211V34.6006C35.9787 34.4995 35.9447 34.3985 35.869 34.3624ZM35.4425 35.7849H35.4013L28.8464 33.5175C28.7501 33.4958 28.6538 33.4958 28.5988 33.5608C28.5231 33.6186 28.4819 33.698 28.4819 33.7991V38.8178C28.4819 38.9189 28.5231 38.9984 28.5988 39.0561L30.9512 40.8037V41.8291L27.4294 40.587C27.3744 40.5654 27.2988 40.5654 27.2368 40.587L23.7151 41.9302V40.8037L26.0675 39.0562C26.1432 38.9984 26.1844 38.919 26.1844 38.8179V33.7992C26.1844 33.6981 26.1432 33.6186 26.0675 33.5609C25.9918 33.5031 25.8955 33.4814 25.8199 33.5175L19.2581 35.785V34.7596L26.0884 30.0225C26.1641 29.9648 26.2191 29.8853 26.2191 29.7626V25.7837C26.2191 25.1194 26.735 24.5994 27.3472 24.5994C27.9594 24.5994 28.4753 25.141 28.4753 25.7837V29.777C28.4753 29.8781 28.5303 29.9792 28.606 30.0369L35.4363 34.774V35.7849H35.4425Z" fill="black" stroke="#374151" stroke-width="1.33333"/>
<rect x="1" y="1" width="62" height="62" rx="15" stroke="#D1D5DB" stroke-width="2"/>
</svg>
