<svg width="64" height="64" viewBox="0 0 64 64" fill="none" xmlns="http://www.w3.org/2000/svg">
<rect x="1" y="1" width="62" height="62" rx="15" fill="white"/>
<g clip-path="url(#clip0_3568_50833)">
<path d="M25.6 29.8666V28.8C25.3171 28.8 25.0458 28.9123 24.8458 29.1124C24.6457 29.3124 24.5333 29.5837 24.5333 29.8666H25.6ZM46.9333 29.8666H48C48 29.5837 47.8876 29.3124 47.6876 29.1124C47.4875 28.9123 47.2162 28.8 46.9333 28.8V29.8666ZM46.9333 42.6666V43.7333C47.2162 43.7333 47.4875 43.6209 47.6876 43.4209C47.8876 43.2208 48 42.9495 48 42.6666H46.9333ZM25.6 42.6666H24.5333C24.5333 42.9495 24.6457 43.2208 24.8458 43.4209C25.0458 43.6209 25.3171 43.7333 25.6 43.7333V42.6666ZM18.1333 18.1333V48H20.2667V18.1333H18.1333ZM16 24.5333H48V22.4H16V24.5333ZM25.6 30.9333H46.9333V28.8H25.6V30.9333ZM45.8667 29.8666V42.6666H48V29.8666H45.8667ZM46.9333 41.6H25.6V43.7333H46.9333V41.6ZM26.6667 42.6666V29.8666H24.5333V42.6666H26.6667ZM28.8 23.4666V29.8666H30.9333V23.4666H28.8ZM41.6 23.4666V29.8666H43.7333V23.4666H41.6Z" fill="#374151"/>
</g>
<rect x="1" y="1" width="62" height="62" rx="15" stroke="#D1D5DB" stroke-width="2"/>
<defs>
<clipPath id="clip0_3568_50833">
<rect width="32" height="32" fill="white" transform="translate(16 16)"/>
</clipPath>
</defs>
</svg>
