<svg width="12" height="18" viewBox="0 0 12 18" fill="none" xmlns="http://www.w3.org/2000/svg">
<path d="M5.4 0.599983C5.54043 0.599936 5.67643 0.649149 5.78431 0.73905C5.89219 0.828952 5.96512 0.953846 5.9904 1.09198L6 1.19998V4.79998C6.00014 5.49157 5.76133 6.16198 5.32399 6.69772C4.88664 7.23347 4.27762 7.60166 3.6 7.73998V16.8C3.60028 16.9499 3.54441 17.0945 3.44339 17.2053C3.34238 17.3161 3.20354 17.3851 3.05422 17.3986C2.90489 17.4122 2.75591 17.3693 2.6366 17.2785C2.5173 17.1877 2.43631 17.0555 2.4096 16.908L2.4 16.8V7.73998C1.757 7.60848 1.17483 7.26982 0.74266 6.77588C0.310491 6.28194 0.0521484 5.65995 0.00720107 5.00518L1.01783e-06 4.79998V1.19998C-0.000274998 1.05005 0.0555959 0.905443 0.156611 0.794643C0.257626 0.683844 0.396465 0.61488 0.545787 0.601332C0.695109 0.587785 0.844093 0.630636 0.963399 0.721446C1.08271 0.812257 1.16369 0.944446 1.1904 1.09198L1.2 1.19998V4.79998C1.19981 5.17237 1.31511 5.53566 1.53003 5.83977C1.74496 6.14388 2.04891 6.37385 2.4 6.49798V1.19998C2.39973 1.05005 2.4556 0.905443 2.55661 0.794643C2.65763 0.683844 2.79647 0.61488 2.94579 0.601332C3.09511 0.587785 3.24409 0.630636 3.3634 0.721446C3.48271 0.812257 3.56369 0.944446 3.5904 1.09198L3.6 1.19998V6.49678C4.2456 6.26878 4.722 5.68318 4.7916 4.97878L4.8 4.79998V1.19998C4.8 1.04085 4.86321 0.888241 4.97574 0.775719C5.08826 0.663197 5.24087 0.599983 5.4 0.599983V0.599983ZM11.4 0.599983C11.5404 0.599936 11.6764 0.649149 11.7843 0.73905C11.8922 0.828952 11.9651 0.953846 11.9904 1.09198L12 1.19998V16.8C12.0003 16.9499 11.9444 17.0945 11.8434 17.2053C11.7424 17.3161 11.6035 17.3851 11.4542 17.3986C11.3049 17.4122 11.1559 17.3693 11.0366 17.2785C10.9173 17.1877 10.8363 17.0555 10.8096 16.908L10.8 16.8V10.2H9C8.85957 10.2 8.72357 10.1508 8.61569 10.0609C8.50781 9.97101 8.43488 9.84612 8.4096 9.70798L8.4 9.59998V3.59998C8.4 2.80433 8.71607 2.04127 9.27868 1.47866C9.84129 0.916053 10.6044 0.599983 11.4 0.599983V0.599983ZM10.8 8.99998V1.90198C10.1544 2.12998 9.678 2.71558 9.6084 3.42118L9.6 3.59998V8.99998H10.8V1.90198V8.99998Z" fill="#374151"/>
</svg>
