<svg width="64" height="61" viewBox="0 0 64 61" fill="none" xmlns="http://www.w3.org/2000/svg">
<rect x="1" y="1" width="62" height="58.2353" rx="15" fill="white"/>
<g clip-path="url(#clip0_5384_99445)">
<path d="M34 37H32V35C31.9992 34.2046 31.6829 33.442 31.1204 32.8796C30.558 32.3171 29.7954 32.0008 29 32H25C24.2046 32.0008 23.442 32.3171 22.8796 32.8796C22.3171 33.442 22.0008 34.2046 22 35V37H20V35C20.0016 33.6744 20.5289 32.4036 21.4662 31.4662C22.4036 30.5289 23.6744 30.0016 25 30H29C30.3256 30.0016 31.5964 30.5289 32.5338 31.4662C33.4711 32.4036 33.9984 33.6744 34 35V37ZM27 20C27.5933 20 28.1734 20.1759 28.6667 20.5056C29.1601 20.8352 29.5446 21.3038 29.7716 21.8519C29.9987 22.4001 30.0581 23.0033 29.9424 23.5853C29.8266 24.1672 29.5409 24.7018 29.1213 25.1213C28.7018 25.5409 28.1672 25.8266 27.5853 25.9424C27.0033 26.0581 26.4001 25.9987 25.8519 25.7716C25.3038 25.5446 24.8352 25.1601 24.5056 24.6667C24.1759 24.1734 24 23.5933 24 23C24 22.2044 24.3161 21.4413 24.8787 20.8787C25.4413 20.3161 26.2044 20 27 20ZM27 18C26.0111 18 25.0444 18.2932 24.2221 18.8427C23.3999 19.3921 22.759 20.173 22.3806 21.0866C22.0022 22.0002 21.9031 23.0055 22.0961 23.9755C22.289 24.9454 22.7652 25.8363 23.4645 26.5355C24.1637 27.2348 25.0546 27.711 26.0245 27.9039C26.9945 28.0969 27.9998 27.9978 28.9134 27.6194C29.827 27.241 30.6079 26.6001 31.1573 25.7779C31.7068 24.9556 32 23.9889 32 23C32 21.6739 31.4732 20.4021 30.5355 19.4645C29.5979 18.5268 28.3261 18 27 18ZM18 40H46V42H18V40ZM47.966 25.741C47.932 25.6141 47.8733 25.4952 47.7934 25.391C47.7134 25.2868 47.6137 25.1994 47.4999 25.1338C47.3862 25.0681 47.2606 25.0255 47.1304 25.0084C47.0002 24.9913 46.8679 25 46.741 25.034L43.655 25.86L40 21L39 21.268L40.458 26.716L37.692 27.456L36 25.206L35 25.474L35.934 28.962C36.0025 29.2182 36.1699 29.4367 36.3994 29.5694C36.6289 29.7022 36.9018 29.7384 37.158 29.67L47.258 26.966C47.385 26.9321 47.504 26.8735 47.6083 26.7936C47.7126 26.7137 47.8001 26.614 47.8659 26.5002C47.9316 26.3865 47.9743 26.2609 47.9915 26.1306C48.0087 26.0003 48 25.8679 47.966 25.741Z" fill="black"/>
</g>
<rect x="1" y="1" width="62" height="58.2353" rx="15" stroke="#D1D5DB" stroke-width="2"/>
<defs>
<clipPath id="clip0_5384_99445">
<rect width="32" height="32" fill="white" transform="translate(16 14)"/>
</clipPath>
</defs>
</svg>
