<svg width="25" height="24" viewBox="0 0 25 24" fill="none" xmlns="http://www.w3.org/2000/svg">
<path d="M12.5 22C18.023 22 22.5 17.523 22.5 12C22.5 6.477 18.023 2 12.5 2C6.977 2 2.5 6.477 2.5 12C2.5 17.523 6.977 22 12.5 22Z" stroke="#374151" stroke-width="1.5" stroke-linecap="round" stroke-linejoin="round"/>
<path d="M8.50007 3H9.50007C7.55011 8.84157 7.55011 15.1584 9.50007 21H8.50007M15.5001 3C17.45 8.84157 17.45 15.1584 15.5001 21" stroke="#374151" stroke-width="1.5" stroke-linecap="round" stroke-linejoin="round"/>
<path d="M3.5 16.0001V15.0001C9.34157 16.95 15.6584 16.95 21.5 15.0001V16.0001M3.5 9.00007C9.34157 7.05011 15.6584 7.05011 21.5 9.00007" stroke="#374151" stroke-width="1.5" stroke-linecap="round" stroke-linejoin="round"/>
</svg>
