<svg width="22" height="20" viewBox="0 0 22 20" fill="none" xmlns="http://www.w3.org/2000/svg">
<path d="M19.5 4.00015H8.5C7.67157 4.00015 7 4.67173 7 5.50015V11.5002C7 12.3286 7.67157 13.0002 8.5 13.0002H19.5C20.3284 13.0002 21 12.3286 21 11.5002V5.50015C21 4.67173 20.3284 4.00015 19.5 4.00015Z" stroke="#374151" stroke-width="1.5" stroke-linejoin="round"/>
<path d="M11 7.00015V10.0002M17 7.00015V10.0002" stroke="#374151" stroke-width="1.5" stroke-linecap="round"/>
<path d="M17 4.00015V1.00015H11V4.00015M21 16.0002H5C4.73478 16.0002 4.48043 15.8948 4.29289 15.7073C4.10536 15.5197 4 15.2654 4 15.0002V3.50015C4 3.23494 3.89464 2.98058 3.70711 2.79305C3.51957 2.60551 3.26522 2.50015 3 2.50015H1M8.5 19.0002C8.10218 19.0002 7.72064 18.8421 7.43934 18.5608C7.15804 18.2795 7 17.898 7 17.5002V16.0002H10V17.5002C10 17.898 9.84196 18.2795 9.56066 18.5608C9.27936 18.8421 8.89782 19.0002 8.5 19.0002ZM17.5 19.0002C17.1022 19.0002 16.7206 18.8421 16.4393 18.5608C16.158 18.2795 16 17.898 16 17.5002V16.0002H19V17.5002C19 17.898 18.842 18.2795 18.5607 18.5608C18.2794 18.8421 17.8978 19.0002 17.5 19.0002Z" stroke="#374151" stroke-width="1.5" stroke-linecap="round" stroke-linejoin="round"/>
</svg>
