<svg width="64" height="64" viewBox="0 0 64 64" fill="none" xmlns="http://www.w3.org/2000/svg">
<rect x="1" y="1" width="62" height="62" rx="15" fill="white"/>
<g clip-path="url(#clip0_3_14)">
<path d="M48.0605 17.6275H48.1105V17.5775C48.1105 17.0588 48.2342 16.679 48.4727 16.4289C48.7108 16.1792 49.0715 16.05 49.5645 16.05H50.95V27.1425H45.1895H45.1395V27.1925C45.1395 27.3393 45.117 27.5995 45.0715 27.9752C45.0259 28.3507 45.0027 28.6163 45.0027 28.77V28.82H45.0527H47.377C47.5944 28.82 47.7492 28.8852 47.8511 29.0084C47.9546 29.1334 48.0105 29.3265 48.0105 29.5962C48.0105 29.866 47.9546 30.0591 47.8511 30.1841C47.7492 30.3073 47.5944 30.3725 47.377 30.3725H44.3008H44.2692L44.2556 30.401C43.7576 31.4457 43.0969 32.2266 42.2746 32.7465C41.4522 33.2664 40.4649 33.5275 39.3105 33.5275H37.7383H37.6996L37.6899 33.5649C37.3277 34.9577 36.6266 36.1005 35.5865 36.995C34.547 37.889 33.3735 38.335 32.0645 38.335H29.3984H29.3528L29.3486 38.3804C29.1663 40.3842 29.075 41.9884 29.075 43.1925C29.075 44.6353 28.6791 45.7866 27.8917 46.6518C27.1048 47.5165 26.0593 47.95 24.75 47.95H20.375C18.7455 47.95 17.6022 47.4285 16.9306 46.3953L16.9308 46.3952L16.9279 46.3916C16.3454 45.653 16.05 44.5394 16.05 43.0423C16.05 42.946 16.0722 42.7241 16.1179 42.3726C16.1634 42.0226 16.2317 41.5473 16.3229 40.9465C16.5049 39.7465 16.8463 38.0578 17.3476 35.8798C17.8486 33.7026 18.395 31.7135 18.9869 29.9124C19.8035 27.4698 21.2536 25.7282 23.3369 24.6832L23.3645 24.6694V24.6385C23.3645 24.6185 23.3693 24.5788 23.3807 24.516C23.3919 24.4544 23.4089 24.3738 23.4316 24.274C23.4773 24.073 23.5012 23.9182 23.5012 23.8122V23.7793L23.4709 23.7663C22.4371 23.3217 21.6707 22.4817 21.1734 21.2396C20.6811 20.0103 20.432 18.8063 20.4251 17.6275H23.2684L23.333 18.4079C23.3791 18.9651 23.5289 19.5093 23.782 20.0403C24.0355 20.5721 24.3561 20.8575 24.75 20.8575H24.7767L24.7916 20.8353C25.7869 19.3438 27.2349 18.3237 29.1388 17.7757L29.175 17.7653V17.7277V17.6275H48.0605ZM29.175 21.108V21.0377L29.1086 21.0607C28.2315 21.3651 27.5166 21.9359 26.9642 22.7705C26.4115 23.6055 26.1355 24.5542 26.1355 25.615C26.1355 26.6263 26.4118 27.5498 26.9642 28.3844C27.5166 29.2191 28.2315 29.7898 29.1086 30.0942L29.175 30.1172V30.0469V21.108ZM19.0307 44.4902L19.0297 44.4906L19.0357 44.4989C19.1358 44.6364 19.3013 44.7349 19.5237 44.7992C19.7464 44.8636 20.0307 44.8951 20.375 44.8951H24.75C25.2382 44.8951 25.6129 44.7542 25.8644 44.4647C26.1147 44.1765 26.2355 43.7495 26.2355 43.1925C26.2355 40.8927 26.5769 37.3902 27.2604 32.6832L27.2653 32.6493L27.2355 32.6325C25.3786 31.5874 24.1796 30.046 23.6362 28.0059L23.6166 27.9322L23.5568 27.9796C22.7275 28.6377 22.0849 29.5978 21.6268 30.8561L21.6268 30.8561L21.6264 30.8575C20.3492 34.717 19.4371 38.8767 18.8898 43.3366L18.8895 43.3366V43.3427C18.8895 43.6193 18.9009 43.8531 18.924 44.0436C18.947 44.2334 18.982 44.3832 19.0307 44.4902ZM29.8279 35.2201L29.8158 35.28H29.877H32.0645C32.6648 35.28 33.1763 35.1404 33.5962 34.8584C34.0161 34.5764 34.3407 34.1546 34.5716 33.5966L34.6002 33.5275H34.5254H30.1504H30.1004V33.5775C30.1004 33.6729 30.0784 33.8568 30.0327 34.1327C29.9873 34.4073 29.919 34.7697 29.8279 35.2201ZM32.0145 30.4225V30.4725H32.0645H39.3105C40.1461 30.4725 40.8546 30.1401 41.4331 29.4789C42.0106 28.819 42.3 28.0561 42.3 27.1925V27.1425H42.25H35.6875C35.4458 27.1425 35.2734 27.0763 35.1605 26.9523C35.0468 26.8273 34.9855 26.635 34.9855 26.3662C34.9855 26.1235 35.0462 25.9507 35.1589 25.8382C35.2715 25.7257 35.4445 25.665 35.6875 25.665H42.25H42.3V25.615V23.9624V23.9124H42.25H35.6875C35.4445 23.9124 35.2715 23.8518 35.1589 23.7393C35.0462 23.6268 34.9855 23.4539 34.9855 23.2113C34.9855 22.9424 35.0468 22.7501 35.1605 22.6252C35.2734 22.5011 35.4458 22.435 35.6875 22.435H42.25H42.3V22.385V20.8075V20.7575H42.25H32.0645H32.0145V20.8075V30.4225ZM48.0605 24.0124H48.1105V23.9624V20.8075V20.7575H48.0605H45.1895H45.1395V20.8075V23.9624V24.0124H45.1895H48.0605ZM24.7 40.0376C24.7 40.4245 24.5574 40.7758 24.2687 41.0931C23.9798 41.4105 23.6621 41.565 23.3145 41.565C22.9195 41.565 22.5794 41.4091 22.2919 41.0931C22.0031 40.7758 21.8605 40.4245 21.8605 40.0376C21.8605 39.599 22.0042 39.223 22.2919 38.9069C22.5794 38.5909 22.9195 38.435 23.3145 38.435C23.6621 38.435 23.9798 38.5895 24.2687 38.9069C24.5563 39.223 24.7 39.599 24.7 40.0376Z" fill="#374151" stroke="white" stroke-width="0.1"/>
</g>
<rect x="1" y="1" width="62" height="62" rx="15" stroke="#D1D5DB" stroke-width="2"/>
<defs>
<clipPath id="clip0_3_14">
<rect width="35" height="33" fill="white" transform="translate(15 15)"/>
</clipPath>
</defs>
</svg>
