<svg width="44" height="44" viewBox="0 0 44 44" fill="none" xmlns="http://www.w3.org/2000/svg">
<circle cx="22" cy="22" r="22" fill="url(#paint0_linear_4124_7450)"/>
<path d="M30.213 25.3733C30.6408 24.3344 30.873 23.2222 30.873 21.9999C30.873 21.1199 30.7386 20.2766 30.5064 19.4944C29.7119 19.6777 28.8808 19.7755 28.013 19.7755C26.2359 19.7774 24.4843 19.352 22.906 18.5352C21.3277 17.7184 19.9689 16.5341 18.9441 15.0822C17.8479 17.7346 15.78 19.8682 13.163 21.0466C13.1141 21.3522 13.1141 21.6822 13.1141 21.9999C13.1141 23.1668 13.344 24.3223 13.7905 25.4003C14.237 26.4783 14.8916 27.4579 15.7167 28.283C17.383 29.9494 19.6431 30.8855 21.9997 30.8855C23.283 30.8855 24.5175 30.6044 25.6297 30.1033C26.3264 31.4355 26.6441 32.0955 26.6197 32.0955C24.6152 32.7677 23.063 33.0977 21.9997 33.0977C19.0419 33.0977 16.2186 31.9366 14.1408 29.8466C12.877 28.5867 11.9376 27.0392 11.403 25.3366H9.77747V19.7755H11.1097C11.5133 17.8108 12.4413 15.992 13.7951 14.5121C15.149 13.0322 16.8782 11.9464 18.7993 11.37C20.7204 10.7935 22.7618 10.7479 24.7067 11.2379C26.6517 11.728 28.4277 12.7354 29.8464 14.1533C31.3866 15.6875 32.4372 17.6441 32.8652 19.7755H34.2219V25.3366H34.1486L29.7975 29.3333L23.3197 28.5999V26.5588H29.223L30.213 25.3733ZM18.663 21.7188C19.0297 21.7188 19.3841 21.8655 19.6408 22.1344C19.8987 22.3944 20.0435 22.7459 20.0435 23.1122C20.0435 23.4785 19.8987 23.8299 19.6408 24.0899C19.3841 24.3466 19.0297 24.4933 18.663 24.4933C17.893 24.4933 17.2697 23.8822 17.2697 23.1122C17.2697 22.3422 17.893 21.7188 18.663 21.7188ZM25.3241 21.7188C26.0941 21.7188 26.7052 22.3422 26.7052 23.1122C26.7052 23.8822 26.0941 24.4933 25.3241 24.4933C24.5541 24.4933 23.9308 23.8822 23.9308 23.1122C23.9308 22.7426 24.0776 22.3882 24.3389 22.1269C24.6002 21.8656 24.9546 21.7188 25.3241 21.7188Z" fill="white"/>
<defs>
<linearGradient id="paint0_linear_4124_7450" x1="0" y1="22" x2="44" y2="22" gradientUnits="userSpaceOnUse">
<stop stop-color="#00C6FF"/>
<stop offset="1" stop-color="#0072FF"/>
</linearGradient>
</defs>
</svg>
