<svg width="49" height="48" viewBox="0 0 49 48" fill="none" xmlns="http://www.w3.org/2000/svg">
<rect x="1.0835" y="0.75" width="46.5" height="46.5" rx="11.25" fill="white"/>
<path d="M33.9995 24C33.9995 18.48 29.5195 14 23.9995 14C18.4795 14 13.9995 18.48 13.9995 24C13.9995 29.52 18.4795 34 23.9995 34" stroke="#374151" stroke-width="1.5" stroke-linecap="round" stroke-linejoin="round"/>
<path d="M19.9996 15H20.9996C19.0496 20.8416 19.0496 27.1584 20.9996 33H19.9996M26.9996 15C27.9696 17.92 28.4596 20.96 28.4596 24" stroke="#374151" stroke-width="1.5" stroke-linecap="round" stroke-linejoin="round"/>
<path d="M14.9995 28.0001V27.0001C17.9195 27.9701 20.9595 28.4601 23.9995 28.4601M14.9995 21.0001C20.8411 19.0501 27.1579 19.0501 32.9995 21.0001M33.9995 34.0001L32.9995 33.0001M30.1995 33.4001C31.0482 33.4001 31.8621 33.0629 32.4623 32.4628C33.0624 31.8627 33.3995 31.0488 33.3995 30.2001C33.3995 29.3514 33.0624 28.5374 32.4623 27.9373C31.8621 27.3372 31.0482 27.0001 30.1995 27.0001C29.3508 27.0001 28.5369 27.3372 27.9368 27.9373C27.3367 28.5374 26.9995 29.3514 26.9995 30.2001C26.9995 31.0488 27.3367 31.8627 27.9368 32.4628C28.5369 33.0629 29.3508 33.4001 30.1995 33.4001Z" stroke="#374151" stroke-width="1.5" stroke-linecap="round" stroke-linejoin="round"/>
<rect x="1.0835" y="0.75" width="46.5" height="46.5" rx="11.25" stroke="#D1D5DB" stroke-width="1.5"/>
</svg>
