<svg width="48" height="48" viewBox="0 0 48 48" fill="none" xmlns="http://www.w3.org/2000/svg">
<path d="M45 39H43.5V19.5C43.5 18.7044 43.1839 17.9413 42.6213 17.3787C42.0587 16.8161 41.2956 16.5 40.5 16.5H28.5V7.5C28.5 6.70435 28.1839 5.94129 27.6213 5.37868C27.0587 4.81607 26.2956 4.5 25.5 4.5H7.5C6.70435 4.5 5.94129 4.81607 5.37868 5.37868C4.81607 5.94129 4.5 6.70435 4.5 7.5V39H3C2.60218 39 2.22064 39.158 1.93934 39.4393C1.65804 39.7206 1.5 40.1022 1.5 40.5C1.5 40.8978 1.65804 41.2794 1.93934 41.5607C2.22064 41.842 2.60218 42 3 42H45C45.3978 42 45.7794 41.842 46.0607 41.5607C46.342 41.2794 46.5 40.8978 46.5 40.5C46.5 40.1022 46.342 39.7206 46.0607 39.4393C45.7794 39.158 45.3978 39 45 39ZM40.5 19.5V39H28.5V19.5H40.5ZM7.5 7.5H25.5V39H7.5V7.5ZM10.5 13.5C10.5 13.1022 10.658 12.7206 10.9393 12.4393C11.2206 12.158 11.6022 12 12 12H18C18.3978 12 18.7794 12.158 19.0607 12.4393C19.342 12.7206 19.5 13.1022 19.5 13.5C19.5 13.8978 19.342 14.2794 19.0607 14.5607C18.7794 14.842 18.3978 15 18 15H12C11.6022 15 11.2206 14.842 10.9393 14.5607C10.658 14.2794 10.5 13.8978 10.5 13.5ZM22.5 25.5C22.5 25.8978 22.342 26.2794 22.0607 26.5607C21.7794 26.842 21.3978 27 21 27H15C14.6022 27 14.2206 26.842 13.9393 26.5607C13.658 26.2794 13.5 25.8978 13.5 25.5C13.5 25.1022 13.658 24.7206 13.9393 24.4393C14.2206 24.158 14.6022 24 15 24H21C21.3978 24 21.7794 24.158 22.0607 24.4393C22.342 24.7206 22.5 25.1022 22.5 25.5ZM19.5 33C19.5 33.3978 19.342 33.7794 19.0607 34.0607C18.7794 34.342 18.3978 34.5 18 34.5H12C11.6022 34.5 11.2206 34.342 10.9393 34.0607C10.658 33.7794 10.5 33.3978 10.5 33C10.5 32.6022 10.658 32.2206 10.9393 31.9393C11.2206 31.658 11.6022 31.5 12 31.5H18C18.3978 31.5 18.7794 31.658 19.0607 31.9393C19.342 32.2206 19.5 32.6022 19.5 33ZM37.5 33C37.5 33.3978 37.342 33.7794 37.0607 34.0607C36.7794 34.342 36.3978 34.5 36 34.5H33C32.6022 34.5 32.2206 34.342 31.9393 34.0607C31.658 33.7794 31.5 33.3978 31.5 33C31.5 32.6022 31.658 32.2206 31.9393 31.9393C32.2206 31.658 32.6022 31.5 33 31.5H36C36.3978 31.5 36.7794 31.658 37.0607 31.9393C37.342 32.2206 37.5 32.6022 37.5 33ZM31.5 25.5C31.5 25.1022 31.658 24.7206 31.9393 24.4393C32.2206 24.158 32.6022 24 33 24H36C36.3978 24 36.7794 24.158 37.0607 24.4393C37.342 24.7206 37.5 25.1022 37.5 25.5C37.5 25.8978 37.342 26.2794 37.0607 26.5607C36.7794 26.842 36.3978 27 36 27H33C32.6022 27 32.2206 26.842 31.9393 26.5607C31.658 26.2794 31.5 25.8978 31.5 25.5Z" fill="#00C6FF"/>
<path d="M45 39H43.5V19.5C43.5 18.7044 43.1839 17.9413 42.6213 17.3787C42.0587 16.8161 41.2956 16.5 40.5 16.5H28.5V7.5C28.5 6.70435 28.1839 5.94129 27.6213 5.37868C27.0587 4.81607 26.2956 4.5 25.5 4.5H7.5C6.70435 4.5 5.94129 4.81607 5.37868 5.37868C4.81607 5.94129 4.5 6.70435 4.5 7.5V39H3C2.60218 39 2.22064 39.158 1.93934 39.4393C1.65804 39.7206 1.5 40.1022 1.5 40.5C1.5 40.8978 1.65804 41.2794 1.93934 41.5607C2.22064 41.842 2.60218 42 3 42H45C45.3978 42 45.7794 41.842 46.0607 41.5607C46.342 41.2794 46.5 40.8978 46.5 40.5C46.5 40.1022 46.342 39.7206 46.0607 39.4393C45.7794 39.158 45.3978 39 45 39ZM40.5 19.5V39H28.5V19.5H40.5ZM7.5 7.5H25.5V39H7.5V7.5ZM10.5 13.5C10.5 13.1022 10.658 12.7206 10.9393 12.4393C11.2206 12.158 11.6022 12 12 12H18C18.3978 12 18.7794 12.158 19.0607 12.4393C19.342 12.7206 19.5 13.1022 19.5 13.5C19.5 13.8978 19.342 14.2794 19.0607 14.5607C18.7794 14.842 18.3978 15 18 15H12C11.6022 15 11.2206 14.842 10.9393 14.5607C10.658 14.2794 10.5 13.8978 10.5 13.5ZM22.5 25.5C22.5 25.8978 22.342 26.2794 22.0607 26.5607C21.7794 26.842 21.3978 27 21 27H15C14.6022 27 14.2206 26.842 13.9393 26.5607C13.658 26.2794 13.5 25.8978 13.5 25.5C13.5 25.1022 13.658 24.7206 13.9393 24.4393C14.2206 24.158 14.6022 24 15 24H21C21.3978 24 21.7794 24.158 22.0607 24.4393C22.342 24.7206 22.5 25.1022 22.5 25.5ZM19.5 33C19.5 33.3978 19.342 33.7794 19.0607 34.0607C18.7794 34.342 18.3978 34.5 18 34.5H12C11.6022 34.5 11.2206 34.342 10.9393 34.0607C10.658 33.7794 10.5 33.3978 10.5 33C10.5 32.6022 10.658 32.2206 10.9393 31.9393C11.2206 31.658 11.6022 31.5 12 31.5H18C18.3978 31.5 18.7794 31.658 19.0607 31.9393C19.342 32.2206 19.5 32.6022 19.5 33ZM37.5 33C37.5 33.3978 37.342 33.7794 37.0607 34.0607C36.7794 34.342 36.3978 34.5 36 34.5H33C32.6022 34.5 32.2206 34.342 31.9393 34.0607C31.658 33.7794 31.5 33.3978 31.5 33C31.5 32.6022 31.658 32.2206 31.9393 31.9393C32.2206 31.658 32.6022 31.5 33 31.5H36C36.3978 31.5 36.7794 31.658 37.0607 31.9393C37.342 32.2206 37.5 32.6022 37.5 33ZM31.5 25.5C31.5 25.1022 31.658 24.7206 31.9393 24.4393C32.2206 24.158 32.6022 24 33 24H36C36.3978 24 36.7794 24.158 37.0607 24.4393C37.342 24.7206 37.5 25.1022 37.5 25.5C37.5 25.8978 37.342 26.2794 37.0607 26.5607C36.7794 26.842 36.3978 27 36 27H33C32.6022 27 32.2206 26.842 31.9393 26.5607C31.658 26.2794 31.5 25.8978 31.5 25.5Z" fill="#0072FF"/>
</svg>
