<svg width="45" height="44" viewBox="0 0 45 44" fill="none" xmlns="http://www.w3.org/2000/svg">
<circle cx="22.0167" cy="21.9998" r="21.0833" fill="white"/>
<path d="M22.2 25.85C20.1375 25.85 18.35 24.2 18.35 22C18.35 19.9375 20 18.15 22.2 18.15C24.2625 18.15 26.05 19.8 26.05 22C26.05 24.0625 24.2625 25.85 22.2 25.85Z" fill="url(#paint0_linear_4124_7468)"/>
<path fill-rule="evenodd" clip-rule="evenodd" d="M26.875 12.65H17.525C16.425 12.7875 15.875 12.925 15.4625 13.0625C14.9125 13.2 14.5 13.475 14.0875 13.8875C13.7611 14.2139 13.6069 14.5403 13.4205 14.9348C13.3713 15.0388 13.3198 15.1478 13.2625 15.2625C13.2412 15.3263 13.2167 15.3934 13.1903 15.4653C13.0465 15.8583 12.85 16.3952 12.85 17.325V26.675C12.9875 27.775 13.125 28.325 13.2625 28.7375C13.4 29.2875 13.675 29.7 14.0875 30.1125C14.4139 30.4389 14.7403 30.5931 15.1348 30.7795C15.2389 30.8287 15.3477 30.8801 15.4625 30.9375C15.5263 30.9588 15.5934 30.9833 15.6653 31.0097C16.0583 31.1535 16.5952 31.35 17.525 31.35H26.875C27.975 31.2125 28.525 31.075 28.9375 30.9375C29.4875 30.8 29.9 30.525 30.3125 30.1125C30.6389 29.7861 30.7931 29.4597 30.9795 29.0652C31.0287 28.9611 31.0801 28.8523 31.1375 28.7375C31.1588 28.6737 31.1833 28.6066 31.2097 28.5347C31.3535 28.1417 31.55 27.6048 31.55 26.675V17.325C31.4125 16.225 31.275 15.675 31.1375 15.2625C31 14.7125 30.725 14.3 30.3125 13.8875C29.9861 13.5611 29.6597 13.4069 29.2652 13.2205C29.1613 13.1714 29.0521 13.1198 28.9375 13.0625C28.8737 13.0412 28.8066 13.0167 28.7347 12.9903C28.3417 12.8465 27.8048 12.65 26.875 12.65ZM22.2 16.0875C18.9 16.0875 16.2875 18.7 16.2875 22C16.2875 25.3 18.9 27.9125 22.2 27.9125C25.5 27.9125 28.1125 25.3 28.1125 22C28.1125 18.7 25.5 16.0875 22.2 16.0875ZM29.625 15.95C29.625 16.7094 29.0094 17.325 28.25 17.325C27.4906 17.325 26.875 16.7094 26.875 15.95C26.875 15.1906 27.4906 14.575 28.25 14.575C29.0094 14.575 29.625 15.1906 29.625 15.95Z" fill="url(#paint1_linear_4124_7468)"/>
<path fill-rule="evenodd" clip-rule="evenodd" d="M0.199997 22C0.199997 9.84974 10.0497 0 22.2 0C34.3503 0 44.2 9.84974 44.2 22C44.2 34.1503 34.3503 44 22.2 44C10.0497 44 0.199997 34.1503 0.199997 22ZM17.525 10.5875H26.875C28.1125 10.725 28.9375 10.8625 29.625 11.1375C30.45 11.55 31 11.825 31.6875 12.5125C32.375 13.2 32.7875 13.8875 33.0625 14.575C33.3375 15.2625 33.6125 16.0875 33.6125 17.325V26.675C33.475 27.9125 33.3375 28.7375 33.0625 29.425C32.65 30.25 32.375 30.8 31.6875 31.4875C31 32.175 30.3125 32.5875 29.625 32.8625C28.9375 33.1375 28.1125 33.4125 26.875 33.4125H17.525C16.2875 33.275 15.4625 33.1375 14.775 32.8625C13.95 32.45 13.4 32.175 12.7125 31.4875C12.025 30.8 11.6125 30.1125 11.3375 29.425C11.0625 28.7375 10.7875 27.9125 10.7875 26.675V17.325C10.925 16.0875 11.0625 15.2625 11.3375 14.575C11.75 13.75 12.025 13.2 12.7125 12.5125C13.4 11.825 14.0875 11.4125 14.775 11.1375C15.4625 10.8625 16.2875 10.5875 17.525 10.5875Z" fill="url(#paint2_linear_4124_7468)"/>
<defs>
<linearGradient id="paint0_linear_4124_7468" x1="0.199997" y1="22" x2="44.2" y2="22" gradientUnits="userSpaceOnUse">
<stop stop-color="#00C6FF"/>
<stop offset="1" stop-color="#0072FF"/>
</linearGradient>
<linearGradient id="paint1_linear_4124_7468" x1="0.199997" y1="22" x2="44.2" y2="22" gradientUnits="userSpaceOnUse">
<stop stop-color="#00C6FF"/>
<stop offset="1" stop-color="#0072FF"/>
</linearGradient>
<linearGradient id="paint2_linear_4124_7468" x1="0.199997" y1="22" x2="44.2" y2="22" gradientUnits="userSpaceOnUse">
<stop stop-color="#00C6FF"/>
<stop offset="1" stop-color="#0072FF"/>
</linearGradient>
</defs>
</svg>
