<svg width="65" height="64" viewBox="0 0 65 64" fill="none" xmlns="http://www.w3.org/2000/svg">
<rect x="1.5" y="1" width="62" height="62" rx="15" fill="white"/>
<path d="M23.18 35.22L24.5653 32.2827C24.6028 32.1987 24.6638 32.1274 24.7409 32.0773C24.8181 32.0273 24.908 32.0007 25 32.0007C25.0919 32.0007 25.1819 32.0273 25.259 32.0773C25.3362 32.1274 25.3972 32.1987 25.4346 32.2827L26.8213 35.22L29.9186 35.6947C30.316 35.7547 30.4733 36.2667 30.1853 36.56L27.9453 38.844L28.4733 42.072C28.5413 42.4867 28.1266 42.8027 27.7706 42.6067L25 41.0827L22.2293 42.6067C21.8733 42.8027 21.4586 42.4867 21.5266 42.0733L22.0546 38.844L19.8146 36.56C19.5253 36.2667 19.684 35.7547 20.0813 35.6933L23.18 35.22ZM39.18 35.22L40.5653 32.2827C40.6028 32.1987 40.6638 32.1274 40.7409 32.0773C40.8181 32.0273 40.908 32.0007 41 32.0007C41.0919 32.0007 41.1819 32.0273 41.259 32.0773C41.3362 32.1274 41.3972 32.1987 41.4346 32.2827L42.8213 35.22L45.9186 35.6947C46.316 35.7547 46.4733 36.2667 46.1853 36.56L43.9453 38.844L44.4733 42.072C44.5413 42.4867 44.1266 42.8027 43.7706 42.6067L41 41.0827L38.2293 42.6067C37.8733 42.8027 37.4586 42.4867 37.5266 42.0733L38.0546 38.844L35.8146 36.56C35.5266 36.2667 35.684 35.7547 36.0813 35.6933L39.18 35.22ZM31.18 23.22L32.5653 20.2827C32.6028 20.1987 32.6638 20.1274 32.7409 20.0773C32.8181 20.0273 32.908 20.0007 33 20.0007C33.0919 20.0007 33.1819 20.0273 33.259 20.0773C33.3362 20.1274 33.3972 20.1987 33.4346 20.2827L34.8213 23.22L37.9186 23.6947C38.316 23.7547 38.4733 24.2667 38.1853 24.56L35.9453 26.844L36.4733 30.072C36.5413 30.4867 36.1266 30.8027 35.7706 30.6067L33 29.0827L30.2293 30.6067C29.8733 30.8027 29.4586 30.4867 29.5266 30.0733L30.0546 26.844L27.8146 24.56C27.5253 24.2667 27.684 23.7547 28.0813 23.6933L31.18 23.22Z" stroke="#6B7280" stroke-width="2" stroke-linecap="round" stroke-linejoin="round"/>
<rect x="1.5" y="1" width="62" height="62" rx="15" stroke="#D1D5DB" stroke-width="2"/>
</svg>
