<svg width="45" height="44" viewBox="0 0 45 44" fill="none" xmlns="http://www.w3.org/2000/svg">
<circle cx="22.7665" cy="22" r="21.0833" fill="url(#paint0_linear_4124_7471)"/>
<path d="M21.4399 36.6201C21.296 36.6177 21.1563 36.5718 21.039 36.4885C20.9217 36.4053 20.8323 36.2885 20.7826 36.1535L20.1254 34.373C19.8073 34.3379 19.4986 34.2965 19.1993 34.2488C19.5036 35.094 19.8783 36.1337 19.9841 36.4118C20.0196 36.5044 19.9841 36.6201 19.8125 36.6201H18.8004C18.8004 36.6201 18.4941 37.2951 19.3262 37.2708C21.6265 37.2018 21.3761 39.0453 22.1004 38.695C22.7971 38.3611 21.4708 37.2688 21.4911 37.2708C24.1392 37.6046 23.2933 36.6175 23.2933 36.6175C23.2933 36.6175 21.9453 36.6201 21.4399 36.6201Z" fill="white"/>
<path d="M26.4083 35.7132C26.3434 35.7141 26.2798 35.6948 26.2262 35.658C26.1724 35.6219 26.1307 35.5704 26.1066 35.5101C25.985 35.2052 25.7563 34.5565 25.5946 34.1089C25.3232 34.1746 25.0386 34.2344 24.7488 34.2844C24.9236 34.7674 25.1661 35.4365 25.1865 35.5009C25.2345 35.6488 25.1996 35.7047 24.9381 35.7047H23.9522C23.9522 35.7047 23.6683 36.3389 24.756 36.3389C26.9748 36.3389 26.5128 38.2041 27.3666 37.7263C27.9114 37.4214 26.8993 36.5617 26.8178 36.4592C26.7711 36.4013 26.8086 36.3198 26.9288 36.3376C29.1957 36.684 28.6377 35.7047 28.6377 35.7047C28.6377 35.7047 27.0734 35.7132 26.4083 35.7132Z" fill="white"/>
<path fill-rule="evenodd" clip-rule="evenodd" d="M23.3701 8.21348C23.3751 8.2137 23.38 8.21206 23.3839 8.20888C23.3861 8.20738 23.3879 8.20543 23.3893 8.20317C23.3906 8.2009 23.3915 8.19836 23.3918 8.19573C23.3937 8.1911 23.3937 8.18591 23.3918 8.18127C23.3907 8.17902 23.3891 8.17702 23.3872 8.17543C23.3853 8.17384 23.383 8.1727 23.3806 8.17207L23.3419 8.15405C22.8526 7.92635 22.3693 7.7015 22.4782 7.3032C22.5314 7.10603 22.7003 7.02716 22.9153 7.02716C23.2454 7.05195 23.5664 7.14743 23.8564 7.30715C23.8598 7.30847 23.8636 7.30847 23.8669 7.30715C23.8711 7.30739 23.8753 7.30623 23.8788 7.30386C23.8821 7.30119 23.8848 7.29783 23.8867 7.294C23.888 7.28994 23.888 7.28557 23.8867 7.28151C23.886 7.27741 23.8839 7.27367 23.8807 7.271L23.8665 7.25639C23.5065 6.88742 23.1274 6.49889 23.4654 6.11228C23.5041 6.07309 23.5509 6.04284 23.6026 6.02365C23.6543 6.00446 23.7095 5.9968 23.7644 6.00121C24.4604 6.00121 25.8314 7.16387 25.5666 8.85429L25.5344 8.84772L25.4903 8.83851L25.4581 8.83194L25.4121 8.82274L25.3313 8.80828H25.3056L25.232 8.79645H25.2176L25.1565 8.78725H25.1295L25.0815 8.78068H24.977L24.9317 8.77542H24.8291L24.77 8.7695H23.8025L23.6599 8.77608H23.6501L23.5186 8.78528H23.5042L23.3819 8.79514H23.3622L23.2432 8.80762H23.2294L23.1105 8.82208H23.1019L22.9803 8.8372L22.8134 8.86217L22.6432 8.89175L22.5978 8.90095C22.497 8.91874 22.4048 8.93866 22.3072 8.95976L22.3071 8.95977L22.3071 8.95977L22.2751 8.96668L22.2206 8.98048L22.1969 8.98574C22.3257 8.30023 22.8863 8.24043 23.3701 8.21348ZM13.0067 25.4726C13.4635 24.4086 14.0078 23.3844 14.634 22.4105C15.3649 21.2741 15.7914 20.887 15.938 20.8068C15.9464 20.8009 15.9557 20.7964 15.9656 20.7937C16.145 20.8022 16.3777 21.006 16.5801 21.33C16.5839 21.3367 16.588 21.3433 16.5921 21.3497L16.5922 21.3497C16.5933 21.3515 16.5945 21.3533 16.5956 21.3551C16.5975 21.3582 16.5994 21.3612 16.6012 21.3642C17.1999 22.3592 17.4293 24.1246 16.776 25.3556C16.6534 25.5896 16.5041 25.8086 16.331 26.0082C15.9078 26.4818 15.3718 26.8408 14.7727 27.0519C14.6373 27.1019 14.5098 27.14 14.4027 27.1689C13.5365 27.397 12.8253 27.3004 12.5749 27.161C12.5539 27.1032 12.4803 26.7358 13.0067 25.4726ZM31.4627 25.3904C31.3885 26.2554 31.2365 27.112 31.0085 27.9497C30.9428 28.1778 30.8771 28.3999 30.8015 28.6175C30.4741 29.59 29.9607 30.4896 29.2898 31.2662C28.5493 32.0882 27.6242 32.7228 26.5905 33.1176C25.3839 33.5908 23.93 33.8307 22.2659 33.8307C21.4684 33.8332 20.6715 33.7849 19.8801 33.6861C19.5666 33.646 19.2571 33.5987 18.9541 33.5428C17.8347 33.3429 16.7452 33.0014 15.7119 32.5267C14.3041 31.8695 13.1053 30.9546 12.3357 29.9451C11.6259 29.0151 11.5792 28.4249 11.6055 28.3283C11.6646 28.1193 11.7882 27.9576 12.7695 27.9576H13.2992C14.0281 27.9576 14.5821 27.8584 15.035 27.6461C16.0271 27.294 16.8535 26.5866 17.3544 25.6606C18.143 24.1706 17.8447 22.1634 17.1631 21.0296C17.0187 20.7787 16.8278 20.5577 16.6005 20.3783C16.6163 19.7474 16.6419 19.0698 16.6886 18.3461C16.8858 15.242 17.7402 12.8911 19.2249 11.3511C19.9345 10.6168 20.8089 10.0621 21.7756 9.73302C22.197 9.58861 22.6312 9.48495 23.0723 9.42346C23.4151 9.37551 23.7607 9.35113 24.1068 9.3505C24.7425 9.34594 25.375 9.43972 25.9819 9.62852C26.7931 9.88869 27.5339 10.3311 28.1475 10.922C29.7499 12.4428 30.7804 15.0389 31.2123 18.6393C31.2826 19.2268 31.3536 19.869 31.4094 20.5453C31.5428 22.0701 31.6105 23.7677 31.4627 25.3904ZM33.5717 25.1755C33.5699 25.2954 33.5603 25.4151 33.5428 25.5337C33.5269 25.6461 33.5049 25.7575 33.4771 25.8676C33.4136 26.128 33.3079 26.3762 33.1643 26.6024C33.1078 26.6906 33.0454 26.7749 32.9776 26.8548C32.9447 26.894 32.9094 26.9311 32.8718 26.9658C32.8412 26.9937 32.8092 27.0271 32.7789 27.0587L32.7788 27.0587L32.7607 27.0776C32.738 27.1012 32.7133 27.1215 32.689 27.1416L32.689 27.1416C32.6754 27.1528 32.6619 27.1639 32.649 27.1755C32.5324 27.2676 32.4087 27.3502 32.279 27.4226C32.1955 27.4693 32.1094 27.5113 32.0239 27.5495C31.9385 27.5876 31.8504 27.6218 31.761 27.6513C31.7811 27.5694 31.7996 27.4867 31.8181 27.4042L31.8181 27.4041L31.8181 27.404L31.8333 27.3359C31.8899 27.0703 31.9392 26.8017 31.9812 26.5301L31.988 26.4859L31.988 26.4857C31.9951 26.4393 32.0022 26.3929 32.0082 26.3461C32.0312 26.1903 32.0515 26.0326 32.0706 25.8742C32.0824 25.7631 32.0936 25.652 32.1048 25.5409C32.116 25.4299 32.1258 25.3181 32.1337 25.2071C32.1468 25.0401 32.158 24.8732 32.1685 24.7062L32.1727 24.6196L32.1727 24.6193C32.1767 24.5368 32.1807 24.4546 32.1837 24.3724C32.1876 24.2613 32.1915 24.1496 32.1942 24.0385V22.8686C32.1942 22.7575 32.1942 22.6465 32.185 22.5347C32.1791 22.4632 32.1775 22.3922 32.1759 22.321V22.321V22.321V22.3209L32.1759 22.3208L32.1759 22.3206C32.175 22.2808 32.1741 22.2409 32.1725 22.2008L32.1692 22.1207C32.1659 22.0361 32.1625 21.9519 32.158 21.867C32.1429 21.5646 32.1225 21.2643 32.1002 20.9672H32.1114C32.1206 20.9738 32.129 20.9816 32.1363 20.9902C32.2191 21.0875 32.3002 21.1922 32.3795 21.3044C32.4393 21.3885 32.4972 21.4766 32.555 21.5673L32.6115 21.6606C32.739 21.8762 32.8535 22.0992 32.9546 22.3284C33.0059 22.4394 33.0545 22.5617 33.1005 22.6819C33.1693 22.8629 33.2315 23.0485 33.2872 23.2386C33.3417 23.4253 33.391 23.6159 33.4311 23.8071C33.4856 24.0644 33.5264 24.3244 33.5533 24.586C33.5612 24.6517 33.5665 24.7174 33.5698 24.7831L33.5701 24.801C33.5726 24.9352 33.5749 25.0572 33.5717 25.1755ZM23.2051 16.5737C23.1382 16.6456 23.0514 16.6959 22.9559 16.7184C22.8925 16.7335 22.8268 16.7359 22.7625 16.7255C22.6981 16.7151 22.6365 16.6921 22.5811 16.6578C22.5256 16.6236 22.4775 16.5788 22.4394 16.5259C22.4013 16.473 22.3741 16.4132 22.3591 16.3497C22.3365 16.2542 22.3428 16.1541 22.3771 16.0622C22.4113 15.9702 22.4721 15.8904 22.5517 15.833C22.6314 15.7756 22.7262 15.7431 22.8243 15.7396C22.9224 15.7361 23.0193 15.7617 23.1028 15.8133C23.1863 15.8649 23.2527 15.9401 23.2934 16.0294C23.3342 16.1187 23.3476 16.2181 23.3318 16.315C23.3161 16.4119 23.272 16.5019 23.2051 16.5737ZM28.3441 16.6529C28.4275 16.6012 28.4937 16.526 28.5344 16.4367C28.575 16.3474 28.5883 16.248 28.5725 16.1512C28.5567 16.0544 28.5125 15.9644 28.4456 15.8926C28.3787 15.8209 28.292 15.7706 28.1965 15.7481C28.101 15.7256 28.001 15.7319 27.9091 15.7662C27.8172 15.8006 27.7375 15.8614 27.6802 15.941C27.6228 16.0206 27.5903 16.1154 27.5868 16.2135C27.5834 16.3115 27.609 16.4084 27.6606 16.4919C27.6949 16.5473 27.7397 16.5955 27.7926 16.6337C27.8456 16.6718 27.9055 16.6991 27.969 16.7141C28.0324 16.729 28.0983 16.7313 28.1626 16.7208C28.227 16.7103 28.2887 16.6872 28.3441 16.6529ZM25.657 17.447L26.9137 17.9675C26.9531 17.9796 26.9883 18.0024 27.0155 18.0333C27.0355 18.0572 27.05 18.0852 27.058 18.1154C27.0659 18.1455 27.0672 18.1771 27.0617 18.2078C27.0562 18.2385 27.044 18.2676 27.0261 18.2931C27.0081 18.3185 26.9848 18.3398 26.9577 18.3553L25.6807 19.1821C25.6351 19.2149 25.5797 19.2313 25.5236 19.2288C25.4671 19.2314 25.4113 19.215 25.3652 19.1821L24.0902 18.3553C24.0543 18.3343 24.0251 18.3035 24.006 18.2666C23.9874 18.2292 23.98 18.1871 23.985 18.1456C23.9895 18.1043 24.0062 18.0651 24.033 18.0333C24.06 18.0021 24.0953 17.9793 24.1349 17.9675L25.3941 17.447C25.4363 17.4316 25.4807 17.4236 25.5256 17.4233C25.5704 17.4234 25.6149 17.4315 25.657 17.447Z" fill="white"/>
<defs>
<linearGradient id="paint0_linear_4124_7471" x1="1.6832" y1="22" x2="43.8499" y2="22" gradientUnits="userSpaceOnUse">
<stop stop-color="#00C6FF"/>
<stop offset="1" stop-color="#0072FF"/>
</linearGradient>
</defs>
</svg>
