<svg width="64" height="64" viewBox="0 0 64 64" fill="none" xmlns="http://www.w3.org/2000/svg">
<rect x="1" y="1" width="62" height="62" rx="15" fill="white"/>
<path d="M42.7125 26.2875L35.7125 19.2875C35.522 19.1018 35.266 18.9985 35 19H23C22.4696 19 21.9609 19.2107 21.5858 19.5858C21.2107 19.9609 21 20.4696 21 21V43C21 43.5304 21.2107 44.0392 21.5858 44.4142C21.9609 44.7893 22.4696 45 23 45H41C41.5304 45 42.0391 44.7893 42.4142 44.4142C42.7893 44.0392 43 43.5304 43 43V27C43.0015 26.734 42.8982 26.478 42.7125 26.2875ZM41 43H23V21H34.5875L41 27.4125V43ZM38 30H26C25.7348 30 25.4804 30.1054 25.2929 30.2929C25.1054 30.4804 25 30.7348 25 31V40C25 40.2652 25.1054 40.5196 25.2929 40.7071C25.4804 40.8947 25.7348 41 26 41H38C38.2652 41 38.5196 40.8947 38.7071 40.7071C38.8946 40.5196 39 40.2652 39 40V31C39 30.7348 38.8946 30.4804 38.7071 30.2929C38.5196 30.1054 38.2652 30 38 30ZM37 39H35V35C35 34.7348 34.8946 34.4804 34.7071 34.2929C34.5196 34.1054 34.2652 34 34 34C33.7348 34 33.4804 34.1054 33.2929 34.2929C33.1054 34.4804 33 34.7348 33 35V39H31V35C31 34.7348 30.8946 34.4804 30.7071 34.2929C30.5196 34.1054 30.2652 34 30 34C29.7348 34 29.4804 34.1054 29.2929 34.2929C29.1054 34.4804 29 34.7348 29 35V39H27V32H37V39Z" fill="#374151"/>
<rect x="1" y="1" width="62" height="62" rx="15" stroke="#D1D5DB" stroke-width="2"/>
</svg>
