<svg width="183" height="115" viewBox="0 0 183 115" fill="none" xmlns="http://www.w3.org/2000/svg">
<path d="M20.9524 91.458L20.9032 92.3974C20.1864 92.281 19.8772 91.9743 19.8772 91.4813C19.8772 91.1174 20.2239 90.7535 20.4815 90.7535C20.6807 90.7535 20.9781 90.9418 20.95 91.458M24.1428 93.3008H21.88L21.9175 92.0314C21.9175 91.3247 21.4958 90.104 20.1864 90.104C20.0132 90.0998 19.8409 90.1278 19.6802 90.1861C19.5195 90.2445 19.3737 90.332 19.2518 90.4432C19.13 90.5544 19.0347 90.687 18.9718 90.8328C18.909 90.9786 18.8799 91.1345 18.8863 91.2909C18.8863 91.9595 19.4673 92.6174 20.8657 92.9221L20.8048 93.2987H20.1864C20.1369 93.2992 20.088 93.3088 20.0427 93.3269C19.9974 93.3451 19.9568 93.3715 19.9232 93.4044C19.8896 93.4373 19.8639 93.476 19.8475 93.5182C19.8311 93.5605 19.8245 93.6053 19.828 93.6499C19.828 94.0625 21.039 95.1309 21.4232 95.1309C21.6949 95.1309 21.7699 94.9193 21.7933 94.2973H24.1358L24.1428 93.3008ZM23.4986 91.0836L22.8802 90.0955H22.3251L22.9435 91.0836H23.4986Z" fill="#3A52A3"/>
<path d="M25.1336 96.3876V91.0878H26.6305L26.0121 90.1019H22.5101L23.1309 91.0878H24.0327V95.645L25.1336 96.3876Z" fill="#3A52A3"/>
<path d="M27.9797 96.3876V91.0878H29.4765L28.8558 90.1019H25.3538L25.9746 91.0878H26.8788V95.645L27.9797 96.3876Z" fill="#3A52A3"/>
<path d="M28.8066 91.0899H30.7133V92.7084C30.7133 92.8396 30.6641 92.92 30.5775 92.92C30.3666 92.92 30.0692 92.628 29.7482 92.628C29.6504 92.6492 29.5627 92.6983 29.4981 92.7681C29.4336 92.8378 29.3956 92.9244 29.3898 93.0152C29.3898 93.2035 29.6241 93.5081 30.0574 94.0244L32.1352 96.4574L32.5803 96.0449C31.7393 95.2219 31.2451 94.7056 30.9733 94.3058C31.4043 94.0138 31.7768 93.6012 31.7768 93.1548V91.0899H33.8663L33.2478 90.1019H28.1882L28.8066 91.0899Z" fill="#3A52A3"/>
<path d="M37.1457 91.0899V92.0166H35.506C34.3348 92.0166 33.7983 92.6513 33.7983 93.25C33.7983 93.9778 34.2176 94.6591 35.438 96.303L35.9065 95.9729C35.2881 95.2811 34.8665 94.5639 34.8665 94.0371C34.8665 93.4383 35.1007 93.0025 35.9182 93.0025H37.1668V95.645L38.2794 96.3876V91.0984H39.5326L38.9142 90.1103H32.6037L33.2221 91.0984L37.1457 91.0899Z" fill="#3A52A3"/>
<path d="M42.3647 91.0899L41.7463 90.1019H40.5352C40.3361 88.2697 39.3968 87.4361 38.2677 87.4361C37.3893 87.4361 36.71 88.0116 36.71 88.659C36.737 88.9908 36.8844 89.3054 37.1293 89.5539L37.7992 89.4841C37.7797 89.3594 37.7711 89.2334 37.7735 89.1075C37.7725 89.0024 37.795 88.8983 37.8396 88.8013C37.8842 88.7043 37.95 88.6164 38.0331 88.5429C38.1162 88.4694 38.2149 88.4119 38.3233 88.3736C38.4316 88.3354 38.5473 88.3173 38.6636 88.3204C39.3663 88.3204 39.9894 89.0377 40.0152 90.0934H38.2677L38.8861 91.0814H39.7669V95.6365L40.8678 96.3791V91.0899H42.3647Z" fill="#3A52A3"/>
<path d="M46.2976 91.0899V93.2839C45.8034 93.707 44.7165 94.1661 44.2573 94.1661C43.6647 94.1661 43.4422 93.9419 43.4422 93.6245C43.4422 93.3791 43.6015 93.25 43.9481 93.1675C44.7399 92.9792 44.9507 92.8396 44.9507 92.6153C44.9507 92.3911 44.679 91.7225 44.3932 91.0899H46.2976ZM46.3234 94.5639L46.2625 95.645L47.4337 96.3876V91.0984H48.6682L48.0498 90.1103H41.1255L41.7439 91.0984H43.6881C43.8391 91.3097 43.9285 91.552 43.9481 91.8029C43.931 91.8701 43.8978 91.9332 43.8509 91.9876C43.8039 92.0421 43.7444 92.0866 43.6764 92.1181C43.2505 92.3073 42.8027 92.4535 42.3412 92.554C42.6504 94.0561 43.6764 95.114 44.7516 95.114C45.3215 95.0616 45.8652 94.8715 46.3257 94.5639H46.3234Z" fill="#3A52A3"/>
<path d="M54.3017 91.0899H55.1052V95.645L56.2061 96.3876V91.0984H57.703L57.0846 90.1103H55.8595C55.8341 89.9905 55.8262 89.8681 55.836 89.7464C55.836 88.9954 56.2436 88.477 57.0846 88.477C57.963 88.477 59.5957 89.1117 60.4132 89.8036L60.6474 89.4164C59.9447 88.7351 57.6795 87.5377 56.602 87.5377C55.5643 87.5377 54.871 88.0539 54.871 88.9107C54.8836 89.333 55.0158 89.7453 55.2551 90.1082H53.681L54.3017 91.0899Z" fill="#3A52A3"/>
<path d="M59.3614 94.42C59.2732 94.4191 59.1862 94.4014 59.106 94.3681C59.0258 94.3349 58.9542 94.2867 58.8959 94.2269C58.8376 94.1671 58.7939 94.0968 58.7675 94.0208C58.7412 93.9447 58.7328 93.8645 58.743 93.7853C58.7348 93.6415 58.7581 93.4977 58.8114 93.362C58.8648 93.2263 58.9472 93.1015 59.0541 92.9946C59.1609 92.8877 59.2899 92.8009 59.4339 92.7391C59.5779 92.6773 59.734 92.6417 59.8932 92.6344C60.5422 92.6484 61.1627 92.8782 61.6359 93.2797V93.4214C61.0175 93.8319 59.8815 94.42 59.3614 94.42ZM61.65 94.5597V95.6408L62.7627 96.3834V91.0941H63.9878L63.3694 90.1061H56.4779L57.0963 91.0941H61.6242V92.7021C61.3404 92.3911 61.0217 92.1075 60.6732 91.8558C60.3708 91.7156 60.0338 91.6472 59.6941 91.6569C58.5228 91.6569 57.6796 92.372 57.6796 93.2077C57.6796 94.1344 58.8156 95.2494 59.9424 95.2494C60.4624 95.2451 60.9941 95.023 61.65 94.5639V94.5597Z" fill="#3A52A3"/>
<path d="M67.6982 91.0899V93.2733H65.7446V91.0899H67.6982ZM65.7446 94.2635H67.724L67.7099 95.6492L68.8366 96.3918V91.1026H70.0734L69.455 90.1146H62.7486L63.3693 91.1026H64.5968V93.2627H64.2384C64.1991 93.2604 64.1597 93.2654 64.1226 93.2773C64.0855 93.2891 64.0514 93.3077 64.0225 93.3319C63.9936 93.356 63.9704 93.3852 63.9543 93.4177C63.9383 93.4502 63.9297 93.4853 63.9292 93.5208C63.9292 93.944 65.0793 95.059 65.412 95.059C65.6111 95.059 65.7352 94.9659 65.7352 94.8008L65.7446 94.2635Z" fill="#3A52A3"/>
<path d="M71.4578 96.3876V91.0878H72.9546L72.3362 90.1019H68.8343L69.455 91.0878H70.3569V95.645L71.4578 96.3876Z" fill="#3A52A3"/>
<path d="M76.2083 93.1781V95.645L77.3209 96.3876V91.0984H78.5601L77.9487 90.1019H71.6429L72.2613 91.0899H76.1849V92.1922H73.1912C73.1043 92.2017 73.0241 92.2389 72.9648 92.297C72.9056 92.3552 72.8712 92.4306 72.868 92.5095C72.868 92.9792 73.8049 94.0942 74.1188 94.0942C74.3648 94.0942 74.5006 94.0011 74.5006 93.8255V93.4024C74.4964 93.3731 74.4994 93.3433 74.5095 93.3152C74.5195 93.2872 74.5364 93.2614 74.5588 93.24C74.5812 93.2185 74.6087 93.2018 74.6391 93.1911C74.6696 93.1804 74.7023 93.176 74.7349 93.1781H76.2083Z" fill="#3A52A3"/>
<path d="M79.9445 91.0899H81.8489V93.0617C81.2937 93.6732 80.6261 94.0138 80.3029 94.0138C80.0803 94.0138 79.9445 93.8953 79.9445 93.6372V91.0899ZM84.3483 91.0899L83.7298 90.1019H77.3069L77.9253 91.0899H78.806V93.2056C78.806 94.0625 80.1553 94.8262 80.762 94.8262C81.1831 94.7947 81.5778 94.6281 81.8746 94.3565L81.8629 95.6365L82.9873 96.3792V91.0899H84.3483Z" fill="#3A52A3"/>
<path d="M88.307 91.0899L87.6886 90.1019H82.9733L83.5917 91.0899H88.307ZM84.7933 92.994H85.66C85.6062 93.1778 85.5771 93.3667 85.5734 93.5568C85.5734 94.2846 86.241 95.2938 87.0561 96.1633L87.4403 95.8693C86.8336 95.1542 86.5619 94.6612 86.5619 94.145C86.5619 93.5801 87.007 92.994 87.527 92.994H89.3213L89.6305 92.006H84.1749L84.7933 92.994Z" fill="#3A52A3"/>
<path d="M90.0638 96.3876V91.0878H91.5607L90.9423 90.1019H87.438L88.0587 91.0878H88.9629V95.645L90.0638 96.3876Z" fill="#3A52A3"/>
<path d="M94.8143 93.1781V95.645L95.927 96.3876V91.0984H97.1568L96.5384 90.1103H90.2466L90.865 91.0984H94.7886V92.2006H91.7949C91.7085 92.2106 91.6287 92.248 91.57 92.3061C91.5112 92.3642 91.4772 92.4393 91.474 92.518C91.474 92.9877 92.411 94.1027 92.7225 94.1027C92.9708 94.1027 93.1067 94.0096 93.1067 93.834V93.4108C93.102 93.3815 93.1047 93.3516 93.1146 93.3233C93.1244 93.295 93.1413 93.2691 93.1638 93.2476C93.1863 93.226 93.214 93.2093 93.2446 93.1988C93.2753 93.1882 93.3082 93.184 93.3409 93.1866L94.8143 93.1781Z" fill="#3A52A3"/>
<path d="M104.735 91.0899H106.639V93.0617C106.081 93.6732 105.414 94.0138 105.093 94.0138C104.87 94.0138 104.735 93.8953 104.735 93.6372V91.0899ZM109.138 91.0899L108.518 90.1019H102.097L102.715 91.0899H103.596V93.2056C103.596 94.0625 104.943 94.8262 105.55 94.8262C105.971 94.7951 106.366 94.6284 106.662 94.3565L106.651 95.6365L107.777 96.3792V91.0899H109.138Z" fill="#3A52A3"/>
<path d="M107.365 94.4475C107.365 94.4475 107.379 94.2465 107.379 93.743L103.755 95.8587L104.657 96.5548L107.365 94.4475Z" fill="#3A52A3"/>
<path d="M110.523 96.3876V91.0878H112.02L111.401 90.1019H107.899L108.518 91.0878H109.422V95.645L110.523 96.3876Z" fill="#3A52A3"/>
<path d="M111.425 91.0899H112.23V95.645L113.331 96.3876V91.0984H114.828L114.21 90.1103H112.985C112.957 89.9907 112.949 89.8682 112.959 89.7464C112.959 88.9954 113.369 88.477 114.21 88.477C115.088 88.477 116.721 89.1117 117.536 89.8036L117.77 89.4164C117.068 88.7351 114.8 87.5377 113.725 87.5377C112.65 87.5377 111.991 88.0539 111.991 88.9107C112.004 89.333 112.136 89.7453 112.376 90.1082H110.804L111.425 91.0899Z" fill="#3A52A3"/>
<path d="M115.915 91.769C115.833 91.6541 115.795 91.5183 115.805 91.3819C115.798 91.2207 115.862 91.0636 115.982 90.9447C116.103 90.8259 116.271 90.7549 116.449 90.7472C116.526 90.7458 116.602 90.758 116.673 90.7832C116.744 90.8084 116.809 90.8461 116.864 90.8941C116.919 90.942 116.963 90.9994 116.994 91.0627C117.024 91.1261 117.041 91.1943 117.042 91.2634C117.038 91.3431 117.017 91.4213 116.98 91.4935C116.942 91.5658 116.889 91.6306 116.824 91.6841C116.758 91.7377 116.682 91.779 116.599 91.8055C116.515 91.8321 116.427 91.8434 116.339 91.8389C116.194 91.8426 116.051 91.8181 115.917 91.7669M119.22 94.5618V93.305C118.48 94.0117 117.452 94.5385 116.81 94.5385C116.018 94.5385 115.807 94.3269 115.807 94.1048C115.807 93.834 116.166 93.4108 117.501 93.4108C117.7 93.4108 117.934 93.4362 118.084 93.4468L117.501 92.4715C117.414 92.4715 117.168 92.4249 116.946 92.4249C116.77 92.4266 116.595 92.4067 116.426 92.3657C116.278 92.3191 116.191 92.2493 116.191 92.1668C116.957 92.2366 117.597 91.8029 117.597 91.2401C117.597 90.4996 116.854 90.0892 116.25 90.0892C116.068 90.0788 115.886 90.102 115.715 90.1574C115.543 90.2128 115.386 90.2991 115.253 90.4112C115.119 90.5233 115.013 90.6587 114.939 90.8092C114.866 90.9597 114.827 91.1222 114.826 91.2867C114.826 91.8621 115.421 92.4376 116.126 92.6026V92.6259C115.297 92.8248 115.013 93.2119 115.013 93.6838C115.013 94.401 116.002 95.4334 117.14 95.4334C117.845 95.4334 118.686 95.023 119.218 94.5639L119.22 94.5618Z" fill="#3A52A3"/>
<path d="M120.284 96.3876V91.0878H121.781L121.16 90.1019H117.658L118.279 91.0878H119.18V95.645L120.284 96.3876Z" fill="#3A52A3"/>
<path d="M125.243 93.5314C124.933 93.779 123.584 94.5406 123.226 94.5406C122.992 94.5406 122.757 94.2952 122.757 93.8953C122.757 93.3431 123.301 92.7803 123.893 92.7803C124.165 92.8089 124.427 92.8909 124.66 93.0207C124.893 93.1505 125.092 93.3248 125.243 93.5314ZM129.459 90.1019H120.478L121.097 91.0899H125.231V92.939H125.205C124.908 92.3868 124.673 92.152 124.451 92.0102C124.162 91.8721 123.841 91.7995 123.514 91.7987C123.275 91.7906 123.037 91.8264 122.815 91.9038C122.592 91.9811 122.389 92.0985 122.217 92.2488C122.046 92.3991 121.91 92.5792 121.818 92.7782C121.726 92.9772 121.68 93.191 121.682 93.4066C121.682 94.2867 122.907 95.2959 123.936 95.2959C124.424 95.2456 124.883 95.0567 125.245 94.7564L125.233 95.791L126.36 96.5315V94.1429C126.62 93.8594 127.632 93.25 127.967 93.25C128.068 93.2588 128.161 93.3008 128.23 93.3679C128.299 93.435 128.338 93.5226 128.339 93.6139C128.339 93.9186 127.892 94.8707 127.51 95.48L128.548 96.2078C128.925 95.636 129.15 94.9928 129.204 94.329C129.204 93.2373 128.389 92.3572 127.564 92.3572C127.122 92.4125 126.706 92.5797 126.365 92.8396V91.0899H130.068L129.459 90.1019Z" fill="#3A52A3"/>
<path d="M129.433 91.0899H131.34V92.7084C131.34 92.8396 131.291 92.92 131.204 92.92C130.996 92.92 130.698 92.628 130.377 92.628C130.279 92.6488 130.191 92.6978 130.126 92.7675C130.061 92.8373 130.022 92.9242 130.017 93.0152C130.017 93.2035 130.251 93.5081 130.686 94.0244L132.764 96.4574L133.209 96.0449C132.62 95.5071 132.081 94.9253 131.6 94.3058C132.033 94.0138 132.406 93.6012 132.406 93.1548V91.0899H134.495L133.877 90.1019H128.815L129.433 91.0899Z" fill="#3A52A3"/>
<path d="M135.868 91.0899H137.327V93.3431C137.327 93.9186 136.92 94.2359 136.463 94.2359C136.384 94.2396 136.304 94.2282 136.23 94.2023C136.156 94.1765 136.088 94.1368 136.032 94.0859C135.976 94.0351 135.933 93.9741 135.904 93.907C135.876 93.8399 135.864 93.7681 135.868 93.6964V91.0899ZM139.185 90.1019H133.23L133.849 91.0899H134.727V93.2056C134.727 94.073 136.287 95.1774 137.07 95.1774C137.852 95.1774 138.454 94.6147 138.454 94.0498V91.0878H139.792L139.185 90.1019Z" fill="#3A52A3"/>
<path d="M141.188 96.3876V91.0878H142.684L142.066 90.1019H138.564L139.185 91.0878H140.087V95.645L141.188 96.3876Z" fill="#3A52A3"/>
<path d="M21.8495 102.536L21.0789 100.488L20.3246 102.536H21.8495ZM23.9296 104.719H22.6998L22.2126 103.465H19.9756L19.5071 104.719H18.3171L20.4956 99.2015H21.6903L23.9296 104.719Z" fill="#3A52A3"/>
<path d="M24.4941 99.2015H25.6232V104.719H24.4941V99.2015Z" fill="#3A52A3"/>
<path d="M27.8321 101.533H28.666C29.0066 101.55 29.3482 101.528 29.6827 101.467C29.8147 101.424 29.9263 101.341 29.9989 101.233C30.079 101.107 30.1188 100.965 30.1137 100.82C30.1219 100.658 30.0681 100.499 29.9614 100.369C29.8547 100.253 29.7032 100.177 29.5374 100.158C29.4461 100.145 29.1697 100.139 28.7129 100.139H27.8321V101.533ZM26.7031 104.719V99.2015H29.0806C29.5203 99.1809 29.9605 99.2311 30.3807 99.3496C30.6585 99.4532 30.8885 99.6399 31.0319 99.8785C31.1949 100.144 31.2759 100.444 31.2661 100.748C31.2813 101.119 31.1502 101.483 30.896 101.774C30.6108 102.062 30.2163 102.244 29.7904 102.282C30.0165 102.409 30.2202 102.566 30.3948 102.747C30.6369 103.028 30.8516 103.328 31.0366 103.642L31.7206 104.719H30.3807L29.5632 103.518C29.384 103.236 29.1852 102.966 28.9682 102.707C28.8779 102.606 28.7612 102.527 28.6286 102.477C28.4438 102.428 28.2515 102.407 28.0593 102.415H27.8251V104.719H26.7031Z" fill="#3A52A3"/>
<path d="M33.4704 100.132V101.698H34.0864C34.388 101.714 34.6904 101.685 34.9813 101.611C35.1272 101.557 35.2502 101.462 35.3326 101.34C35.4184 101.213 35.463 101.066 35.4615 100.917C35.4688 100.737 35.4049 100.561 35.2811 100.42C35.1668 100.293 35.0067 100.207 34.829 100.177C34.5597 100.144 34.2878 100.131 34.0162 100.139L33.4704 100.132ZM32.3413 104.719V99.2015H34.145C34.5944 99.1838 35.0446 99.2115 35.4872 99.284C35.8178 99.3725 36.1031 99.5636 36.293 99.8235C36.5235 100.142 36.6374 100.518 36.6186 100.898C36.6271 101.189 36.563 101.479 36.4312 101.745C36.3234 101.956 36.1631 102.142 35.9627 102.288C35.7899 102.411 35.5904 102.5 35.3771 102.549C34.9907 102.611 34.5983 102.638 34.2059 102.629H33.4704V104.711L32.3413 104.719Z" fill="#3A52A3"/>
<path d="M38.4856 101.956C38.4856 102.58 38.6331 103.054 38.9236 103.378C39.0552 103.531 39.2245 103.654 39.4181 103.738C39.6116 103.822 39.8241 103.864 40.0386 103.86C40.2521 103.864 40.4636 103.823 40.656 103.74C40.8485 103.656 41.0166 103.533 41.1466 103.38C41.4355 103.06 41.5799 102.58 41.5799 101.941C41.5799 101.302 41.4394 100.831 41.1583 100.526C41.0202 100.378 40.8482 100.26 40.6542 100.179C40.4602 100.097 40.2489 100.055 40.0351 100.055C39.8213 100.055 39.61 100.097 39.416 100.179C39.222 100.26 39.05 100.378 38.9119 100.526C38.6292 100.842 38.4871 101.316 38.4856 101.95M37.3143 101.988C37.2988 101.506 37.3854 101.025 37.5697 100.572C37.6938 100.295 37.8696 100.039 38.0897 99.815C38.2898 99.6069 38.5355 99.4383 38.8112 99.32C39.1911 99.17 39.6031 99.0977 40.0175 99.1084C40.3889 99.0946 40.7591 99.1554 41.1014 99.2863C41.4437 99.4173 41.7495 99.6152 41.9969 99.8658C42.4904 100.369 42.7371 101.07 42.7371 101.969C42.7371 102.867 42.4919 103.565 42.0016 104.061C41.7445 104.299 41.4372 104.489 41.0979 104.618C40.7586 104.747 40.394 104.814 40.0257 104.814C39.6575 104.814 39.2929 104.747 38.9536 104.618C38.6142 104.489 38.307 104.299 38.0499 104.061C37.5642 103.558 37.3222 102.869 37.3237 101.994L37.3143 101.988Z" fill="#3A52A3"/>
<path d="M44.761 101.533H45.5972C45.937 101.55 46.2778 101.528 46.6115 101.467C46.7436 101.424 46.8552 101.341 46.9277 101.233C47.0079 101.107 47.0476 100.964 47.0425 100.82C47.0502 100.659 46.9974 100.5 46.8926 100.369C46.7846 100.253 46.6326 100.178 46.4663 100.158C46.3749 100.145 46.1008 100.139 45.6417 100.139H44.761V101.533ZM43.6319 104.719V99.2015H46.0095C46.4499 99.1813 46.8908 99.2314 47.3119 99.3496C47.5888 99.4545 47.8183 99.6409 47.9631 99.8785C48.1251 100.145 48.2059 100.445 48.1973 100.748C48.2125 101.119 48.0813 101.483 47.8272 101.774C47.5413 102.063 47.1459 102.244 46.7192 102.282C46.9461 102.409 47.1506 102.566 47.3259 102.747C47.5672 103.029 47.7819 103.328 47.9678 103.642L48.6494 104.719H47.3095L46.4944 103.518C46.3142 103.237 46.1156 102.966 45.8994 102.707C45.8082 102.606 45.6907 102.527 45.5574 102.477C45.3727 102.428 45.1804 102.407 44.9882 102.415H44.7539V104.719H43.6319Z" fill="#3A52A3"/>
<path d="M50.5281 104.719V100.135H48.8696V99.2015H53.3132V100.135H51.6595V104.719H50.5281Z" fill="#3A52A3"/>
<path d="M53.7559 102.923L54.8546 102.817C54.8862 103.118 55.028 103.4 55.2575 103.619C55.4823 103.798 55.7759 103.89 56.075 103.875C56.3711 103.895 56.6646 103.813 56.8972 103.647C56.9835 103.582 57.053 103.501 57.1008 103.409C57.1486 103.317 57.1734 103.217 57.1736 103.116C57.1784 102.996 57.137 102.878 57.0565 102.783C56.9489 102.671 56.8085 102.588 56.6512 102.544C56.52 102.498 56.2179 102.417 55.747 102.303C55.2794 102.216 54.8422 102.028 54.4727 101.755C54.3066 101.613 54.175 101.44 54.0863 101.25C53.9976 101.059 53.9537 100.853 53.9574 100.647C53.9541 100.369 54.0351 100.096 54.1916 99.8574C54.3573 99.6108 54.6025 99.4159 54.8944 99.2988C55.2408 99.1634 55.6157 99.0977 55.993 99.1063C56.6957 99.1063 57.2243 99.2579 57.5788 99.5612C57.7574 99.7198 57.899 99.9093 57.9952 100.118C58.0913 100.327 58.1401 100.551 58.1387 100.778L57.0096 100.826C56.9888 100.596 56.8784 100.379 56.6981 100.215C56.492 100.078 56.2387 100.012 55.9836 100.029C55.7091 100.014 55.4372 100.084 55.2129 100.228C55.1554 100.268 55.1092 100.32 55.0778 100.38C55.0465 100.439 55.031 100.504 55.0326 100.57C55.0311 100.634 55.0454 100.697 55.0746 100.755C55.1038 100.813 55.1471 100.864 55.2012 100.905C55.3418 101.023 55.6885 101.148 56.2389 101.275C56.6617 101.36 57.0709 101.493 57.457 101.671C57.7159 101.804 57.9297 101.998 58.0754 102.233C58.2292 102.508 58.3055 102.814 58.2978 103.122C58.29 103.43 58.1984 103.731 58.0309 104C57.8577 104.271 57.5936 104.486 57.2766 104.613C56.8921 104.762 56.4767 104.834 56.0586 104.825C55.3512 104.825 54.8085 104.664 54.4306 104.341C54.0217 103.961 53.7801 103.46 53.7513 102.931" fill="#3A52A3"/>
<path d="M64.0978 102.536L63.3272 100.488L62.5706 102.536H64.0978ZM66.1756 104.719H64.9481L64.4586 103.465H62.2239L61.7554 104.719H60.5584L62.7369 99.2015H63.9292L66.1756 104.719Z" fill="#3A52A3"/>
<path d="M66.7682 99.2015H67.8973V102.189C67.888 102.497 67.9021 102.805 67.9395 103.111C67.979 103.324 68.1011 103.517 68.2838 103.655C68.4962 103.804 68.7604 103.879 69.0287 103.867C69.289 103.884 69.5475 103.815 69.7549 103.672C69.9124 103.551 70.0164 103.383 70.0477 103.198C70.0878 102.886 70.1042 102.572 70.0969 102.259V99.2015H71.2259V102.1C71.2404 102.569 71.2098 103.038 71.1346 103.503C71.0847 103.754 70.969 103.991 70.7972 104.195C70.6215 104.391 70.3956 104.545 70.139 104.645C69.7975 104.768 69.4312 104.825 69.0638 104.812C68.6488 104.831 68.2341 104.769 67.8481 104.63C67.6053 104.529 67.3916 104.378 67.2235 104.19C67.0554 104.001 66.9373 103.781 66.8783 103.545C66.7914 103.082 66.7546 102.613 66.7682 102.144V99.2015Z" fill="#3A52A3"/>
<path d="M73.6761 104.719V100.135H72.0176V99.2015H76.4613V100.135H74.8052V104.719H73.6761Z" fill="#3A52A3"/>
<path d="M77.1921 104.719V99.2015H78.3235V101.372H80.5348V99.2015H81.6638V104.719H80.5348V102.305H78.3235V104.719H77.1921Z" fill="#3A52A3"/>
<path d="M83.765 101.956C83.765 102.58 83.9126 103.054 84.203 103.378C84.3347 103.531 84.5039 103.654 84.6975 103.738C84.891 103.822 85.1035 103.864 85.318 103.86C85.5315 103.864 85.743 103.823 85.9354 103.74C86.1279 103.656 86.296 103.533 86.426 103.38C86.7149 103.06 86.8594 102.58 86.8594 101.941C86.8594 101.302 86.7188 100.831 86.4377 100.526C86.2996 100.378 86.1276 100.26 85.9336 100.179C85.7396 100.097 85.5284 100.055 85.3145 100.055C85.1007 100.055 84.8894 100.097 84.6954 100.179C84.5014 100.26 84.3294 100.378 84.1913 100.526C83.9087 100.842 83.7665 101.316 83.765 101.95M82.5938 101.988C82.5782 101.506 82.6648 101.025 82.8491 100.572C82.9732 100.295 83.1491 100.039 83.3691 99.815C83.5692 99.6069 83.8149 99.4383 84.0906 99.32C84.4705 99.1699 84.8825 99.0977 85.2969 99.1084C85.668 99.0943 86.038 99.155 86.3799 99.286C86.7219 99.417 87.0272 99.615 87.274 99.8658C87.7706 100.369 88.0181 101.07 88.0165 101.969C88.015 102.867 87.7698 103.565 87.281 104.061C87.0239 104.299 86.7167 104.489 86.3773 104.618C86.038 104.747 85.6734 104.814 85.3051 104.814C84.9369 104.814 84.5723 104.747 84.233 104.618C83.8936 104.489 83.5864 104.299 83.3293 104.061C82.8436 103.558 82.6016 102.869 82.6031 101.994L82.5938 101.988Z" fill="#3A52A3"/>
<path d="M90.0404 101.533H90.8743C91.2149 101.55 91.5564 101.528 91.8909 101.467C92.023 101.424 92.1346 101.341 92.2072 101.233C92.2873 101.107 92.3271 100.964 92.3219 100.82C92.3297 100.659 92.2769 100.5 92.172 100.369C92.064 100.253 91.912 100.178 91.7457 100.158C91.6543 100.145 91.3803 100.139 90.9212 100.139H90.0404V101.533ZM88.9113 104.719V99.2015H91.3006C91.741 99.1813 92.1819 99.2314 92.603 99.3496C92.88 99.4545 93.1095 99.6409 93.2542 99.8785C93.4163 100.144 93.4972 100.445 93.4885 100.748C93.5043 101.119 93.374 101.482 93.1207 101.774C92.8348 102.063 92.4394 102.244 92.0127 102.282C92.2396 102.409 92.4441 102.566 92.6194 102.747C92.8607 103.029 93.0754 103.328 93.2613 103.642L93.9429 104.719H92.589L91.7691 103.518C91.5894 103.236 91.3899 102.965 91.1718 102.707C91.082 102.606 90.9651 102.526 90.8321 102.477C90.6474 102.428 90.4551 102.407 90.2629 102.415H90.0287V104.719H88.9113Z" fill="#3A52A3"/>
<path d="M94.5145 99.2015H95.6435V104.719H94.5145V99.2015Z" fill="#3A52A3"/>
<path d="M97.9789 104.719V100.135H96.3205V99.2015H100.764V100.135H99.108V104.719H97.9789Z" fill="#3A52A3"/>
<path d="M102.959 104.719V102.396L100.912 99.2015H102.235L103.552 101.383L104.842 99.2015H106.142L104.086 102.405V104.719H102.959Z" fill="#3A52A3"/>
<path d="M109.668 101.956C109.668 102.58 109.814 103.053 110.106 103.378C110.237 103.531 110.407 103.654 110.6 103.738C110.794 103.822 111.006 103.864 111.221 103.86C111.434 103.864 111.646 103.823 111.838 103.739C112.031 103.656 112.199 103.533 112.329 103.38C112.618 103.06 112.761 102.58 112.76 101.941C112.758 101.302 112.618 100.831 112.34 100.526C112.202 100.378 112.03 100.26 111.836 100.179C111.642 100.097 111.431 100.055 111.217 100.055C111.003 100.055 110.792 100.097 110.598 100.179C110.404 100.26 110.232 100.378 110.094 100.526C109.81 100.842 109.668 101.316 109.668 101.95M108.497 101.988C108.481 101.506 108.568 101.025 108.752 100.572C108.878 100.295 109.054 100.039 109.274 99.815C109.474 99.6064 109.72 99.4377 109.996 99.32C110.376 99.1699 110.788 99.0977 111.202 99.1084C111.573 99.0943 111.943 99.155 112.285 99.286C112.627 99.417 112.932 99.615 113.179 99.8658C113.674 100.369 113.922 101.07 113.922 101.969C113.922 102.867 113.676 103.565 113.184 104.061C112.927 104.299 112.619 104.489 112.28 104.618C111.941 104.747 111.576 104.814 111.208 104.814C110.84 104.814 110.475 104.747 110.136 104.618C109.796 104.489 109.489 104.299 109.232 104.061C108.748 103.558 108.505 102.869 108.504 101.994L108.497 101.988Z" fill="#3A52A3"/>
<path d="M114.816 104.719V99.2015H118.651V100.135H115.945V101.44H118.281V102.375H115.945V104.719H114.816Z" fill="#3A52A3"/>
<path d="M121.717 99.2015H122.846V104.719H121.717V99.2015Z" fill="#3A52A3"/>
<path d="M123.933 104.719V99.2015H125.032L127.32 102.885V99.2015H128.37V104.719H127.236L124.983 101.12V104.719H123.933Z" fill="#3A52A3"/>
<path d="M130.689 100.132V103.786H131.532C131.762 103.794 131.991 103.776 132.216 103.733C132.388 103.694 132.545 103.616 132.673 103.505C132.818 103.352 132.92 103.169 132.968 102.972C133.054 102.64 133.093 102.301 133.083 101.96C133.094 101.63 133.056 101.3 132.968 100.979C132.909 100.781 132.799 100.598 132.647 100.446C132.504 100.314 132.322 100.223 132.122 100.185C131.817 100.14 131.507 100.122 131.197 100.132H130.689ZM129.562 99.1994H131.626C131.984 99.1872 132.342 99.2228 132.689 99.3052C133.017 99.399 133.309 99.5751 133.53 99.8129C133.776 100.074 133.958 100.378 134.067 100.706C134.199 101.13 134.261 101.57 134.249 102.011C134.257 102.408 134.199 102.804 134.076 103.185C133.962 103.547 133.758 103.88 133.479 104.159C133.257 104.361 132.985 104.512 132.685 104.599C132.361 104.687 132.023 104.727 131.684 104.717H129.562V99.1994Z" fill="#3A52A3"/>
<path d="M135.172 99.2015H136.301V104.719H135.172V99.2015Z" fill="#3A52A3"/>
<path d="M140.342 102.536L139.571 100.488L138.815 102.536H140.342ZM142.42 104.719H141.195L140.707 103.465H138.473L138.004 104.719H136.805L138.983 99.2015H140.178L142.42 104.719Z" fill="#3A52A3"/>
<path fill-rule="evenodd" clip-rule="evenodd" d="M96.6742 76.2462C98.4638 79.1743 100.858 81.7872 103.292 84.7089H84.9339L84.9456 74.2595L96.6742 76.2462Z" fill="#3A52A3"/>
<path fill-rule="evenodd" clip-rule="evenodd" d="M138.135 80.2279L142.6 84.6878L120.024 84.7153C120.434 83.1264 120.274 81.2773 119.754 79.0685L138.135 80.2279Z" fill="#3A52A3"/>
<path fill-rule="evenodd" clip-rule="evenodd" d="M85.0018 26.1316L135.915 77.9176L119.049 76.7158C114.566 66.0019 105.397 58.2881 98.9183 58.963C93.9476 59.4856 91.9448 64.9568 95.4679 73.756L84.9573 72.0105L85.0018 26.1316Z" fill="#3A52A3"/>
<path fill-rule="evenodd" clip-rule="evenodd" d="M50.7904 66.2304C46.4358 71.0564 42.271 78.4042 43.2033 84.7195L20.7556 84.6878L41.5097 63.5456L50.7904 66.2304Z" fill="#3A52A3"/>
<path fill-rule="evenodd" clip-rule="evenodd" d="M78.3024 72.8737L78.3844 84.747L60.1133 84.7301C62.0581 82.88 63.762 80.8349 65.1918 78.6348C66.8163 76.2076 68.0521 73.5849 68.8624 70.8448C71.9638 71.5408 75.187 72.2559 78.3118 72.8737" fill="#3A52A3"/>
<path fill-rule="evenodd" clip-rule="evenodd" d="M78.3282 26.1443L78.3657 70.7242L69.4386 68.82C70.05 64.2142 69.3028 61.0427 66.3185 59.3967C63.3342 57.7507 57.5296 59.6294 52.402 64.4744L43.1704 61.7578L78.3282 26.1443Z" fill="#3A52A3"/>
<path fill-rule="evenodd" clip-rule="evenodd" d="M147.552 71.4181C153.125 77.8541 160.803 80.9959 169.419 81.6518C169.611 81.6518 169.564 81.8083 169.456 81.8083H169.358C163.542 81.8443 157.608 81.7195 151.79 81.7618C103.21 81.5142 57.5296 72.9203 14 55.4679L14.8316 54.0102C58.6353 71.2277 104.193 80.2025 152.474 80.431C150.262 78.7384 148.847 76.2588 148.058 74.1368C147.672 73.1128 147.601 72.1607 147.405 71.4414C147.379 71.3568 147.519 71.38 147.552 71.416" fill="#3A52A3"/>
<path fill-rule="evenodd" clip-rule="evenodd" d="M81.6966 8.73418C86.4237 8.73418 90.2606 12.0114 90.2606 16.0587C90.2606 20.1061 86.4143 23.3791 81.6966 23.3791C76.9789 23.3791 73.1303 20.0997 73.1303 16.0587C73.1303 12.0177 76.9555 8.73418 81.6966 8.73418Z" fill="#3A52A3"/>
</svg>
