<svg width="64" height="64" viewBox="0 0 64 64" fill="none" xmlns="http://www.w3.org/2000/svg">
<rect x="1" y="1" width="62" height="62" rx="15" fill="white"/>
<path d="M44 31.1266V25.5C43.9991 24.7046 43.6827 23.9421 43.1203 23.3797C42.5579 22.8173 41.7954 22.5009 41 22.5H23C22.2046 22.5009 21.4421 22.8173 20.8797 23.3797C20.3173 23.9421 20.0009 24.7046 20 25.5V31.1266C19.1419 31.3494 18.3819 31.8505 17.8391 32.5514C17.2962 33.2523 17.0011 34.1135 17 35V42C17.0006 42.5303 17.2115 43.0386 17.5864 43.4136C17.9614 43.7885 18.4697 43.9994 19 44H20V47H22V44H42V47H44V44H45C45.5303 43.9994 46.0386 43.7885 46.4136 43.4136C46.7885 43.0386 46.9994 42.5303 47 42V35C46.9989 34.1135 46.7038 33.2523 46.1609 32.5514C45.6181 31.8505 44.8581 31.3494 44 31.1266ZM23 42H19V35C19 34.4696 19.2107 33.9609 19.5858 33.5858C19.9609 33.2107 20.4696 33 21 33C21.5304 33 22.0391 33.2107 22.4142 33.5858C22.7893 33.9609 23 34.4696 23 35V42ZM39 42H25V36H39V42ZM39.1266 34H24.8734C24.6934 33.3087 24.3322 32.678 23.8271 32.1729C23.322 31.6678 22.6913 31.3066 22 31.1266V25.5C22.0003 25.2349 22.1058 24.9807 22.2932 24.7932C22.4807 24.6058 22.7349 24.5003 23 24.5H41C41.2651 24.5003 41.5193 24.6058 41.7068 24.7932C41.8942 24.9807 41.9997 25.2349 42 25.5V31.1266C41.3087 31.3066 40.678 31.6678 40.1729 32.1729C39.6678 32.678 39.3066 33.3087 39.1266 34ZM45 42H41V35C41 34.4696 41.2107 33.9609 41.5858 33.5858C41.9609 33.2107 42.4696 33 43 33C43.5304 33 44.0391 33.2107 44.4142 33.5858C44.7893 33.9609 45 34.4696 45 35L45.0012 42H45Z" fill="#374151"/>
<rect x="1" y="1" width="62" height="62" rx="15" stroke="#D1D5DB" stroke-width="2"/>
</svg>
