<svg width="64" height="64" viewBox="0 0 64 64" fill="none" xmlns="http://www.w3.org/2000/svg">
<rect x="1" y="1" width="62" height="62" rx="15" fill="white"/>
<path d="M24.5252 33.3H25.9752C27.9762 33.3 29.6002 31.844 29.6002 30.05C29.6002 28.256 27.9762 26.8 25.9752 26.8H23.0752C21.0742 26.8 19.4502 28.256 19.4502 30.05V35.9C19.4502 36.9343 19.9085 37.9263 20.7243 38.6577C21.5401 39.3891 22.6465 39.8 23.8002 39.8M23.8002 39.8H41.2002M23.8002 39.8V43.7C23.8002 44.0448 23.953 44.3754 24.2249 44.6192C24.4968 44.863 24.8656 45 25.2502 45H39.7502C40.5477 45 41.2002 44.415 41.2002 43.7V39.8M41.2002 39.8C42.3539 39.8 43.4603 39.3891 44.2761 38.6577C45.0919 37.9263 45.5502 36.9343 45.5502 35.9V33.3C45.5502 32.6104 45.2447 31.9491 44.7008 31.4615C44.1569 30.9739 43.4193 30.7 42.6502 30.7H32.5002" stroke="#374151" stroke-width="1.7" stroke-miterlimit="2" stroke-linecap="round" stroke-linejoin="round"/>
<path d="M19.45 29.4C18.725 29.4 18 28.1 18 26.8V24.2C18 21.327 20.5955 19 23.8 19H41.2C44.4045 19 47 21.327 47 24.2V26.8C47 28.9515 45.0498 30.7 42.65 30.7H29.5275" stroke="#374151" stroke-width="1.7" stroke-miterlimit="2" stroke-linecap="round" stroke-linejoin="round"/>
<rect x="1" y="1" width="62" height="62" rx="15" stroke="#D1D5DB" stroke-width="2"/>
</svg>
