<svg width="23" height="23" viewBox="0 0 23 23" fill="none" xmlns="http://www.w3.org/2000/svg">
<path d="M13.5681 22.4575C13.2365 22.5312 12.9466 22.4619 12.6983 22.2497C12.4492 22.0383 12.3247 21.7483 12.3247 21.3799C12.3247 21.122 12.4124 20.8873 12.5877 20.6758C12.7624 20.4636 12.9786 20.3206 13.2365 20.247C13.6971 20.1364 14.144 19.9935 14.5772 19.8181C15.0098 19.6435 15.4287 19.4272 15.8339 19.1693C16.0734 19.0219 16.3361 18.9623 16.622 18.9903C16.9072 19.0175 17.1419 19.1233 17.3261 19.3075C17.584 19.5654 17.6993 19.8601 17.672 20.1917C17.644 20.5233 17.4826 20.7812 17.1879 20.9654C16.6168 21.3338 16.0322 21.6378 15.4338 21.8773C14.8348 22.1167 14.2129 22.3102 13.5681 22.4575V22.4575ZM18.9011 17.7325C18.7169 17.5482 18.6108 17.318 18.5828 17.0417C18.5555 16.7653 18.6156 16.5166 18.7629 16.2956C19.0024 15.8903 19.2142 15.4758 19.3985 15.0522C19.5827 14.6285 19.73 14.1771 19.8406 13.6982C19.9143 13.4403 20.0616 13.2192 20.2827 13.035C20.5037 12.8508 20.7432 12.7587 21.0011 12.7587C21.3695 12.7587 21.6599 12.8877 21.8721 13.1455C22.0835 13.4034 22.1432 13.6982 22.0511 14.0298C21.9038 14.6929 21.7055 15.3241 21.4565 15.9231C21.2082 16.5214 20.8998 17.0877 20.5314 17.6219C20.3472 17.8982 20.094 18.05 19.772 18.0773C19.4493 18.1053 19.159 17.9904 18.9011 17.7325V17.7325ZM20.9735 10.5481C20.7156 10.5481 20.4809 10.456 20.2694 10.2718C20.0572 10.0876 19.9143 9.86656 19.8406 9.60866C19.73 9.1297 19.5827 8.67359 19.3985 8.24032C19.2142 7.80779 19.0024 7.3981 18.7629 7.01125C18.6156 6.7902 18.5555 6.54151 18.5828 6.26519C18.6108 5.98887 18.7169 5.75861 18.9011 5.57439C19.159 5.31649 19.4493 5.19676 19.772 5.21518C20.094 5.2336 20.3472 5.38097 20.5314 5.65729C20.8998 6.19151 21.213 6.76699 21.4709 7.38373C21.7288 8.00122 21.9314 8.63233 22.0788 9.27708C22.1524 9.60866 22.0788 9.9034 21.8577 10.1613C21.6366 10.4192 21.3419 10.5481 20.9735 10.5481V10.5481ZM8.89832 22.4299C6.3746 21.8404 4.29742 20.5509 2.66676 18.5614C1.03685 16.5719 0.221889 14.2692 0.221889 11.6534C0.221889 9.01918 1.03243 6.69809 2.6535 4.69017C4.27458 2.68225 6.34697 1.40197 8.87069 0.849327C9.20227 0.775641 9.49259 0.844537 9.74165 1.05601C9.98997 1.26823 10.1141 1.54934 10.1141 1.89934C10.1141 2.15724 10.0264 2.39193 9.85107 2.6034C9.67644 2.81562 9.46017 2.95857 9.20227 3.03225C7.23119 3.51121 5.61012 4.55201 4.33905 6.15466C3.06798 7.75732 2.43245 9.59024 2.43245 11.6534C2.43245 13.7166 3.06798 15.5359 4.33905 17.1113C5.61012 18.6859 7.23119 19.7312 9.20227 20.247C9.46017 20.3206 9.67644 20.468 9.85107 20.6891C10.0264 20.9101 10.1141 21.1496 10.1141 21.4075C10.1141 21.7575 9.99439 22.0338 9.75491 22.2365C9.51543 22.4391 9.2299 22.5036 8.89832 22.4299V22.4299ZM15.9168 4.16516C15.4931 3.90726 15.0602 3.68142 14.6181 3.48763C14.176 3.29457 13.7247 3.14278 13.2642 3.03225C13.0063 2.95857 12.7852 2.81562 12.601 2.6034C12.4168 2.39193 12.3247 2.15724 12.3247 1.89934C12.3247 1.54934 12.4492 1.26823 12.6983 1.05601C12.9466 0.844537 13.2365 0.775641 13.5681 0.849327C14.2129 0.996697 14.8392 1.19012 15.4471 1.4296C16.055 1.66907 16.6445 1.97303 17.2155 2.34145C17.5103 2.52567 17.6716 2.78356 17.6996 3.11515C17.7269 3.44673 17.6116 3.74147 17.3537 3.99937C17.1695 4.18358 16.944 4.29411 16.6773 4.33095C16.4098 4.3678 16.1563 4.31253 15.9168 4.16516V4.16516ZM11.247 16.793C11.0997 16.793 10.9615 16.7698 10.8326 16.7233C10.7036 16.6777 10.5839 16.6088 10.4733 16.5166C9.25753 15.3929 8.34568 14.3429 7.73778 13.3666C7.12988 12.3903 6.82592 11.4876 6.82592 10.6587C6.82592 9.27708 7.27283 8.17659 8.16663 7.35721C9.05969 6.53709 10.0865 6.12703 11.247 6.12703C12.4076 6.12703 13.4347 6.53709 14.3286 7.35721C15.2216 8.17659 15.6681 9.27708 15.6681 10.6587C15.6681 11.4876 15.3642 12.3903 14.7563 13.3666C14.1484 14.3429 13.2365 15.3929 12.0207 16.5166C11.9102 16.6088 11.7905 16.6777 11.6615 16.7233C11.5326 16.7698 11.3944 16.793 11.247 16.793V16.793ZM11.247 11.6534C11.5786 11.6534 11.8597 11.5385 12.0904 11.3086C12.3203 11.0779 12.4352 10.7968 12.4352 10.4652C12.4352 10.1521 12.3203 9.87577 12.0904 9.63629C11.8597 9.39681 11.5786 9.27708 11.247 9.27708C10.9155 9.27708 10.6343 9.39681 10.4037 9.63629C10.1738 9.87577 10.0589 10.1521 10.0589 10.4652C10.0589 10.7968 10.1738 11.0779 10.4037 11.3086C10.6343 11.5385 10.9155 11.6534 11.247 11.6534Z" fill="white"/>
</svg>
