<svg width="64" height="64" viewBox="0 0 64 64" fill="none" xmlns="http://www.w3.org/2000/svg">
<rect x="1.33333" y="1.33333" width="61.3333" height="61.3333" rx="20" fill="white"/>
<path d="M42.2 28.0535L35.7466 27.4935L33.2266 21.5601C32.7733 20.4801 31.2266 20.4801 30.7733 21.5601L28.2533 27.5068L21.8133 28.0535C20.64 28.1468 20.16 29.6135 21.0533 30.3868L25.9466 34.6268L24.48 40.9201C24.2133 42.0668 25.4533 42.9735 26.4666 42.3601L32 39.0268L37.5333 42.3735C38.5466 42.9868 39.7866 42.0801 39.52 40.9335L38.0533 34.6268L42.9466 30.3868C43.84 29.6135 43.3733 28.1468 42.2 28.0535ZM32 36.5335L26.9866 39.5601L28.32 33.8535L23.8933 30.0135L29.7333 29.5068L32 24.1335L34.28 29.5201L40.12 30.0268L35.6933 33.8668L37.0266 39.5735L32 36.5335Z" fill="#111827"/>
<rect x="1.33333" y="1.33333" width="61.3333" height="61.3333" rx="20" stroke="#D1D5DB" stroke-width="2.66667"/>
</svg>
