<svg width="64" height="64" viewBox="0 0 64 64" fill="none" xmlns="http://www.w3.org/2000/svg">
<rect x="1" y="1" width="62" height="62" rx="15" fill="white"/>
<path d="M31.9999 45.3327C31.9999 45.3327 21.3337 37.3331 21.3337 28.6669C21.3337 23.1445 26.1088 18.6674 31.9999 18.6674C37.8909 18.6674 42.666 23.1445 42.666 28.6669C42.666 37.3331 31.9999 45.3327 31.9999 45.3327Z" stroke="#374151" stroke-width="2.13" stroke-linejoin="round"/>
<path d="M30 25.3337V35.9999" stroke="#374151" stroke-width="2.13" stroke-linecap="round" stroke-linejoin="round"/>
<path d="M30 25.3337H33.9998C34.707 25.3337 35.3853 25.6147 35.8853 26.1148C36.3854 26.6148 36.6663 27.2931 36.6663 28.0003C36.6663 28.7075 36.3854 29.3857 35.8853 29.8858C35.3853 30.3859 34.707 30.6668 33.9998 30.6668H30V25.3337Z" stroke="#374151" stroke-width="2.13" stroke-linejoin="round"/>
<rect x="1" y="1" width="62" height="62" rx="15" stroke="#D1D5DB" stroke-width="2"/>
</svg>
