<svg width="64" height="64" viewBox="0 0 64 64" fill="none" xmlns="http://www.w3.org/2000/svg">
<rect x="1" y="1" width="62" height="62" rx="15" fill="white"/>
<path d="M28.6429 16V43.7778C28.6429 44.6987 29.0492 45.5818 29.7726 46.233C30.4959 46.8842 31.477 47.25 32.5 47.25H42.1429C43.1658 47.25 44.1469 46.8842 44.8703 46.233C45.5936 45.5818 46 44.6987 46 43.7778V31.625H22.8571C21.8342 31.625 20.8531 31.2592 20.1297 30.608C19.4064 29.9568 19 29.0737 19 28.1528V19.4722C19 18.5513 19.4064 17.6682 20.1297 17.017C20.8531 16.3658 21.8342 16 22.8571 16H28.6429Z" stroke="#374151" stroke-width="1.7" stroke-linecap="round" stroke-linejoin="round"/>
<rect x="1" y="1" width="62" height="62" rx="15" stroke="#D1D5DB" stroke-width="2"/>
</svg>
