<svg width="32" height="32" viewBox="0 0 32 32" fill="none" xmlns="http://www.w3.org/2000/svg">
<path d="M29.9125 31.75C26.15 31.75 22.4826 30.9112 18.9103 29.2335C15.3379 27.5558 12.1733 25.3392 9.4165 22.5835C6.65967 19.8278 4.443 16.6632 2.7665 13.0897C1.09 9.51625 0.251167 5.84883 0.25 2.0875C0.25 1.5625 0.425 1.125 0.775 0.775C1.125 0.425 1.5625 0.25 2.0875 0.25H9.175C9.58333 0.25 9.94792 0.38125 10.2688 0.64375C10.5896 0.90625 10.7792 1.24167 10.8375 1.65L11.975 7.775C12.0333 8.18333 12.0258 8.5555 11.9523 8.8915C11.8788 9.2275 11.7113 9.52617 11.45 9.7875L7.20625 14.075C8.43125 16.175 9.97008 18.1437 11.8227 19.9812C13.6754 21.8187 15.7095 23.4083 17.925 24.75L22.0375 20.6375C22.3 20.375 22.643 20.1778 23.0665 20.046C23.49 19.9142 23.9053 19.878 24.3125 19.9375L30.35 21.1625C30.7583 21.25 31.0937 21.4472 31.3562 21.754C31.6187 22.0608 31.75 22.4178 31.75 22.825V29.9125C31.75 30.4375 31.575 30.875 31.225 31.225C30.875 31.575 30.4375 31.75 29.9125 31.75ZM5.54375 10.75L8.43125 7.8625L7.6875 3.75H3.79375C3.93958 4.94583 4.14375 6.12708 4.40625 7.29375C4.66875 8.46042 5.04792 9.6125 5.54375 10.75ZM21.2063 26.4125C22.3438 26.9083 23.5034 27.3021 24.6852 27.5938C25.8671 27.8854 27.0553 28.075 28.25 28.1625V24.3125L24.1375 23.4812L21.2063 26.4125Z" fill="#1B63F8"/>
</svg>
