<svg width="20" height="20" viewBox="0 0 20 20" fill="none" xmlns="http://www.w3.org/2000/svg">
<path d="M18.9722 15.697C18.9722 16.021 18.9002 16.354 18.7472 16.678C18.5942 17.002 18.3961 17.308 18.1351 17.596C17.6941 18.082 17.2081 18.433 16.6591 18.658C16.1191 18.883 15.534 19 14.904 19C13.986 19 13.005 18.784 11.9699 18.343C10.9349 17.902 9.89985 17.308 8.87381 16.561C7.82807 15.7961 6.84126 14.9537 5.92171 14.041C5.01157 13.1248 4.17214 12.141 3.41062 11.098C2.67259 10.072 2.07857 9.046 1.64656 8.029C1.21454 7.003 0.998535 6.022 0.998535 5.086C0.998535 4.474 1.10654 3.889 1.32255 3.349C1.53855 2.8 1.88057 2.296 2.35758 1.846C2.9336 1.279 3.56363 1 4.22965 1C4.48166 1 4.73367 1.054 4.95867 1.162C5.19268 1.27 5.39969 1.432 5.5617 1.666L7.64977 4.609C7.81178 4.834 7.92878 5.041 8.00978 5.239C8.09079 5.428 8.13579 5.617 8.13579 5.788C8.13579 6.004 8.07278 6.22 7.94678 6.427C7.82978 6.634 7.65877 6.85 7.44276 7.066L6.75874 7.777C6.65973 7.876 6.61473 7.993 6.61473 8.137C6.61473 8.209 6.62373 8.272 6.64173 8.344C6.66874 8.416 6.69574 8.47 6.71374 8.524C6.87574 8.821 7.15475 9.208 7.55077 9.676C7.95578 10.144 8.3878 10.621 8.85581 11.098C9.34183 11.575 9.80985 12.016 10.2869 12.421C10.7549 12.817 11.1419 13.087 11.4479 13.249C11.4929 13.267 11.5469 13.294 11.6099 13.321C11.6819 13.348 11.7539 13.357 11.8349 13.357C11.9879 13.357 12.1049 13.303 12.2039 13.204L12.888 12.529C13.113 12.304 13.329 12.133 13.536 12.025C13.743 11.899 13.95 11.836 14.175 11.836C14.346 11.836 14.526 11.872 14.724 11.953C14.922 12.034 15.129 12.151 15.354 12.304L18.3331 14.419C18.5672 14.581 18.7292 14.77 18.8282 14.995C18.9182 15.22 18.9722 15.445 18.9722 15.697Z" stroke="#374151" stroke-width="1.5" stroke-miterlimit="10"/>
</svg>
