<svg width="18" height="18" viewBox="0 0 18 18" fill="none" xmlns="http://www.w3.org/2000/svg">
<path d="M7.52734 16.9003L11.444 10.2503L16.0273 10.2503C16.719 10.2503 17.2773 9.69199 17.2773 9.00033C17.2773 8.30866 16.719 7.75033 16.0273 7.75033L11.444 7.75033L7.52734 1.10033C7.37735 0.833658 7.08568 0.666992 6.77734 0.666992C6.19401 0.666992 5.77734 1.22532 5.93568 1.78366L7.68568 7.75033L3.11068 7.75033L1.98568 5.86699C1.91068 5.74199 1.76901 5.66699 1.62734 5.66699L1.14401 5.66699C0.869011 5.66699 0.669012 5.92533 0.735677 6.18366L1.34401 8.61699L1.44401 9.00033L1.36901 9.31699L1.27734 9.66699L0.877344 11.2503L0.735677 11.8087C0.669012 12.0753 0.86901 12.3253 1.14401 12.3253L1.62734 12.3253C1.77734 12.3253 1.91068 12.2503 1.98568 12.1253L3.11068 10.2503L7.69401 10.2503L5.94401 16.217C5.77734 16.7753 6.19401 17.3337 6.77734 17.3337C7.08568 17.3337 7.37734 17.167 7.52734 16.9003Z" fill="url(#paint0_linear_4273_66489)"/>
<defs>
<linearGradient id="paint0_linear_4273_66489" x1="9.00006" y1="0.666992" x2="9.00006" y2="17.3337" gradientUnits="userSpaceOnUse">
<stop stop-color="#00C6FF"/>
<stop offset="1" stop-color="#0072FF"/>
</linearGradient>
</defs>
</svg>
