<svg width="16" height="16" viewBox="0 0 16 16" fill="none" xmlns="http://www.w3.org/2000/svg">
<path d="M0.408651 11.1365L1.36325 10.1819L3.59063 10.5001L7.09081 6.99989L0.0904544 3.18152L1.36325 1.90872L9.95459 4.13611L13.4548 0.635934C13.7199 0.370769 14.0381 0.238398 14.4094 0.238823C14.7806 0.238398 15.0988 0.370769 15.364 0.635934C15.6291 0.901099 15.7615 1.2193 15.7611 1.59053C15.7615 1.96176 15.6291 2.27996 15.364 2.54512L11.8638 6.0453L14.0912 14.6366L12.8184 15.9094L9 8.90908L5.49982 12.4093L5.81802 14.6366L4.86342 15.5912L3.27243 12.7275L0.408651 11.1365Z" fill="white"/>
</svg>
