<svg width="64" height="64" viewBox="0 0 64 64" fill="none" xmlns="http://www.w3.org/2000/svg">
<rect x="1" y="1" width="62" height="62" rx="15" fill="white"/>
<path d="M40.1355 43.9932L36.8591 36.0431L36.859 36.0429C36.7042 35.6679 36.447 35.3451 36.1173 35.1145C35.7875 34.8837 35.3993 34.7551 34.9995 34.744L34.9992 34.744L29.1509 34.5891L28.1327 28.0762L40.1355 43.9932ZM40.1355 43.9932L40.1386 43.9926C40.219 44.1867 40.2204 44.4055 40.143 44.6006L40.1355 43.9932ZM25.644 26.3331L25.644 26.3331C26.203 26.2103 26.7862 26.3283 27.2569 26.6589C27.7273 26.989 28.0433 27.5017 28.1327 28.076L25.644 26.3331ZM25.644 26.3331L23.0211 26.9103L23.0638 27.1057L23.0208 26.9103L23.021 26.9103C22.4778 27.0291 22.005 27.3652 21.7065 27.8414L21.7065 27.8414M25.644 26.3331L21.7065 27.8414M21.7065 27.8414C21.4081 28.3177 21.3079 28.8955 21.4274 29.4472L23.1836 37.5777C23.1836 37.5778 23.1837 37.578 23.1837 37.5782C23.3527 38.3837 23.799 39.1012 24.4423 39.5989C25.0859 40.0971 25.8835 40.3418 26.6898 40.2873C26.6898 40.2873 26.6898 40.2873 26.6898 40.2873L33.1711 39.85L36.1437 45.7711L36.1437 45.7711M21.7065 27.8414L36.1437 45.7711M36.1437 45.7711L36.1449 45.7734M36.1437 45.7711L36.1449 45.7734M36.1449 45.7734C36.2804 46.0348 36.5478 46.2012 36.8422 46.2M36.1449 45.7734L39.7216 45.0359M39.7216 45.0359L39.7212 45.0361L37.1461 46.1372C37.1459 46.1373 37.1457 46.1374 37.1455 46.1374C37.0494 46.1792 36.9462 46.2003 36.8422 46.2M39.7216 45.0359C39.914 44.9532 40.0652 44.7965 40.1429 44.6007L39.7216 45.0359ZM36.8422 46.2C36.8419 46.2 36.8416 46.2 36.8413 46.2L36.842 46L36.8431 46.2C36.8428 46.2 36.8425 46.2 36.8422 46.2ZM23.4641 25.7129V25.7043C22.5109 25.6523 21.6082 25.2411 20.9315 24.5474C20.2077 23.8053 19.8014 22.8005 19.8 21.7535L19.8 21.753C19.8011 20.7056 20.208 19.7001 20.9327 18.9583L20.9327 18.9583C21.6576 18.2165 22.6415 17.7992 23.6683 17.8L23.4641 25.7129ZM23.4641 25.7129L23.664 25.713M23.4641 25.7129L23.664 25.713M23.664 25.713C24.6908 25.7136 25.6747 25.2959 26.3993 24.5538M23.664 25.713L26.3993 24.5538M23.5492 19.3973C22.9843 19.4271 22.4475 19.6699 22.0439 20.0829L22.0439 20.0829C21.613 20.5236 21.369 21.1228 21.3669 21.7491L21.3669 21.7491C21.3647 22.3774 21.6064 22.9798 22.0371 23.424L23.5492 19.3973ZM23.5492 19.3973L23.6642 19.3973C24.273 19.397 24.8578 19.6445 25.2894 20.0871L25.2894 20.0871C25.7216 20.53 25.9648 21.1316 25.9643 21.7599C25.9638 22.3883 25.7196 22.9896 25.287 23.4317C24.8542 23.8736 24.2689 24.1203 23.6606 24.1187H23.6606C23.0519 24.1172 22.4679 23.868 22.0371 23.424L23.5492 19.3973ZM26.3993 24.5538C27.1241 23.812 27.5307 22.8063 27.5313 21.7585C27.5318 20.7111 27.1264 19.705 26.4025 18.9623C25.6785 18.2194 24.6951 17.8006 23.6683 17.8L26.3993 24.5538ZM34.3373 38.6575L34.3364 38.6557L28.4624 35.9566L28.4569 36.1565L28.4571 36.1565C28.4572 36.1565 28.4574 36.1565 28.4575 36.1565L34.9557 36.3367L34.9559 36.3367C35.1538 36.342 35.3339 36.465 35.4144 36.6569C35.4145 36.6571 35.4145 36.6572 35.4146 36.6574L38.3917 43.8806L37.2089 44.3883L34.3373 38.6575ZM26.5859 28.318L27.7045 35.485L33.6403 38.4281V38.2281H33.6401H33.6045V38.2277L33.5917 38.2286L26.5918 38.6781C26.5916 38.6781 26.5913 38.6781 26.5911 38.6781C26.1629 38.7024 25.7393 38.5706 25.3957 38.3052L25.3957 38.3051C25.0517 38.0396 24.8097 37.657 24.7138 37.2246C24.7137 37.2244 24.7137 37.2242 24.7136 37.224L22.959 29.0933L22.9587 29.0923C22.928 28.9532 22.9531 28.8078 23.0275 28.689C23.103 28.5708 23.2197 28.4886 23.3516 28.4584C23.3519 28.4584 23.3521 28.4583 23.3523 28.4583L25.9722 27.8847L25.9722 27.8848L25.9754 27.884C26.1097 27.8523 26.2514 27.8803 26.3655 27.9619L26.3675 27.9633C26.4838 28.0443 26.5636 28.1722 26.5859 28.3174L26.5859 28.318Z" fill="#374151" stroke="#374151" stroke-width="0.4"/>
<path d="M39.795 33.4572C41.6516 33.4178 43.4237 32.6631 44.7396 31.3473C46.0912 29.9953 46.8508 28.1613 46.8504 26.2497V26.2497C46.8504 24.3376 46.0903 22.504 44.7384 21.1524C43.3859 19.8004 41.5523 19.0412 39.6401 19.0417L39.795 33.4572ZM39.795 33.4572L39.795 33.4538L39.6419 33.4537C37.7318 33.4524 35.8998 32.6936 34.5487 31.3438C33.197 29.9935 32.4362 28.163 32.4332 26.2525L39.795 33.4572ZM34.2588 26.2481C34.26 24.8216 34.8276 23.4545 35.8373 22.4464C36.8112 21.4742 38.1199 20.9136 39.4917 20.8766V20.8795L39.6415 20.8798C41.0663 20.8822 42.4318 21.4506 43.4378 22.4594C44.4437 23.4686 45.0076 24.8361 45.0055 26.2606C45.0034 27.6854 44.4354 29.0513 43.4266 30.0572L43.4266 30.0572C42.4178 31.0636 41.0507 31.6277 39.6257 31.6261C38.2008 31.6245 36.835 31.0569 35.8286 30.0485C34.8222 29.0397 34.2576 27.6729 34.2588 26.2481ZM34.2588 26.2481L34.1088 26.248M34.2588 26.2481L34.1088 26.248M34.1088 26.248C34.1101 24.7817 34.6934 23.3765 35.7313 22.3403L34.1088 26.248ZM34.3366 31.556C35.7079 32.9259 37.5545 33.7114 39.4887 33.752L47.1504 26.2496C47.1504 24.2579 46.3587 22.3481 44.9505 20.9403L44.8444 21.0463L44.9505 20.9403C43.5418 19.532 41.6318 18.7412 39.6401 18.7417C37.6487 18.7421 35.7388 19.5338 34.331 20.9424L34.331 20.9424C32.9231 22.3511 32.1323 24.2613 32.1332 26.2527L32.1332 26.2528C32.1363 28.2429 32.9288 30.1496 34.3366 31.556ZM40.7097 26.8277V24.6238C40.7097 24.034 40.2316 23.5559 39.6417 23.5559C39.0518 23.5559 38.5742 24.0341 38.5742 24.6238V27.8812H38.5741C38.5702 28.1658 38.6804 28.4403 38.8795 28.6433L38.8796 28.6435C39.0791 28.8464 39.3512 28.9616 39.6362 28.9631H39.637H41.7832C42.3726 28.9631 42.8507 28.485 42.8507 27.8956C42.8507 27.3059 42.3726 26.8277 41.7832 26.8277H40.7097Z" fill="#374151" stroke="#374151" stroke-width="0.3"/>
<rect x="1" y="1" width="62" height="62" rx="15" stroke="#D1D5DB" stroke-width="2"/>
</svg>
