<svg width="36" height="38" viewBox="0 0 36 38" fill="none" xmlns="http://www.w3.org/2000/svg">
<path d="M33 0.5H3C2.20435 0.5 1.44129 0.81607 0.87868 1.37868C0.31607 1.94129 0 2.70435 0 3.5V14.5062C0 31.2687 14.2125 36.8375 17.0625 37.775C17.6714 37.9753 18.3286 37.9753 18.9375 37.775C21.7875 36.8375 36 31.2687 36 14.5062V3.5C36 2.70435 35.6839 1.94129 35.1213 1.37868C34.5587 0.81607 33.7956 0.5 33 0.5ZM33 14.5062C33 29.1687 20.55 34.0813 18 34.925C15.4688 34.0813 3 29.1875 3 14.5062V3.5H33V14.5062ZM8.71875 18.8375C8.56637 18.7046 8.44245 18.5422 8.35443 18.3601C8.26641 18.1781 8.21611 17.9801 8.20655 17.7781C8.197 17.5761 8.22838 17.3743 8.29882 17.1847C8.36926 16.9952 8.4773 16.8218 8.61644 16.6751C8.75558 16.5283 8.92296 16.4113 9.10851 16.3309C9.29406 16.2505 9.49395 16.2084 9.69616 16.2072C9.89838 16.2061 10.0987 16.2458 10.2852 16.324C10.4717 16.4023 10.6404 16.5174 10.7812 16.6625L15.2438 20.9187L25.2188 11.4125C25.5104 11.158 25.8891 11.0262 26.2758 11.0445C26.6624 11.0628 27.027 11.2298 27.2933 11.5107C27.5596 11.7915 27.7071 12.1644 27.7049 12.5515C27.7026 12.9386 27.5508 13.3098 27.2812 13.5875L16.2938 24.0875C16.0097 24.3547 15.6337 24.5024 15.2438 24.5C14.8595 24.5015 14.4897 24.3536 14.2125 24.0875L8.71875 18.8375Z" fill="#00C6FF"/>
<path d="M33 0.5H3C2.20435 0.5 1.44129 0.81607 0.87868 1.37868C0.31607 1.94129 0 2.70435 0 3.5V14.5062C0 31.2687 14.2125 36.8375 17.0625 37.775C17.6714 37.9753 18.3286 37.9753 18.9375 37.775C21.7875 36.8375 36 31.2687 36 14.5062V3.5C36 2.70435 35.6839 1.94129 35.1213 1.37868C34.5587 0.81607 33.7956 0.5 33 0.5ZM33 14.5062C33 29.1687 20.55 34.0813 18 34.925C15.4688 34.0813 3 29.1875 3 14.5062V3.5H33V14.5062ZM8.71875 18.8375C8.56637 18.7046 8.44245 18.5422 8.35443 18.3601C8.26641 18.1781 8.21611 17.9801 8.20655 17.7781C8.197 17.5761 8.22838 17.3743 8.29882 17.1847C8.36926 16.9952 8.4773 16.8218 8.61644 16.6751C8.75558 16.5283 8.92296 16.4113 9.10851 16.3309C9.29406 16.2505 9.49395 16.2084 9.69616 16.2072C9.89838 16.2061 10.0987 16.2458 10.2852 16.324C10.4717 16.4023 10.6404 16.5174 10.7812 16.6625L15.2438 20.9187L25.2188 11.4125C25.5104 11.158 25.8891 11.0262 26.2758 11.0445C26.6624 11.0628 27.027 11.2298 27.2933 11.5107C27.5596 11.7915 27.7071 12.1644 27.7049 12.5515C27.7026 12.9386 27.5508 13.3098 27.2812 13.5875L16.2938 24.0875C16.0097 24.3547 15.6337 24.5024 15.2438 24.5C14.8595 24.5015 14.4897 24.3536 14.2125 24.0875L8.71875 18.8375Z" fill="#0072FF"/>
</svg>
