<svg width="64" height="64" viewBox="0 0 64 64" fill="none" xmlns="http://www.w3.org/2000/svg">
<rect x="1" y="1" width="62" height="62" rx="15" fill="white"/>
<g clip-path="url(#clip0_3568_51073)">
<path d="M21.7317 29.3177C20.8741 29.3177 20.0516 29.6584 19.4452 30.2648C18.8387 30.8712 18.498 31.6937 18.498 32.5513V43.869C18.498 44.7266 18.8387 45.5491 19.4452 46.1555C20.0516 46.762 20.8741 47.1026 21.7317 47.1026H28.1989C29.0565 47.1026 29.879 46.762 30.4854 46.1555C31.0919 45.5491 31.4326 44.7266 31.4326 43.869V32.5513C31.4326 31.6937 31.0919 30.8712 30.4854 30.2648C29.879 29.6584 29.0565 29.3177 28.1989 29.3177M21.7317 29.3177H28.1989M21.7317 29.3177V22.8504C21.7317 22.4216 21.902 22.0104 22.2052 21.7072C22.5084 21.404 22.9197 21.2336 23.3485 21.2336H26.5821C27.0109 21.2336 27.4222 21.404 27.7254 21.7072C28.0286 22.0104 28.1989 22.4216 28.1989 22.8504V29.3177M36.283 24.4673H36.2992M41.1334 27.7009H41.1496M41.1334 21.2336H41.1496M45.9839 18H46M45.9839 24.4673H46M45.9839 30.9345H46M28.1989 24.4673H29.8157" stroke="black" stroke-width="2.42522" stroke-linecap="round" stroke-linejoin="round"/>
</g>
<rect x="1" y="1" width="62" height="62" rx="15" stroke="#D1D5DB" stroke-width="2"/>
<defs>
<clipPath id="clip0_3568_51073">
<rect width="32" height="32" fill="white" transform="translate(16 16)"/>
</clipPath>
</defs>
</svg>
