<svg width="65" height="64" viewBox="0 0 65 64" fill="none" xmlns="http://www.w3.org/2000/svg">
<rect x="1.5" y="1" width="62" height="62" rx="15" fill="white"/>
<path d="M30.5 20C29.3078 20.0042 28.1657 20.4797 27.3227 21.3227C26.4797 22.1657 26.0042 23.3078 26 24.5C26 25.3 26.227 26.043 26.594 26.688C24.793 27.742 23.383 29.238 22.625 31H22.5C22.4339 31.0015 22.3682 30.9896 22.3069 30.965C22.2456 30.9404 22.1898 30.9036 22.1431 30.8569C22.0964 30.8102 22.0596 30.7544 22.035 30.6931C22.0104 30.6318 21.9985 30.5661 22 30.5C22 30.324 22.09 30.184 22.219 30.094L21.062 28.469C20.7344 28.6968 20.4667 29.0005 20.2817 29.3542C20.0968 29.7078 20.0002 30.1009 20 30.5C20 31.73 20.918 32.738 22.094 32.938C22.043 33.288 22 33.637 22 34C22 36.492 23.324 38.652 25.25 40.25C25.008 41.25 25.129 42.316 25.906 43.094C26.4796 43.6627 27.2547 43.9818 28.0625 43.9818C28.8703 43.9818 29.6454 43.6627 30.219 43.094L30.594 42.719C31.375 42.863 32.16 43 33 43C33.84 43 34.625 42.863 35.406 42.719L35.781 43.094C36.3546 43.6627 37.1297 43.9818 37.9375 43.9818C38.7453 43.9818 39.5204 43.6627 40.094 43.094C40.855 42.332 40.969 41.297 40.75 40.312C41.5519 39.6607 42.2385 38.8791 42.781 38H45V30H42.719C42.3559 29.4106 41.9257 28.8653 41.437 28.375L42 25.281V24H41C41 24 38.598 24.04 36.562 25.563C36.0274 25.4088 35.485 25.2833 34.937 25.187C34.977 24.965 35 24.734 35 24.5C35 22.027 32.973 20 30.5 20ZM30.5 22C31.89 22 33 23.11 33 24.5C33 24.672 32.969 24.836 32.937 25C31.324 25.008 29.801 25.32 28.407 25.844C28.1415 25.4461 27.9998 24.9784 28 24.5C28 23.11 29.11 22 30.5 22ZM39.75 26.188C39.766 26.184 39.766 26.191 39.781 26.188L39.406 28.468L39.313 29L39.75 29.375C40.4177 29.9533 40.9692 30.6534 41.375 31.438L41.656 32H43V36H41.656L41.375 36.563C40.887 37.527 40.117 38.375 39.125 39.093L38.406 39.625L38.844 40.438C39.082 40.84 39.039 41.336 38.687 41.688C38.5921 41.787 38.4781 41.8657 38.352 41.9195C38.2258 41.9733 38.0901 42.0011 37.953 42.0011C37.8159 42.0011 37.6802 41.9733 37.554 41.9195C37.4279 41.8657 37.3139 41.787 37.219 41.688L36.5 40.968L36.094 40.594L35.562 40.719C34.75 40.906 33.887 41 33 41C32.1378 41.0031 31.278 40.9089 30.437 40.719L29.907 40.594L29.5 40.969L28.781 41.687C28.6861 41.7861 28.5721 41.865 28.4458 41.9189C28.3196 41.9728 28.1838 42.0006 28.0465 42.0006C27.9092 42.0006 27.7734 41.9728 27.6472 41.9189C27.5209 41.865 27.4069 41.7861 27.312 41.687C27.1474 41.5276 27.0422 41.3168 27.0139 41.0895C26.9855 40.8621 27.0356 40.6319 27.156 40.437L27.594 39.625L26.875 39.094C25.066 37.78 24 35.988 24 34C24 30.258 27.91 27 33 27C34.23 27 35.402 27.184 36.469 27.531L37 27.719L37.438 27.344C38.152 26.707 39.035 26.364 39.75 26.188ZM39 32C38.45 32 38 32.45 38 33C38 33.55 38.45 34 39 34C39.55 34 40 33.55 40 33C40 32.45 39.55 32 39 32Z" fill="#6B7280"/>
<rect x="1.5" y="1" width="62" height="62" rx="15" stroke="#D1D5DB" stroke-width="2"/>
</svg>
