<svg width="64" height="64" viewBox="0 0 64 64" fill="none" xmlns="http://www.w3.org/2000/svg">
<rect x="1" y="1" width="62" height="62" rx="15" fill="white"/>
<path d="M31.9865 18.6667C24.6265 18.6667 18.6665 24.6401 18.6665 32.0001C18.6665 39.3601 24.6265 45.3334 31.9865 45.3334C39.3598 45.3334 45.3332 39.3601 45.3332 32.0001C45.3332 24.6401 39.3598 18.6667 31.9865 18.6667ZM31.9998 42.6667C26.1065 42.6667 21.3332 37.8934 21.3332 32.0001C21.3332 26.1067 26.1065 21.3334 31.9998 21.3334C37.8932 21.3334 42.6665 26.1067 42.6665 32.0001C42.6665 37.8934 37.8932 42.6667 31.9998 42.6667Z" fill="#374151"/>
<path d="M32.6665 25.3333H30.6665V33.3333L37.6665 37.5333L38.6665 35.8933L32.6665 32.3333V25.3333Z" fill="#374151"/>
<rect x="1" y="1" width="62" height="62" rx="15" stroke="#D1D5DB" stroke-width="2"/>
</svg>
