<svg width="16" height="16" viewBox="0 0 16 16" fill="none" xmlns="http://www.w3.org/2000/svg">
<path fill-rule="evenodd" clip-rule="evenodd" d="M12.8092 11.6978L15.7754 14.6401C16.0749 14.95 16.0749 15.4415 15.7754 15.7514C15.6253 15.9028 15.4209 15.9879 15.2077 15.9879C14.9945 15.9879 14.7902 15.9028 14.6401 15.7514L11.6978 12.8091C8.71689 15.1999 4.38715 14.8438 1.83696 11.998C-0.713233 9.15232 -0.594401 4.8096 2.1076 2.1076C4.8096 -0.594401 9.15233 -0.713233 11.998 1.83696C14.8438 4.38715 15.1999 8.71688 12.8092 11.6978ZM1.61602 7.21246C1.61602 10.3034 4.12174 12.8091 7.21271 12.8091C8.69704 12.8091 10.1206 12.2195 11.1702 11.1699C12.2197 10.1203 12.8094 8.6968 12.8094 7.21246C12.8094 4.1215 10.3037 1.61578 7.21271 1.61578C4.12174 1.61578 1.61602 4.1215 1.61602 7.21246Z" fill="#374151"/>
</svg>
