<svg width="48" height="48" viewBox="0 0 48 48" fill="none" xmlns="http://www.w3.org/2000/svg">
<rect width="48" height="48" rx="24" fill="url(#paint0_linear_3891_65163)"/>
<path fill-rule="evenodd" clip-rule="evenodd" d="M28.8092 27.6978L31.7754 30.6401C32.0749 30.95 32.0749 31.4415 31.7754 31.7514C31.6253 31.9028 31.4209 31.9879 31.2077 31.9879C30.9945 31.9879 30.7902 31.9028 30.6401 31.7514L27.6978 28.8091C24.7169 31.1999 20.3872 30.8438 17.837 27.998C15.2868 25.1523 15.4056 20.8096 18.1076 18.1076C20.8096 15.4056 25.1523 15.2868 27.998 17.837C30.8438 20.3872 31.1999 24.7169 28.8092 27.6978ZM17.616 23.2125C17.616 26.3034 20.1217 28.8091 23.2127 28.8091C24.697 28.8091 26.1206 28.2195 27.1702 27.1699C28.2197 26.1203 28.8094 24.6968 28.8094 23.2125C28.8094 20.1215 26.3037 17.6158 23.2127 17.6158C20.1217 17.6158 17.616 20.1215 17.616 23.2125Z" fill="white"/>
<defs>
<linearGradient id="paint0_linear_3891_65163" x1="0" y1="24" x2="48" y2="24" gradientUnits="userSpaceOnUse">
<stop stop-color="#00C6FF"/>
<stop offset="1" stop-color="#0072FF"/>
</linearGradient>
</defs>
</svg>
