<svg width="64" height="64" viewBox="0 0 64 64" fill="none" xmlns="http://www.w3.org/2000/svg">
<rect x="1" y="1" width="62" height="62" rx="15" fill="white"/>
<path d="M45.8818 18.401C45.5458 18.0447 45.1469 17.7622 44.7078 17.5698C44.2687 17.3773 43.7981 17.2787 43.323 17.2796C42.8479 17.2805 42.3777 17.3809 41.9392 17.5749C41.5008 17.769 41.1028 18.053 40.768 18.4106L18.3551 42.793C18.2267 42.9319 18.1355 43.1046 18.091 43.2933C18.0465 43.482 18.0503 43.6799 18.1019 43.8666C18.1535 44.0532 18.2511 44.2219 18.3847 44.3552C18.5182 44.4886 18.6829 44.5817 18.8617 44.625C20.3411 44.9886 21.8548 45.1721 23.3734 45.1719C27.6815 45.1719 31.9947 43.6844 36.0488 40.7682C40.1416 37.8246 42.5134 34.4996 42.6127 34.3588C42.7618 34.1482 42.8342 33.8876 42.8167 33.6249C42.7992 33.3622 42.6929 33.115 42.5173 32.9287L40.1016 30.3639L45.9024 23.8014C46.5702 23.0797 46.9426 22.1078 46.9387 21.0967C46.9349 20.0856 46.555 19.1169 45.8818 18.401ZM40.3916 33.7736C38.7572 35.7583 36.8896 37.5126 34.8345 38.9936C30.3911 42.1723 25.8111 43.4643 21.1911 42.8436L34.8938 27.9412L40.3916 33.7736ZM44.4238 22.2715L44.4006 22.2975L38.6372 28.8149L36.3337 26.369L42.235 19.9432C42.3789 19.7906 42.5497 19.6695 42.7377 19.5869C42.9257 19.5043 43.1272 19.4618 43.3307 19.4618C43.5342 19.4618 43.7357 19.5043 43.9237 19.5869C44.1117 19.6695 44.2825 19.7906 44.4264 19.9432C44.5703 20.0958 44.6844 20.277 44.7623 20.4764C44.8402 20.6758 44.8803 20.8895 44.8803 21.1053C44.8803 21.3211 44.8402 21.5348 44.7623 21.7342C44.6844 21.9336 44.5703 22.1148 44.4264 22.2674L44.4238 22.2715Z" fill="#374151"/>
<rect x="1" y="1" width="62" height="62" rx="15" stroke="#D1D5DB" stroke-width="2"/>
</svg>
