<svg width="64" height="64" viewBox="0 0 64 64" fill="none" xmlns="http://www.w3.org/2000/svg">
<rect x="1" y="1" width="62" height="62" rx="15" fill="white"/>
<path d="M42.8882 24.3636L43.8212 20.6209C43.8999 20.3054 43.6612 20 43.3361 20H41.9669C41.7393 20 41.5404 20.1537 41.483 20.374L40.4438 24.3636H31.9065C31.2487 24.3636 30.7405 24.9415 30.8245 25.5939C30.8946 26.1381 31.3579 26.5455 31.9065 26.5455H42.6316L40.9205 41.8182H39.7216C39.4454 41.8182 39.2216 42.042 39.2216 42.3182V43.5C39.2216 43.7761 39.4454 44 39.7216 44H41.3238C42.3505 44 43.1938 43.2909 43.316 42.3964L45.2084 25.4748C45.2747 24.8822 44.8109 24.3636 44.2146 24.3636H42.8882Z" fill="#374151"/>
<path d="M20 30V42.25C20 42.7141 20.1873 43.1592 20.5207 43.4874C20.8541 43.8156 21.3063 44 21.7778 44H34.2222C34.6937 44 35.1459 43.8156 35.4793 43.4874C35.8127 43.1592 36 42.7141 36 42.25V30" stroke="#374151" stroke-width="1.7" stroke-linecap="round" stroke-linejoin="round"/>
<path d="M20 30H36" stroke="#374151" stroke-width="2" stroke-linecap="round" stroke-linejoin="round"/>
<path d="M31 33C31 33.7956 30.6839 34.5587 30.1213 35.1213C29.5587 35.6839 28.7956 36 28 36C27.2044 36 26.4413 35.6839 25.8787 35.1213C25.3161 34.5587 25 33.7956 25 33" stroke="#374151" stroke-width="1.7" stroke-linecap="round" stroke-linejoin="round"/>
<rect x="1" y="1" width="62" height="62" rx="15" stroke="#D1D5DB" stroke-width="2"/>
</svg>
