<svg width="64" height="64" viewBox="0 0 64 64" fill="none" xmlns="http://www.w3.org/2000/svg">
<rect x="1" y="1" width="62" height="62" rx="15" fill="white"/>
<path d="M24 43.4167C23.2667 43.4167 22.6387 43.1635 22.116 42.6572C21.5933 42.1508 21.3325 41.5429 21.3333 40.8333V25.3333C21.3333 24.6229 21.5947 24.0145 22.1173 23.5082C22.64 23.0019 23.2676 22.7491 24 22.75H26.6667C26.6667 21.3292 27.1889 20.1128 28.2333 19.101C29.2778 18.0892 30.5333 17.5833 32 17.5833C33.4667 17.5833 34.7222 18.0892 35.7667 19.101C36.8111 20.1128 37.3333 21.3292 37.3333 22.75H40C40.7333 22.75 41.3613 23.0032 41.884 23.5095C42.4067 24.0158 42.6676 24.6238 42.6667 25.3333V40.8333C42.6667 41.5438 42.4053 42.1521 41.8827 42.6585C41.36 43.1648 40.7325 43.4175 40 43.4167H24ZM24 40.8333H40V25.3333H37.3333V27.9167C37.3333 28.2826 37.2053 28.5896 36.9493 28.8376C36.6933 29.0856 36.3769 29.2092 36 29.2083C35.6222 29.2083 35.3053 29.0843 35.0493 28.8363C34.7933 28.5883 34.6658 28.2818 34.6667 27.9167V25.3333H29.3333V27.9167C29.3333 28.2826 29.2053 28.5896 28.9493 28.8376C28.6933 29.0856 28.3769 29.2092 28 29.2083C27.6222 29.2083 27.3053 29.0843 27.0493 28.8363C26.7933 28.5883 26.6658 28.2818 26.6667 27.9167V25.3333H24V40.8333ZM29.3333 22.75H34.6667C34.6667 22.0396 34.4053 21.4312 33.8827 20.9249C33.36 20.4185 32.7325 20.1658 32 20.1667C31.2667 20.1667 30.6387 20.4198 30.116 20.9262C29.5933 21.4325 29.3325 22.0404 29.3333 22.75Z" fill="#374151"/>
<rect x="1" y="1" width="62" height="62" rx="15" stroke="#D1D5DB" stroke-width="2"/>
</svg>
