<svg width="64" height="64" viewBox="0 0 64 64" fill="none" xmlns="http://www.w3.org/2000/svg">
<rect x="1" y="1" width="62" height="62" rx="15" fill="white"/>
<path d="M37.5605 29.0635C37.2995 25.018 35.661 21.074 32.587 18C29.612 20.9597 27.7874 24.8815 27.4395 29.0635C29.2955 30.0495 31.0065 31.3255 32.5 32.877C33.9935 31.34 35.7045 30.064 37.5605 29.0635ZM32.5725 22.6255C33.486 24.119 34.124 25.7865 34.4575 27.5265C33.776 27.9615 33.138 28.44 32.5145 28.9475C31.9055 28.4545 31.253 27.976 30.586 27.541C30.9485 25.801 31.6155 24.1335 32.5725 22.6255ZM32.5 37.5025C31.3187 35.6963 29.8146 34.1234 28.063 32.8625C27.8745 32.732 27.6715 32.6305 27.483 32.4855C27.6715 32.616 27.8745 32.732 28.0485 32.848C25.1263 30.7308 21.6085 29.5938 18 29.6C18 37.314 22.872 43.839 29.6435 46.2605C30.557 46.594 31.514 46.8405 32.5 47C33.486 46.826 34.4285 46.5795 35.3565 46.2605C42.128 43.839 47 37.314 47 29.6C40.939 29.6 35.6175 32.7465 32.5 37.5025ZM34.414 43.52C33.776 43.7375 33.138 43.9115 32.4855 44.0565C31.8475 43.926 31.224 43.752 30.6295 43.5345C25.859 41.8235 22.3645 37.749 21.277 32.877C22.872 33.254 24.3945 33.9065 25.801 34.8055L25.772 34.82C25.9605 34.9505 26.149 35.081 26.3375 35.1825L26.439 35.2405C27.8745 36.2845 29.107 37.575 30.0785 39.083L32.5 42.795L34.9215 39.0975C35.9008 37.6004 37.1438 36.2935 38.59 35.2405L38.6915 35.168C38.822 35.0955 38.9525 35.0085 39.083 34.9215L39.0685 34.8925C40.4895 33.95 42.07 33.254 43.723 32.8625C42.6355 37.749 39.1555 41.8235 34.414 43.52ZM28.1355 32.906C28.1065 32.8915 28.0775 32.8625 28.063 32.848C28.063 32.848 28.0775 32.848 28.0775 32.8625C28.092 32.877 28.1065 32.8915 28.1355 32.906Z" fill="#374151"/>
<rect x="1" y="1" width="62" height="62" rx="15" stroke="#D1D5DB" stroke-width="2"/>
</svg>
