<svg width="64" height="64" viewBox="0 0 64 64" fill="none" xmlns="http://www.w3.org/2000/svg">
<rect x="1" y="1" width="62" height="62" rx="15" fill="white"/>
<path d="M44.247 45.6325C45.5645 45.6325 46.6325 44.6365 46.6325 43.408C46.6325 42.1794 45.5645 41.1834 44.247 41.1834C42.9295 41.1834 41.8614 42.1794 41.8614 43.408C41.8614 44.6365 42.9295 45.6325 44.247 45.6325Z" stroke="#374151" stroke-width="1.7"/>
<path d="M25.5618 20.7399C25.5618 20.7399 33.512 30.0607 42.259 41.5549C29.5361 33.0268 19.9382 25.9839 19.9382 25.9839C19.9382 25.9839 14.9135 21.8225 18.0059 18.938C21.0992 16.0543 25.5618 20.7399 25.5618 20.7399Z" stroke="#374151" stroke-width="1.7" stroke-linejoin="round"/>
<rect x="1" y="1" width="62" height="62" rx="15" stroke="#D1D5DB" stroke-width="2"/>
</svg>
