<svg width="31" height="46" viewBox="0 0 31 46" fill="none" xmlns="http://www.w3.org/2000/svg">
<path d="M26.4737 10.8406C23.9938 6.63888 20.4731 3.14696 16.2511 0.701563L15.5 0.267125L14.7489 0.701563C10.4551 3.17958 6.88966 6.74476 4.41136 11.0384C1.93305 15.332 0.629291 20.2026 0.631251 25.1602C0.631251 25.4832 0.636876 25.8112 0.647845 26.1352C0.797095 30.5279 2.477 34.2242 5.50597 36.8244C7.82384 38.8142 10.797 40.0289 14.0004 40.3187V45.5H17.0004V21.5H14V37.2995C8.9315 36.7123 3.88691 33.1318 3.64588 26.0332C3.63594 25.743 3.63088 25.4493 3.63088 25.1602C3.6398 20.8795 4.73304 16.6709 6.80857 12.927C8.8841 9.18318 11.8743 6.02616 15.5 3.75059C19.1257 6.02621 22.1158 9.18324 24.1912 12.9271C26.2667 16.6709 27.3599 20.8796 27.3688 25.1602C27.3688 25.4493 27.3637 25.743 27.3538 26.0333C27.161 31.712 23.8937 35.1389 19.9996 36.5835V39.7586C22.0204 39.1858 23.8942 38.1851 25.494 36.8242C28.523 34.224 30.2029 30.5278 30.3522 26.1351C30.3631 25.8111 30.3688 25.4831 30.3688 25.1601C30.3714 20.1249 29.0266 15.1807 26.4737 10.8406Z" fill="#00C6FF"/>
<path d="M26.4737 10.8406C23.9938 6.63888 20.4731 3.14696 16.2511 0.701563L15.5 0.267125L14.7489 0.701563C10.4551 3.17958 6.88966 6.74476 4.41136 11.0384C1.93305 15.332 0.629291 20.2026 0.631251 25.1602C0.631251 25.4832 0.636876 25.8112 0.647845 26.1352C0.797095 30.5279 2.477 34.2242 5.50597 36.8244C7.82384 38.8142 10.797 40.0289 14.0004 40.3187V45.5H17.0004V21.5H14V37.2995C8.9315 36.7123 3.88691 33.1318 3.64588 26.0332C3.63594 25.743 3.63088 25.4493 3.63088 25.1602C3.6398 20.8795 4.73304 16.6709 6.80857 12.927C8.8841 9.18318 11.8743 6.02616 15.5 3.75059C19.1257 6.02621 22.1158 9.18324 24.1912 12.9271C26.2667 16.6709 27.3599 20.8796 27.3688 25.1602C27.3688 25.4493 27.3637 25.743 27.3538 26.0333C27.161 31.712 23.8937 35.1389 19.9996 36.5835V39.7586C22.0204 39.1858 23.8942 38.1851 25.494 36.8242C28.523 34.224 30.2029 30.5278 30.3522 26.1351C30.3631 25.8111 30.3688 25.4831 30.3688 25.1601C30.3714 20.1249 29.0266 15.1807 26.4737 10.8406Z" fill="#0072FF"/>
</svg>
