<svg width="48" height="48" viewBox="0 0 48 48" fill="none" xmlns="http://www.w3.org/2000/svg">
<path d="M6.5 19.3C6.26666 19.1333 6.12466 18.9247 6.074 18.674C6.02333 18.4233 6.09866 18.1653 6.3 17.9C8.36666 15.0667 10.9587 12.8667 14.076 11.3C17.1933 9.73334 20.518 8.95 24.05 8.95C27.5833 8.95 30.9167 9.70867 34.05 11.226C37.1833 12.7433 39.8 14.9347 41.9 17.8C42.1 18.1 42.164 18.3667 42.092 18.6C42.02 18.8333 41.8893 19.0333 41.7 19.2C41.5 19.3667 41.2667 19.442 41 19.426C40.7333 19.41 40.5 19.268 40.3 19C38.4667 16.4 36.108 14.4087 33.224 13.026C30.34 11.6433 27.282 10.9513 24.05 10.95C20.8167 10.95 17.7833 11.642 14.95 13.026C12.1167 14.41 9.76666 16.4013 7.9 19C7.7 19.3 7.46666 19.4667 7.2 19.5C6.93333 19.5333 6.7 19.4667 6.5 19.3ZM29.7 43.95C26.2333 43.0833 23.4 41.358 21.2 38.774C19 36.19 17.9 33.032 17.9 29.3C17.9 27.6333 18.5 26.2333 19.7 25.1C20.9 23.9667 22.35 23.4 24.05 23.4C25.75 23.4 27.2 23.9667 28.4 25.1C29.6 26.2333 30.2 27.6333 30.2 29.3C30.2 30.4 30.6167 31.3253 31.45 32.076C32.2833 32.8267 33.2667 33.2013 34.4 33.2C35.5333 33.2 36.5 32.8247 37.3 32.074C38.1 31.3233 38.5 30.3987 38.5 29.3C38.5 25.4333 37.0833 22.1833 34.25 19.55C31.4167 16.9167 28.0333 15.6 24.1 15.6C20.1667 15.6 16.7833 16.9167 13.95 19.55C11.1167 22.1833 9.7 25.4167 9.7 29.25C9.7 30.05 9.77533 31.05 9.926 32.25C10.0767 33.45 10.4347 34.85 11 36.45C11.1 36.75 11.092 37.0167 10.976 37.25C10.86 37.4833 10.668 37.65 10.4 37.75C10.1333 37.85 9.87466 37.8413 9.624 37.724C9.37333 37.6067 9.19866 37.4153 9.1 37.15C8.6 35.85 8.242 34.558 8.026 33.274C7.81 31.99 7.70133 30.6653 7.7 29.3C7.7 24.8667 9.30866 21.15 12.526 18.15C15.7433 15.15 19.5847 13.65 24.05 13.65C28.55 13.65 32.4167 15.15 35.65 18.15C38.8833 21.15 40.5 24.8667 40.5 29.3C40.5 30.9667 39.9087 32.358 38.726 33.474C37.5433 34.59 36.1013 35.1487 34.4 35.15C32.7 35.15 31.2413 34.5913 30.024 33.474C28.8067 32.3567 28.1987 30.9653 28.2 29.3C28.2 28.2 27.792 27.2747 26.976 26.524C26.16 25.7733 25.1847 25.3987 24.05 25.4C22.9167 25.4 21.9413 25.7753 21.124 26.526C20.3067 27.2767 19.8987 28.2013 19.9 29.3C19.9 32.5333 20.8587 35.2333 22.776 37.4C24.6933 39.5667 27.168 41.0833 30.2 41.95C30.5 42.05 30.7 42.2167 30.8 42.45C30.9 42.6833 30.9167 42.9333 30.85 43.2C30.7833 43.4333 30.65 43.6333 30.45 43.8C30.25 43.9667 30 44.0167 29.7 43.95ZM13 8.85C12.7333 9.01667 12.4667 9.05867 12.2 8.976C11.9333 8.89334 11.7333 8.718 11.6 8.45C11.4667 8.18334 11.4333 7.942 11.5 7.726C11.5667 7.51 11.7333 7.318 12 7.15C13.8667 6.15 15.8167 5.38334 17.85 4.85C19.8833 4.31667 21.95 4.05 24.05 4.05C26.1833 4.05 28.2667 4.30867 30.3 4.826C32.3333 5.34334 34.3 6.08467 36.2 7.05C36.5 7.21667 36.6753 7.41667 36.726 7.65C36.7767 7.88334 36.7513 8.11667 36.65 8.35C36.55 8.58334 36.3833 8.76667 36.15 8.9C35.9167 9.03334 35.6333 9.01667 35.3 8.85C33.5333 7.95 31.708 7.258 29.824 6.774C27.94 6.29 26.0153 6.04867 24.05 6.05C22.1167 6.05 20.2167 6.27534 18.35 6.726C16.4833 7.17667 14.7 7.88467 13 8.85ZM18.9 43.25C16.9333 41.1833 15.4247 39.0747 14.374 36.924C13.3233 34.7733 12.7987 32.232 12.8 29.3C12.8 26.2667 13.9 23.708 16.1 21.624C18.3 19.54 20.95 18.4987 24.05 18.5C27.15 18.5 29.8167 19.542 32.05 21.626C34.2833 23.71 35.4 26.268 35.4 29.3C35.4 29.6 35.308 29.842 35.124 30.026C34.94 30.21 34.6987 30.3013 34.4 30.3C34.1333 30.3 33.9 30.208 33.7 30.024C33.5 29.84 33.4 29.5987 33.4 29.3C33.4 26.8 32.4747 24.708 30.624 23.024C28.7733 21.34 26.582 20.4987 24.05 20.5C21.5167 20.5 19.3413 21.342 17.524 23.026C15.7067 24.71 14.7987 26.8013 14.8 29.3C14.8 32 15.2667 34.292 16.2 36.176C17.1333 38.06 18.5 39.9513 20.3 41.85C20.5 42.05 20.6 42.2833 20.6 42.55C20.6 42.8167 20.5 43.05 20.3 43.25C20.1 43.45 19.8667 43.55 19.6 43.55C19.3333 43.55 19.1 43.45 18.9 43.25ZM34 39.85C31.0333 39.85 28.458 38.85 26.274 36.85C24.09 34.85 22.9987 32.3333 23 29.3C23 29.0333 23.092 28.8 23.276 28.6C23.46 28.4 23.7013 28.3 24 28.3C24.3 28.3 24.542 28.4 24.726 28.6C24.91 28.8 25.0013 29.0333 25 29.3C25 31.8 25.9 33.85 27.7 35.45C29.5 37.05 31.6 37.85 34 37.85C34.2 37.85 34.4833 37.8333 34.85 37.8C35.2167 37.7667 35.6 37.7167 36 37.65C36.3 37.5833 36.5587 37.6253 36.776 37.776C36.9933 37.9267 37.1347 38.1513 37.2 38.45C37.2667 38.7167 37.2167 38.95 37.05 39.15C36.8833 39.35 36.6667 39.4833 36.4 39.55C35.8 39.7167 35.2753 39.8087 34.826 39.826C34.3767 39.8433 34.1013 39.8513 34 39.85Z" fill="#00C6FF"/>
<path d="M6.5 19.3C6.26666 19.1333 6.12466 18.9247 6.074 18.674C6.02333 18.4233 6.09866 18.1653 6.3 17.9C8.36666 15.0667 10.9587 12.8667 14.076 11.3C17.1933 9.73334 20.518 8.95 24.05 8.95C27.5833 8.95 30.9167 9.70867 34.05 11.226C37.1833 12.7433 39.8 14.9347 41.9 17.8C42.1 18.1 42.164 18.3667 42.092 18.6C42.02 18.8333 41.8893 19.0333 41.7 19.2C41.5 19.3667 41.2667 19.442 41 19.426C40.7333 19.41 40.5 19.268 40.3 19C38.4667 16.4 36.108 14.4087 33.224 13.026C30.34 11.6433 27.282 10.9513 24.05 10.95C20.8167 10.95 17.7833 11.642 14.95 13.026C12.1167 14.41 9.76666 16.4013 7.9 19C7.7 19.3 7.46666 19.4667 7.2 19.5C6.93333 19.5333 6.7 19.4667 6.5 19.3ZM29.7 43.95C26.2333 43.0833 23.4 41.358 21.2 38.774C19 36.19 17.9 33.032 17.9 29.3C17.9 27.6333 18.5 26.2333 19.7 25.1C20.9 23.9667 22.35 23.4 24.05 23.4C25.75 23.4 27.2 23.9667 28.4 25.1C29.6 26.2333 30.2 27.6333 30.2 29.3C30.2 30.4 30.6167 31.3253 31.45 32.076C32.2833 32.8267 33.2667 33.2013 34.4 33.2C35.5333 33.2 36.5 32.8247 37.3 32.074C38.1 31.3233 38.5 30.3987 38.5 29.3C38.5 25.4333 37.0833 22.1833 34.25 19.55C31.4167 16.9167 28.0333 15.6 24.1 15.6C20.1667 15.6 16.7833 16.9167 13.95 19.55C11.1167 22.1833 9.7 25.4167 9.7 29.25C9.7 30.05 9.77533 31.05 9.926 32.25C10.0767 33.45 10.4347 34.85 11 36.45C11.1 36.75 11.092 37.0167 10.976 37.25C10.86 37.4833 10.668 37.65 10.4 37.75C10.1333 37.85 9.87466 37.8413 9.624 37.724C9.37333 37.6067 9.19866 37.4153 9.1 37.15C8.6 35.85 8.242 34.558 8.026 33.274C7.81 31.99 7.70133 30.6653 7.7 29.3C7.7 24.8667 9.30866 21.15 12.526 18.15C15.7433 15.15 19.5847 13.65 24.05 13.65C28.55 13.65 32.4167 15.15 35.65 18.15C38.8833 21.15 40.5 24.8667 40.5 29.3C40.5 30.9667 39.9087 32.358 38.726 33.474C37.5433 34.59 36.1013 35.1487 34.4 35.15C32.7 35.15 31.2413 34.5913 30.024 33.474C28.8067 32.3567 28.1987 30.9653 28.2 29.3C28.2 28.2 27.792 27.2747 26.976 26.524C26.16 25.7733 25.1847 25.3987 24.05 25.4C22.9167 25.4 21.9413 25.7753 21.124 26.526C20.3067 27.2767 19.8987 28.2013 19.9 29.3C19.9 32.5333 20.8587 35.2333 22.776 37.4C24.6933 39.5667 27.168 41.0833 30.2 41.95C30.5 42.05 30.7 42.2167 30.8 42.45C30.9 42.6833 30.9167 42.9333 30.85 43.2C30.7833 43.4333 30.65 43.6333 30.45 43.8C30.25 43.9667 30 44.0167 29.7 43.95ZM13 8.85C12.7333 9.01667 12.4667 9.05867 12.2 8.976C11.9333 8.89334 11.7333 8.718 11.6 8.45C11.4667 8.18334 11.4333 7.942 11.5 7.726C11.5667 7.51 11.7333 7.318 12 7.15C13.8667 6.15 15.8167 5.38334 17.85 4.85C19.8833 4.31667 21.95 4.05 24.05 4.05C26.1833 4.05 28.2667 4.30867 30.3 4.826C32.3333 5.34334 34.3 6.08467 36.2 7.05C36.5 7.21667 36.6753 7.41667 36.726 7.65C36.7767 7.88334 36.7513 8.11667 36.65 8.35C36.55 8.58334 36.3833 8.76667 36.15 8.9C35.9167 9.03334 35.6333 9.01667 35.3 8.85C33.5333 7.95 31.708 7.258 29.824 6.774C27.94 6.29 26.0153 6.04867 24.05 6.05C22.1167 6.05 20.2167 6.27534 18.35 6.726C16.4833 7.17667 14.7 7.88467 13 8.85ZM18.9 43.25C16.9333 41.1833 15.4247 39.0747 14.374 36.924C13.3233 34.7733 12.7987 32.232 12.8 29.3C12.8 26.2667 13.9 23.708 16.1 21.624C18.3 19.54 20.95 18.4987 24.05 18.5C27.15 18.5 29.8167 19.542 32.05 21.626C34.2833 23.71 35.4 26.268 35.4 29.3C35.4 29.6 35.308 29.842 35.124 30.026C34.94 30.21 34.6987 30.3013 34.4 30.3C34.1333 30.3 33.9 30.208 33.7 30.024C33.5 29.84 33.4 29.5987 33.4 29.3C33.4 26.8 32.4747 24.708 30.624 23.024C28.7733 21.34 26.582 20.4987 24.05 20.5C21.5167 20.5 19.3413 21.342 17.524 23.026C15.7067 24.71 14.7987 26.8013 14.8 29.3C14.8 32 15.2667 34.292 16.2 36.176C17.1333 38.06 18.5 39.9513 20.3 41.85C20.5 42.05 20.6 42.2833 20.6 42.55C20.6 42.8167 20.5 43.05 20.3 43.25C20.1 43.45 19.8667 43.55 19.6 43.55C19.3333 43.55 19.1 43.45 18.9 43.25ZM34 39.85C31.0333 39.85 28.458 38.85 26.274 36.85C24.09 34.85 22.9987 32.3333 23 29.3C23 29.0333 23.092 28.8 23.276 28.6C23.46 28.4 23.7013 28.3 24 28.3C24.3 28.3 24.542 28.4 24.726 28.6C24.91 28.8 25.0013 29.0333 25 29.3C25 31.8 25.9 33.85 27.7 35.45C29.5 37.05 31.6 37.85 34 37.85C34.2 37.85 34.4833 37.8333 34.85 37.8C35.2167 37.7667 35.6 37.7167 36 37.65C36.3 37.5833 36.5587 37.6253 36.776 37.776C36.9933 37.9267 37.1347 38.1513 37.2 38.45C37.2667 38.7167 37.2167 38.95 37.05 39.15C36.8833 39.35 36.6667 39.4833 36.4 39.55C35.8 39.7167 35.2753 39.8087 34.826 39.826C34.3767 39.8433 34.1013 39.8513 34 39.85Z" fill="#0072FF"/>
</svg>
