<svg width="20" height="16" viewBox="0 0 20 16" fill="none" xmlns="http://www.w3.org/2000/svg">
<path d="M16.75 8.45017C16.75 7.85343 16.9871 7.28114 17.409 6.85918C17.831 6.43722 18.4033 6.20017 19 6.20017V5.30017C19 1.70017 18.1 0.800171 14.5 0.800171H5.5C1.9 0.800171 1 1.70017 1 5.30017V5.75017C1.59674 5.75017 2.16903 5.98722 2.59099 6.40918C3.01295 6.83114 3.25 7.40343 3.25 8.00017C3.25 8.59691 3.01295 9.1692 2.59099 9.59116C2.16903 10.0131 1.59674 10.2502 1 10.2502V10.7002C1 14.3002 1.9 15.2002 5.5 15.2002H14.5C18.1 15.2002 19 14.3002 19 10.7002C18.4033 10.7002 17.831 10.4631 17.409 10.0412C16.9871 9.6192 16.75 9.04691 16.75 8.45017Z" stroke="#374151" stroke-width="1.5" stroke-linecap="round" stroke-linejoin="round"/>
<path d="M8.19922 0.800171V15.2002" stroke="#374151" stroke-width="1.5" stroke-linecap="round" stroke-linejoin="round" stroke-dasharray="4.5 4.5"/>
</svg>
