<svg width="64" height="64" viewBox="0 0 64 64" fill="none" xmlns="http://www.w3.org/2000/svg">
<rect x="1" y="1" width="62" height="62" rx="15" fill="white"/>
<path d="M27.8339 18.0001C25.777 17.9931 23.7633 18.5876 22.0423 19.71L28.9064 26.55C29.135 26.7443 29.3222 26.9823 29.4571 27.2499C29.592 27.5175 29.6718 27.8092 29.6918 28.108C29.7118 28.4068 29.6715 28.7065 29.5735 28.9896C29.4754 29.2726 29.3215 29.5333 29.1209 29.7562C28.8972 29.9561 28.6356 30.1095 28.3516 30.2072C28.0675 30.3049 27.7667 30.345 27.4669 30.3251C27.1671 30.3051 26.8743 30.2256 26.6057 30.0912C26.3372 29.9568 26.0984 29.7702 25.9033 29.5424L18.8248 22.7025C17.601 24.4971 16.9641 26.6249 17.0016 28.7943C17.0129 31.6537 18.1577 34.3927 20.1867 36.4146C22.2158 38.4364 24.9644 39.5773 27.8339 39.5885C28.7729 39.5937 29.7092 39.486 30.6224 39.2679L37.8081 46.4285C38.8179 47.4347 40.1875 48 41.6155 48C43.0436 48 44.4131 47.4347 45.4229 46.4285C46.4327 45.4222 47 44.0575 47 42.6344C47 41.2114 46.4327 39.8467 45.4229 38.8404L38.2371 31.6799C38.456 30.7699 38.564 29.8369 38.5589 28.9012C38.5874 27.4798 38.3311 26.0671 37.8049 24.7456C37.2787 23.4242 36.4932 22.2207 35.4945 21.2055C34.4957 20.1903 33.3037 19.3839 31.9883 18.8335C30.6729 18.2831 29.2605 17.9998 27.8339 18.0001ZM36.4139 28.7943C36.4123 29.5537 36.304 30.3092 36.0921 31.0387L35.7704 32.2143L36.6284 33.0693L43.8142 40.2298C44.1202 40.5185 44.3637 40.8665 44.5297 41.2525C44.6957 41.6385 44.7807 42.0542 44.7794 42.4741C44.7915 42.8956 44.7114 43.3147 44.5447 43.7022C44.3781 44.0898 44.1288 44.4365 43.8142 44.7185C43.5237 45.0224 43.1743 45.2644 42.7871 45.4298C42.3999 45.5951 41.9831 45.6803 41.5619 45.6803C41.1407 45.6803 40.7239 45.5951 40.3367 45.4298C39.9496 45.2644 39.6001 45.0224 39.3097 44.7185L32.1239 37.5579L31.2659 36.703L30.0861 37.0236C29.3541 37.2347 28.5959 37.3426 27.8339 37.3442C25.5549 37.3379 23.3658 36.4577 21.7206 34.8861C20.8886 34.106 20.2297 33.1609 19.7864 32.1117C19.3431 31.0626 19.1251 29.9325 19.1466 28.7943C19.148 27.9998 19.2563 27.209 19.4683 26.4431L24.1873 31.1455C24.5861 31.5779 25.0672 31.9269 25.6027 32.1721C26.1382 32.4173 26.7173 32.5538 27.3063 32.5737C27.8953 32.5936 28.4823 32.4965 29.0332 32.288C29.5841 32.0795 30.0879 31.7638 30.5151 31.3593C30.921 30.9336 31.2379 30.4316 31.4471 29.8826C31.6563 29.3336 31.7538 28.7486 31.7338 28.1617C31.7139 27.5748 31.5769 26.9977 31.3308 26.4641C31.0847 25.9305 30.7345 25.4511 30.3006 25.0537L25.5816 20.3513C26.2752 20.1327 26.9991 20.0245 27.7266 20.0307C30.0056 20.037 32.1947 20.9172 33.8399 22.4888C35.4866 24.1781 36.4096 26.4392 36.4139 28.7943Z" fill="#374151"/>
<rect x="1" y="1" width="62" height="62" rx="15" stroke="#D1D5DB" stroke-width="2"/>
</svg>
