<svg width="64" height="64" viewBox="0 0 64 64" fill="none" xmlns="http://www.w3.org/2000/svg">
<rect x="1" y="1" width="62" height="62" rx="15" fill="white"/>
<path d="M32.0007 32C32.734 32 33.362 31.7386 33.8847 31.216C34.4073 30.6933 34.6682 30.0657 34.6673 29.3333C34.6673 28.6 34.406 27.972 33.8833 27.4493C33.3607 26.9266 32.7331 26.6657 32.0007 26.6666C31.2673 26.6666 30.6393 26.928 30.1167 27.4506C29.594 27.9733 29.3331 28.6008 29.334 29.3333C29.334 30.0666 29.5953 30.6946 30.118 31.2173C30.6407 31.74 31.2682 32.0008 32.0007 32ZM32.0007 41.8C34.7118 39.3111 36.7229 37.0497 38.034 35.016C39.3451 32.9822 40.0007 31.1768 40.0007 29.6C40.0007 27.1777 39.2282 25.1946 37.6833 23.6506C36.1384 22.1066 34.2442 21.3342 32.0007 21.3333C29.7562 21.3333 27.8615 22.1057 26.3167 23.6506C24.7718 25.1955 23.9998 27.1786 24.0007 29.6C24.0007 31.1777 24.6562 32.9835 25.9673 35.0173C27.2784 37.0511 29.2895 39.312 32.0007 41.8ZM32.0007 45.3333C28.4229 42.2888 25.7509 39.4613 23.9847 36.8506C22.2184 34.24 21.3349 31.8231 21.334 29.6C21.334 26.2666 22.4064 23.6111 24.5513 21.6333C26.6962 19.6555 29.1793 18.6666 32.0007 18.6666C34.8229 18.6666 37.3064 19.6555 39.4513 21.6333C41.5962 23.6111 42.6682 26.2666 42.6673 29.6C42.6673 31.8222 41.7838 34.2391 40.0167 36.8506C38.2495 39.4622 35.5775 42.2897 32.0007 45.3333Z" fill="#374151"/>
<rect x="1" y="1" width="62" height="62" rx="15" stroke="#D1D5DB" stroke-width="2"/>
</svg>
