<svg width="24" height="20" viewBox="0 0 24 20" fill="none" xmlns="http://www.w3.org/2000/svg">
<path d="M23.9983 2.58987C23.0997 2.98796 22.1466 3.24926 21.1706 3.3651C22.1872 2.75579 22.9677 1.79093 23.3353 0.641304C22.3689 1.21479 21.3116 1.61885 20.209 1.83601C19.3109 0.879215 18.0314 0.28125 16.6153 0.28125C13.8963 0.28125 11.6918 2.48563 11.6918 5.20445C11.6918 5.59038 11.7354 5.96609 11.8193 6.32652C7.72756 6.12113 4.09983 4.16113 1.67151 1.18246C1.24781 1.9096 1.00502 2.75541 1.00502 3.65756C1.00502 5.36569 1.87427 6.87255 3.19525 7.75548C2.41341 7.731 1.64878 7.51983 0.965182 7.13961C0.964901 7.16024 0.964901 7.18086 0.964901 7.20158C0.964901 9.58697 2.66196 11.5769 4.91415 12.0292C4.18916 12.2263 3.42869 12.2552 2.69083 12.1135C3.3173 14.0695 5.13556 15.4928 7.28989 15.5327C5.60492 16.8531 3.482 17.6402 1.17544 17.6402C0.777984 17.6402 0.386153 17.6169 0.000976562 17.5714C2.17977 18.9683 4.76764 19.7834 7.54795 19.7834C16.6039 19.7834 21.5558 12.2813 21.5558 5.77542C21.5558 5.56188 21.5511 5.34956 21.5416 5.13846C22.5054 4.44168 23.3374 3.57865 23.9983 2.58987Z" fill="#55ACEE"/>
</svg>
