<svg width="45" height="44" viewBox="0 0 45 44" fill="none" xmlns="http://www.w3.org/2000/svg">
<circle cx="22.9665" cy="22" r="21.0833" fill="white"/>
<path fill-rule="evenodd" clip-rule="evenodd" d="M0.599518 22C0.599518 9.84974 10.4493 0 22.5995 0C34.7498 0 44.5995 9.84974 44.5995 22C44.5995 34.1503 34.7498 44 22.5995 44C10.4493 44 0.599518 34.1503 0.599518 22ZM30.987 15.8125C31.9495 15.675 32.7745 15.5375 33.5995 15.125C33.0495 16.0875 32.2245 16.9125 31.262 17.4625C31.537 23.925 26.862 30.9375 18.4745 30.9375C15.9995 30.9375 13.662 30.1125 11.5995 28.875C13.937 29.15 16.412 28.4625 18.062 27.225C15.9995 27.225 14.3495 25.85 13.7995 24.0625C14.487 24.2 15.1745 24.0625 15.862 23.925C13.7995 23.375 12.287 21.45 12.287 19.3875C12.9745 19.6625 13.662 19.9375 14.3495 19.9375C12.4245 18.5625 11.737 15.95 12.9745 13.8875C15.312 16.6375 18.612 18.425 22.3245 18.5625C21.637 15.8125 23.837 13.0625 26.7245 13.0625C27.962 13.0625 29.1995 13.6125 30.0245 14.4375C31.1245 14.1625 32.087 13.8875 32.912 13.3375C32.637 14.4375 31.9495 15.2625 30.987 15.8125Z" fill="url(#paint0_linear_4124_7483)"/>
<defs>
<linearGradient id="paint0_linear_4124_7483" x1="0.599518" y1="22" x2="44.5995" y2="22" gradientUnits="userSpaceOnUse">
<stop stop-color="#00C6FF"/>
<stop offset="1" stop-color="#0072FF"/>
</linearGradient>
</defs>
</svg>
