<svg width="24" height="24" viewBox="0 0 24 24" fill="none" xmlns="http://www.w3.org/2000/svg">
<path d="M0.511341 11.8564C0.510783 13.8729 1.03767 15.8418 2.03953 17.5773L0.415527 23.5067L6.48362 21.9157C8.16197 22.8294 10.0424 23.3081 11.9534 23.3082H11.9584C18.2668 23.3082 23.4019 18.1749 23.4046 11.8654C23.4059 8.80804 22.2163 5.93307 20.055 3.77009C17.894 1.6073 15.0201 0.41558 11.9579 0.414185C5.64883 0.414185 0.514039 5.54721 0.511434 11.8564" fill="url(#paint0_linear_1_6)"/>
<path d="M8.99645 6.89746C8.7745 6.40416 8.54092 6.39421 8.32985 6.38556C8.15701 6.37811 7.95943 6.37867 7.76203 6.37867C7.56445 6.37867 7.24343 6.453 6.97208 6.74928C6.70045 7.04583 5.93506 7.76249 5.93506 9.22007C5.93506 10.6777 6.99673 12.0864 7.14473 12.2843C7.29292 12.4817 9.19431 15.5686 12.2057 16.7562C14.7084 17.743 15.2177 17.5468 15.7608 17.4973C16.3041 17.448 17.5138 16.7808 17.7605 16.089C18.0075 15.3973 18.0075 14.8043 17.9335 14.6804C17.8594 14.557 17.6618 14.4829 17.3656 14.3348C17.0692 14.1866 15.6126 13.4698 15.3411 13.371C15.0695 13.2722 14.872 13.2229 14.6744 13.5195C14.4768 13.8157 13.9095 14.4829 13.7365 14.6804C13.5638 14.8785 13.3909 14.9031 13.0947 14.755C12.7982 14.6063 11.8441 14.2938 10.7121 13.2846C9.83134 12.4993 9.23673 11.5296 9.0639 11.2329C8.89106 10.9367 9.04538 10.7762 9.19394 10.6285C9.32706 10.4958 9.49031 10.2826 9.63859 10.1096C9.78631 9.93663 9.83562 9.81318 9.93441 9.6156C10.0333 9.41783 9.9838 9.24481 9.90985 9.09663C9.83562 8.94844 9.2599 7.48323 8.99645 6.89746Z" fill="white"/>
<defs>
<linearGradient id="paint0_linear_1_6" x1="1149.87" y1="2309.67" x2="1149.87" y2="0.414185" gradientUnits="userSpaceOnUse">
<stop stop-color="#1FAF38"/>
<stop offset="1" stop-color="#60D669"/>
</linearGradient>
</defs>
</svg>
