<svg width="45" height="44" viewBox="0 0 45 44" fill="none" xmlns="http://www.w3.org/2000/svg">
<circle cx="22.7664" cy="21.9998" r="21.0833" fill="url(#paint0_linear_5601_107488)"/>
<path d="M23.3502 14.1665C23.9332 14.1697 25.3917 14.1833 26.942 14.2431L27.4922 14.2662C29.0523 14.3366 30.6113 14.4583 31.3853 14.6651C32.417 14.9444 33.2271 15.7569 33.5011 16.7877C33.9378 18.4253 33.9924 21.6186 33.9989 22.3923L34 22.5518V22.7345C33.9924 23.5081 33.9378 26.7025 33.5011 28.339C33.2238 29.373 32.4126 30.1866 31.3853 30.4616C30.6113 30.6684 29.0523 30.7902 27.4922 30.8605L26.942 30.8847C25.3917 30.9434 23.9332 30.9581 23.3502 30.9602L23.0936 30.9613H22.8152C21.5816 30.9539 16.4221 30.9004 14.7801 30.4616C13.7495 30.1824 12.9384 29.3699 12.6643 28.339C12.2276 26.7014 12.1731 23.5081 12.1665 22.7345V22.3923C12.1731 21.6186 12.2276 18.4242 12.6643 16.7877C12.9416 15.7537 13.7528 14.9402 14.7812 14.6662C16.4221 14.2263 21.5827 14.1728 22.8163 14.1665H23.3502ZM20.8992 18.8903V26.2385L27.4496 22.5644L20.8992 18.8903Z" fill="white"/>
<defs>
<linearGradient id="paint0_linear_5601_107488" x1="1.68311" y1="21.9998" x2="43.8498" y2="21.9998" gradientUnits="userSpaceOnUse">
<stop stop-color="#00C6FF"/>
<stop offset="1" stop-color="#0072FF"/>
</linearGradient>
</defs>
</svg>
