<svg width="36" height="36" viewBox="0 0 36 36" fill="none" xmlns="http://www.w3.org/2000/svg">
<circle cx="18.2998" cy="18" r="17.25" fill="url(#paint0_linear_5601_101706)"/>
<path d="M18.7801 11.7661C19.2378 11.7687 20.3829 11.7798 21.6001 11.8287L22.0321 11.8475C23.2569 11.905 24.4809 12.0044 25.0887 12.1733C25.8987 12.4013 26.5347 13.0647 26.7498 13.9064C27.0927 15.2435 27.1355 17.851 27.1407 18.4827L27.1415 18.613V18.7621C27.1355 19.3938 27.0927 22.0021 26.7498 23.3384C26.5321 24.1827 25.8952 24.847 25.0887 25.0715C24.4809 25.2404 23.2569 25.3398 22.0321 25.3973L21.6001 25.417C20.3829 25.465 19.2378 25.477 18.7801 25.4787L18.5787 25.4795H18.3601C17.3915 25.4735 13.3407 25.4298 12.0515 25.0715C11.2424 24.8435 10.6055 24.1801 10.3904 23.3384C10.0475 22.0013 10.0047 19.3938 9.99951 18.7621V18.4827C10.0047 17.851 10.0475 15.2427 10.3904 13.9064C10.6081 13.0621 11.2449 12.3978 12.0524 12.1741C13.3407 11.815 17.3924 11.7713 18.3609 11.7661H18.7801ZM16.8558 15.6233V21.6233L21.9987 18.6233L16.8558 15.6233Z" fill="white"/>
<defs>
<linearGradient id="paint0_linear_5601_101706" x1="1.0498" y1="18" x2="35.5498" y2="18" gradientUnits="userSpaceOnUse">
<stop stop-color="#00C6FF"/>
<stop offset="1" stop-color="#0072FF"/>
</linearGradient>
</defs>
</svg>
